<?xml version="1.0" encoding="UTF-8" standalone="no"?>
<svg
   version="1.1"
   width="576px"
   height="366px"
   style="shape-rendering:geometricPrecision; text-rendering:geometricPrecision; image-rendering:optimizeQuality; fill-rule:evenodd; clip-rule:evenodd"
   id="svg234"
   sodipodi:docname="yak_small_white.svg"
   inkscape:version="1.3.2 (091e20e, 2023-11-25, custom)"
   xmlns:inkscape="http://www.inkscape.org/namespaces/inkscape"
   xmlns:sodipodi="http://sodipodi.sourceforge.net/DTD/sodipodi-0.dtd"
   xmlns="http://www.w3.org/2000/svg"
   xmlns:svg="http://www.w3.org/2000/svg">
  <defs
     id="defs234" />
  <sodipodi:namedview
     id="namedview234"
     pagecolor="#ffffff"
     bordercolor="#666666"
     borderopacity="1.0"
     inkscape:showpageshadow="2"
     inkscape:pageopacity="0.0"
     inkscape:pagecheckerboard="true"
     inkscape:deskcolor="#d1d1d1"
     inkscape:zoom="3.5374659"
     inkscape:cx="275.33834"
     inkscape:cy="209.61333"
     inkscape:window-width="3840"
     inkscape:window-height="2066"
     inkscape:window-x="1909"
     inkscape:window-y="-11"
     inkscape:window-maximized="1"
     inkscape:current-layer="svg234" />
  <g
     id="g2"
     style="fill:#ffffff">
    <path
       style="opacity:1;fill:#ffffff"
       fill="#1a1a1a"
       d="M 218.5,16.5 C 218.5,16.8333 218.5,17.1667 218.5,17.5C 216.473,17.3379 214.473,17.5045 212.5,18C 214.382,18.1981 216.048,18.6981 217.5,19.5C 205.842,21.0018 194.508,19.6684 183.5,15.5C 182.378,16.6302 181.044,17.2969 179.5,17.5C 179.953,16.5416 180.619,15.7083 181.5,15C 180.663,13.9887 180.33,12.8221 180.5,11.5C 186.088,13.4824 191.755,15.3157 197.5,17C 204.499,17.228 211.499,17.0613 218.5,16.5 Z"
       id="path2" />
  </g>
  <g
     id="g3"
     style="fill:#ffffff">
    <path
       style="opacity:1;fill:#ffffff"
       fill="#404040"
       d="M 232.5,17.5 C 227.477,18.006 222.477,18.6727 217.5,19.5C 216.048,18.6981 214.382,18.1981 212.5,18C 214.473,17.5045 216.473,17.3379 218.5,17.5C 222.458,17.7489 226.124,17.0823 229.5,15.5C 233.879,14.9196 238.212,14.4196 242.5,14C 239.126,15.2329 235.793,16.3996 232.5,17.5 Z"
       id="path3" />
  </g>
  <g
     id="g4"
     style="fill:#ffffff">
    <path
       style="opacity:1;fill:#ffffff"
       fill="#777777"
       d="M 229.5,15.5 C 226.124,17.0823 222.458,17.7489 218.5,17.5C 218.5,17.1667 218.5,16.8333 218.5,16.5C 222.069,14.5593 225.735,14.226 229.5,15.5 Z"
       id="path4" />
  </g>
  <g
     id="g5"
     style="fill:#ffffff">
    <path
       style="opacity:1;fill:#ffffff"
       fill="#606060"
       d="M 241.5,17.5 C 242.946,16.3871 244.613,16.2204 246.5,17C 245.437,18.1882 244.103,18.6882 242.5,18.5C 242.5,17.8333 242.167,17.5 241.5,17.5 Z"
       id="path5" />
  </g>
  <g
     id="g6"
     style="fill:#ffffff">
    <path
       style="opacity:1;fill:#ffffff"
       fill="#303030"
       d="M 268.5,18.5 C 267.833,18.5 267.5,18.1667 267.5,17.5C 271.137,16.5032 274.804,16.0032 278.5,16C 275.28,17.3524 271.947,18.1857 268.5,18.5 Z"
       id="path6" />
  </g>
  <g
     id="g7"
     style="fill:#ffffff">
    <path
       style="opacity:1;fill:#ffffff"
       fill="#3e3e3e"
       d="M 232.5,17.5 C 235.5,17.5 238.5,17.5 241.5,17.5C 242.167,17.5 242.5,17.8333 242.5,18.5C 239.219,18.4203 236.219,19.087 233.5,20.5C 232.5,20.5 231.5,20.5 230.5,20.5C 228.326,20.9202 226.326,20.9202 224.5,20.5C 227.276,19.4852 229.943,18.4852 232.5,17.5 Z"
       id="path7" />
  </g>
  <g
     id="g8"
     style="fill:#ffffff">
    <path
       style="opacity:1;fill:#ffffff"
       fill="#242424"
       d="M 288.5,22.5 C 286.236,21.7814 283.903,21.448 281.5,21.5C 285.967,19.9666 290.633,19.1333 295.5,19C 293.391,20.6455 291.057,21.8122 288.5,22.5 Z"
       id="path8" />
  </g>
  <g
     id="g9"
     style="fill:#ffffff">
    <path
       style="opacity:1;fill:#ffffff"
       fill="#3d3d3d"
       d="M 265.5,18.5 C 265.445,19.4692 264.445,20.1358 262.5,20.5C 261.5,20.5 260.5,20.5 259.5,20.5C 261.214,19.2616 263.214,18.595 265.5,18.5 Z"
       id="path9" />
  </g>
  <g
     id="g10"
     style="fill:#ffffff">
    <path
       style="opacity:1;fill:#ffffff"
       fill="#838383"
       d="M 265.5,18.5 C 265.842,17.6618 266.508,17.3284 267.5,17.5C 267.5,18.1667 267.833,18.5 268.5,18.5C 272.052,18.9894 275.718,19.3227 279.5,19.5C 276.914,20.48 274.247,20.8134 271.5,20.5C 268.941,20.1984 266.607,20.5318 264.5,21.5C 263.469,22.2485 262.302,22.9152 261,23.5C 260.761,22.212 261.261,21.212 262.5,20.5C 264.445,20.1358 265.445,19.4692 265.5,18.5 Z"
       id="path10" />
  </g>
  <g
     id="g11"
     style="fill:#ffffff">
    <path
       style="opacity:1;fill:#ffffff"
       fill="#171717"
       d="M 230.5,20.5 C 231.5,20.5 232.5,20.5 233.5,20.5C 239.804,21.2597 246.137,21.593 252.5,21.5C 253.167,21.5 253.5,21.8333 253.5,22.5C 247.87,23.5207 242.204,23.6873 236.5,23C 233.949,22.9977 231.949,22.1644 230.5,20.5 Z"
       id="path11" />
  </g>
  <g
     id="g12"
     style="fill:#ffffff">
    <path
       style="opacity:1;fill:#ffffff"
       fill="#0f0f0f"
       d="M 264.5,21.5 C 266.607,20.5318 268.941,20.1984 271.5,20.5C 274.625,21.4794 277.958,21.8128 281.5,21.5C 281.5,21.8333 281.5,22.1667 281.5,22.5C 277.625,22.3564 273.792,22.6898 270,23.5C 268.061,23.0457 266.228,22.379 264.5,21.5 Z"
       id="path12" />
  </g>
  <g
     id="g13"
     style="fill:#ffffff">
    <path
       style="opacity:1;fill:#ffffff"
       fill="#575757"
       d="M 252.5,21.5 C 254.607,20.5318 256.941,20.1984 259.5,20.5C 257.684,22.4414 255.684,23.1081 253.5,22.5C 253.5,21.8333 253.167,21.5 252.5,21.5 Z"
       id="path13" />
  </g>
  <g
     id="g14"
     style="fill:#ffffff">
    <path
       style="opacity:1;fill:#ffffff"
       fill="#9b9b9b"
       d="M 176.5,22.5 C 173.977,23.2537 171.311,23.9204 168.5,24.5C 167.893,24.3764 167.56,24.0431 167.5,23.5C 170.287,22.5233 173.287,22.19 176.5,22.5 Z"
       id="path14" />
  </g>
  <g
     id="g15"
     style="fill:#ffffff">
    <path
       style="opacity:1;fill:#ffffff"
       fill="#2f2f2f"
       d="M 302.5,28.5 C 303.6,27.4415 304.934,26.6082 306.5,26C 305.167,25.6667 303.833,25.3333 302.5,25C 306.76,24.4302 310.926,23.5969 315,22.5C 315.167,22.8333 315.333,23.1667 315.5,23.5C 311.254,25.4587 306.921,27.1253 302.5,28.5 Z"
       id="path15" />
  </g>
  <g
     id="g16"
     style="fill:#ffffff">
    <path
       style="opacity:1;fill:#ffffff"
       fill="#161616"
       d="M 265.5,25.5 C 268.797,25.3287 269.131,25.9954 266.5,27.5C 265.702,27.0431 265.369,26.3764 265.5,25.5 Z"
       id="path16" />
  </g>
  <g
     id="g17"
     style="fill:#ffffff">
    <path
       style="opacity:1;fill:#ffffff"
       fill="#0f0f0f"
       d="M 280.5,24.5 C 280.082,25.2216 279.416,25.7216 278.5,26C 281.365,26.1829 284.031,26.6829 286.5,27.5C 281.456,27.8275 276.456,27.4941 271.5,26.5C 274.391,25.3219 277.391,24.6553 280.5,24.5 Z"
       id="path17" />
  </g>
  <g
     id="g18"
     style="fill:#ffffff">
    <path
       style="opacity:1;fill:#ffffff"
       fill="#666666"
       d="M 281.5,22.5 C 281.5,22.1667 281.5,21.8333 281.5,21.5C 283.903,21.448 286.236,21.7814 288.5,22.5C 286.723,23.6005 284.723,24.4338 282.5,25C 288.5,25.3333 294.5,25.6667 300.5,26C 295.863,26.8294 291.196,27.3294 286.5,27.5C 284.031,26.6829 281.365,26.1829 278.5,26C 279.416,25.7216 280.082,25.2216 280.5,24.5C 281.263,23.7321 282.263,23.2321 283.5,23C 282.906,22.5357 282.239,22.369 281.5,22.5 Z"
       id="path18" />
  </g>
  <g
     id="g19"
     style="fill:#ffffff">
    <path
       style="opacity:1;fill:#ffffff"
       fill="#353535"
       d="M 302.5,28.5 C 301.319,30.0672 299.653,30.9005 297.5,31C 290.526,32.5524 283.526,33.5524 276.5,34C 285.115,32.2176 293.782,30.3842 302.5,28.5 Z"
       id="path19" />
  </g>
  <g
     id="g20"
     style="fill:#ffffff">
    <path
       style="opacity:1;fill:#ffffff"
       fill="#4e4e4e"
       d="M 299.5,34.5 C 299.5,34.8333 299.5,35.1667 299.5,35.5C 293.27,36.9135 286.936,37.4135 280.5,37C 286.803,35.8917 293.136,35.0584 299.5,34.5 Z"
       id="path20" />
  </g>
  <g
     id="g21"
     style="fill:#ffffff">
    <path
       style="opacity:1;fill:#ffffff"
       fill="#242424"
       d="M 299.5,35.5 C 299.5,35.1667 299.5,34.8333 299.5,34.5C 309.499,34.47 309.332,36.1367 299,39.5C 298.5,39.3333 298,39.1667 297.5,39C 299.717,37.7246 302.051,36.7246 304.5,36C 302.866,35.5065 301.199,35.3398 299.5,35.5 Z"
       id="path21" />
  </g>
  <g
     id="g22"
     style="fill:#ffffff">
    <path
       style="opacity:1;fill:#ffffff"
       fill="#1d1d1d"
       d="M 301.5,45.5 C 303.253,43.7775 305.253,42.2775 307.5,41C 306.207,40.51 304.873,40.3433 303.5,40.5C 307.164,39.3351 310.831,38.1684 314.5,37C 310.793,40.8495 306.46,43.6829 301.5,45.5 Z"
       id="path22" />
  </g>
  <g
     id="g23"
     style="fill:#ffffff">
    <path
       style="opacity:1;fill:#ffffff"
       fill="#2b2b2b"
       d="M 303.5,40.5 C 296.339,42.4154 289.005,43.5821 281.5,44C 288.427,40.1807 295.76,39.0141 303.5,40.5 Z"
       id="path23" />
  </g>
  <g
     id="g24"
     style="fill:#ffffff">
    <path
       style="opacity:1;fill:#ffffff"
       fill="#191919"
       d="M 263.5,49.5 C 254.833,46.3066 245.833,44.6399 236.5,44.5C 241.802,43.3372 247.136,43.1705 252.5,44C 256.776,44.8047 260.443,46.6381 263.5,49.5 Z"
       id="path24" />
  </g>
  <g
     id="g25"
     style="fill:#ffffff">
    <path
       style="opacity:1;fill:#ffffff"
       fill="#3e3e3e"
       d="M 301.5,45.5 C 300.22,46.9313 298.553,47.5979 296.5,47.5C 297.78,46.0687 299.447,45.4021 301.5,45.5 Z"
       id="path25" />
  </g>
  <g
     id="g26"
     style="fill:#ffffff">
    <path
       style="opacity:1;fill:#ffffff"
       fill="#2e2e2e"
       d="M 296.5,47.5 C 293.849,49.414 290.849,50.2474 287.5,50C 290.298,48.6038 293.298,47.7705 296.5,47.5 Z"
       id="path26" />
  </g>
  <g
     id="g27"
     style="fill:#ffffff">
    <path
       style="opacity:1;fill:#ffffff"
       fill="#707070"
       d="M 308.5,48.5 C 309.5,49.1667 310.5,49.8333 311.5,50.5C 306.156,50.666 300.823,50.4994 295.5,50C 299.832,49.4167 304.165,48.9167 308.5,48.5 Z"
       id="path27" />
  </g>
  <g
     id="g28"
     style="fill:#ffffff">
    <path
       style="opacity:1;fill:#ffffff"
       fill="#161616"
       d="M 308.5,48.5 C 313.5,48.5 318.5,48.5 323.5,48.5C 323.5,48.8333 323.5,49.1667 323.5,49.5C 319.738,49.6524 316.072,50.319 312.5,51.5C 311.893,51.3764 311.56,51.0431 311.5,50.5C 310.5,49.8333 309.5,49.1667 308.5,48.5 Z"
       id="path28" />
  </g>
  <g
     id="g29"
     style="fill:#ffffff">
    <path
       style="opacity:1;fill:#ffffff"
       fill="#4b4b4b"
       d="M 338.5,48.5 C 335.615,48.1936 332.948,48.5269 330.5,49.5C 328.167,50.8333 325.833,50.8333 323.5,49.5C 323.5,49.1667 323.5,48.8333 323.5,48.5C 328.6,47.2001 333.6,47.2001 338.5,48.5 Z"
       id="path29" />
  </g>
  <g
     id="g30"
     style="fill:#ffffff">
    <path
       style="opacity:1;fill:#ffffff"
       fill="#161616"
       d="M 185.5,49.5 C 190.287,48.9699 194.62,50.1366 198.5,53C 203.201,57.3658 207.534,62.0325 211.5,67C 207.36,63.8767 203.36,60.21 199.5,56C 195.003,52.923 190.337,50.7564 185.5,49.5 Z"
       id="path30" />
  </g>
  <g
     id="g31"
     style="fill:#ffffff">
    <path
       style="opacity:1;fill:#ffffff"
       fill="#1a1a1a"
       d="M 241.5,53.5 C 233.668,49.562 225.668,46.2287 217.5,43.5C 217.833,43.1667 218.167,42.8333 218.5,42.5C 223.934,44.0337 229.268,45.8671 234.5,48C 237.266,49.371 239.599,51.2043 241.5,53.5 Z"
       id="path31" />
  </g>
  <g
     id="g32"
     style="fill:#ffffff">
    <path
       style="opacity:1;fill:#ffffff"
       fill="#333333"
       d="M 132.5,56.5 C 134.893,52.5977 137.893,49.0977 141.5,46C 142.167,45.3333 142.833,45.3333 143.5,46C 139.964,49.7039 136.298,53.2039 132.5,56.5 Z"
       id="path32" />
  </g>
  <g
     id="g33"
     style="fill:#ffffff">
    <path
       style="opacity:1;fill:#ffffff"
       fill="#232323"
       d="M 211.5,60.5 C 206.516,56.0108 201.183,52.0108 195.5,48.5C 195.833,48.1667 196.167,47.8333 196.5,47.5C 201.759,50.5908 206.592,54.2575 211,58.5C 211.464,59.0944 211.631,59.7611 211.5,60.5 Z"
       id="path33" />
  </g>
  <g
     id="g34"
     style="fill:#ffffff">
    <path
       style="opacity:1;fill:#ffffff"
       fill="#2e2e2e"
       d="M 263.5,49.5 C 268.224,51.5293 272.224,54.5293 275.5,58.5C 271.134,55.984 267.134,52.984 263.5,49.5 Z"
       id="path34" />
  </g>
  <g
     id="g35"
     style="fill:#ffffff">
    <path
       style="opacity:1;fill:#ffffff"
       fill="#131313"
       d="M 384.5,51.5 C 388.525,51.6301 392.191,52.6301 395.5,54.5C 394.167,54.5 392.833,54.5 391.5,54.5C 389.025,53.8686 386.691,52.8686 384.5,51.5 Z"
       id="path35" />
  </g>
  <g
     id="g36"
     style="fill:#ffffff">
    <path
       style="opacity:1;fill:#ffffff"
       fill="#282828"
       d="M 150.5,52.5 C 152.671,57.8571 153.504,63.5238 153,69.5C 151.653,63.9047 150.82,58.238 150.5,52.5 Z"
       id="path36" />
  </g>
  <g
     id="g37"
     style="fill:#ffffff">
    <path
       style="opacity:1;fill:#ffffff"
       fill="#656565"
       d="M 384.5,51.5 C 386.691,52.8686 389.025,53.8686 391.5,54.5C 388.171,54.7847 385.171,54.1181 382.5,52.5C 383.167,52.1667 383.833,51.8333 384.5,51.5 Z"
       id="path37" />
  </g>
  <g
     id="g38"
     style="fill:#ffffff">
    <path
       style="opacity:1;fill:#ffffff"
       fill="#282828"
       d="M 241.5,53.5 C 245.304,55.1314 247.804,57.7981 249,61.5C 246.245,58.9172 243.745,56.2505 241.5,53.5 Z"
       id="path38" />
  </g>
  <g
     id="g39"
     style="fill:#ffffff">
    <path
       style="opacity:1;fill:#ffffff"
       fill="#212121"
       d="M 266.5,43.5 C 273.783,47.48 280.783,51.98 287.5,57C 281.946,54.191 276.279,51.191 270.5,48C 268.808,46.6927 267.475,45.1927 266.5,43.5 Z"
       id="path39" />
  </g>
  <g
     id="g40"
     style="fill:#ffffff">
    <path
       style="opacity:1;fill:#ffffff"
       fill="#252525"
       d="M 204.5,48.5 C 214.955,51.8063 222.788,58.1397 228,67.5C 224.5,64 221,60.5 217.5,57C 213.944,54.1106 209.944,52.1106 205.5,51C 204.748,50.3292 204.414,49.4959 204.5,48.5 Z"
       id="path40" />
  </g>
  <g
     id="g41"
     style="fill:#ffffff">
    <path
       style="opacity:1;fill:#ffffff"
       fill="#3a3a3a"
       d="M 132.5,56.5 C 131.92,58.7488 130.587,60.4154 128.5,61.5C 129.08,59.2512 130.413,57.5846 132.5,56.5 Z"
       id="path41" />
  </g>
  <g
     id="g42"
     style="fill:#ffffff">
    <path
       style="opacity:1;fill:#ffffff"
       fill="#272727"
       d="M 275.5,58.5 C 276.756,58.4614 277.756,58.9614 278.5,60C 277.002,60.5847 276.002,60.0847 275.5,58.5 Z"
       id="path42" />
  </g>
  <g
     id="g43"
     style="fill:#ffffff">
    <path
       style="opacity:1;fill:#ffffff"
       fill="#303030"
       d="M 128.5,61.5 C 127.92,63.7488 126.587,65.4154 124.5,66.5C 125.08,64.2512 126.413,62.5846 128.5,61.5 Z"
       id="path43" />
  </g>
  <g
     id="g44"
     style="fill:#ffffff">
    <path
       style="opacity:1;fill:#ffffff"
       fill="#181818"
       d="M 330.5,49.5 C 332.948,48.5269 335.615,48.1936 338.5,48.5C 353.25,49.2006 367.917,50.5339 382.5,52.5C 385.171,54.1181 388.171,54.7847 391.5,54.5C 393.949,55.7908 396.616,56.7908 399.5,57.5C 400.696,57.1543 400.696,56.6543 399.5,56C 397.942,55.79 396.609,55.29 395.5,54.5C 412.338,57.5888 429.338,59.4222 446.5,60C 452.819,61.0228 458.986,62.5228 465,64.5C 467.064,63.4086 469.231,63.2419 471.5,64C 477.52,73.3481 485.52,80.6814 495.5,86C 503.36,95.1938 511.86,103.694 521,111.5C 526.82,122.808 531.82,134.475 536,146.5C 537.667,148.833 539.333,151.167 541,153.5C 548.672,158.826 553.338,166.159 555,175.5C 557.557,182.95 559.057,190.45 559.5,198C 559.026,199.608 558.359,199.774 557.5,198.5C 555.785,191.905 553.118,185.739 549.5,180C 549.833,179.5 550.167,179 550.5,178.5C 552.232,180.283 553.732,182.283 555,184.5C 554.024,177.081 551.524,170.081 547.5,163.5C 542.02,158.474 537.02,153.141 532.5,147.5C 530.761,142.671 529.595,137.671 529,132.5C 526.61,127.997 524.61,123.331 523,118.5C 522.051,116.907 520.885,115.574 519.5,114.5C 520.028,115.847 520.195,117.181 520,118.5C 515.76,113.683 511.76,108.683 508,103.5C 507.107,104.711 506.274,104.711 505.5,103.5C 498.704,92.7506 489.704,84.2506 478.5,78C 475.301,74.4338 472.467,70.6004 470,66.5C 469.439,67.0219 468.772,67.3552 468,67.5C 464.087,64.4124 459.753,63.4124 455,64.5C 443.543,60.6238 431.043,59.4571 417.5,61C 418.672,61.4186 419.672,62.0853 420.5,63C 420,63.1667 419.5,63.3333 419,63.5C 415.324,61.578 411.491,60.078 407.5,59C 405.287,58.3744 403.12,58.5411 401,59.5C 395.649,57.4539 390.149,55.9539 384.5,55C 366.551,52.6194 348.551,50.786 330.5,49.5 Z"
       id="path44" />
  </g>
  <g
     id="g45"
     style="fill:#ffffff">
    <path
       style="opacity:1;fill:#ffffff"
       fill="#727272"
       d="M 391.5,54.5 C 392.833,54.5 394.167,54.5 395.5,54.5C 396.609,55.29 397.942,55.79 399.5,56C 400.696,56.6543 400.696,57.1543 399.5,57.5C 396.616,56.7908 393.949,55.7908 391.5,54.5 Z"
       id="path45" />
  </g>
  <g
     id="g46"
     style="fill:#ffffff">
    <path
       style="opacity:1;fill:#ffffff"
       fill="#2c2c2c"
       d="M 211.5,60.5 C 213.9,62.2964 215.567,64.6298 216.5,67.5C 214.1,65.7036 212.433,63.3702 211.5,60.5 Z"
       id="path46" />
  </g>
  <g
     id="g47"
     style="fill:#ffffff">
    <path
       style="opacity:1;fill:#ffffff"
       fill="#272727"
       d="M 124.5,66.5 C 124.262,68.4044 123.262,69.7377 121.5,70.5C 121.738,68.5956 122.738,67.2623 124.5,66.5 Z"
       id="path47" />
  </g>
  <g
     id="g48"
     style="fill:#ffffff">
    <path
       style="opacity:1;fill:#ffffff"
       fill="#303030"
       d="M 153.5,70.5 C 155.399,72.2529 156.065,74.2529 155.5,76.5C 154.232,74.6957 153.565,72.6957 153.5,70.5 Z"
       id="path48" />
  </g>
  <g
     id="g49"
     style="fill:#ffffff">
    <path
       style="opacity:1;fill:#ffffff"
       fill="#282828"
       d="M 216.5,67.5 C 219.046,69.2806 220.546,71.614 221,74.5C 218.98,72.4494 217.48,70.1161 216.5,67.5 Z"
       id="path49" />
  </g>
  <g
     id="g50"
     style="fill:#ffffff">
    <path
       style="opacity:1;fill:#ffffff"
       fill="#4f4f4f"
       d="M 133.5,74.5 C 133.312,72.8967 133.812,71.5634 135,70.5C 135.348,72.1398 134.848,73.4732 133.5,74.5 Z"
       id="path50" />
  </g>
  <g
     id="g51"
     style="fill:#ffffff">
    <path
       style="opacity:1;fill:#ffffff"
       fill="#434343"
       d="M 121.5,70.5 C 121.152,72.7128 120.319,74.7128 119,76.5C 118.458,73.9175 119.292,71.9175 121.5,70.5 Z"
       id="path51" />
  </g>
  <g
     id="g52"
     style="fill:#ffffff">
    <path
       style="opacity:1;fill:#ffffff"
       fill="#292929"
       d="M 158.5,75.5 C 159.803,78.3553 159.803,81.3553 158.5,84.5C 157.679,81.5535 157.679,78.5535 158.5,75.5 Z"
       id="path52" />
  </g>
  <g
     id="g53"
     style="fill:#ffffff">
    <path
       style="opacity:1;fill:#ffffff"
       fill="#494949"
       d="M 133.5,74.5 C 132.987,78.2293 132.154,81.896 131,85.5C 130.435,81.4338 131.268,77.7671 133.5,74.5 Z"
       id="path53" />
  </g>
  <g
     id="g54"
     style="fill:#ffffff">
    <path
       style="opacity:1;fill:#ffffff"
       fill="#222222"
       d="M 142.5,57.5 C 143.043,57.56 143.376,57.8933 143.5,58.5C 137.047,71.6456 137.047,83.9789 143.5,95.5C 143.167,95.8333 142.833,96.1667 142.5,96.5C 135.844,83.5842 135.844,70.5842 142.5,57.5 Z"
       id="path54" />
  </g>
  <g
     id="g55"
     style="fill:#ffffff">
    <path
       style="opacity:1;fill:#ffffff"
       fill="#151515"
       d="M 183.5,123.5 C 184.793,122.158 185.626,120.491 186,118.5C 186.32,114.786 186.82,111.119 187.5,107.5C 187.196,106.85 186.863,106.183 186.5,105.5C 188.953,99.0216 190.787,92.355 192,85.5C 194.656,81.8562 196.489,77.8562 197.5,73.5C 196.448,73.3505 195.448,73.5172 194.5,74C 191.891,76.067 189.391,78.2337 187,80.5C 181.027,92.7479 176.027,105.415 172,118.5C 164.856,132.502 153.356,140.169 137.5,141.5C 137.231,139.571 137.731,137.905 139,136.5C 150.732,136.672 160.399,132.005 168,122.5C 173.293,107.115 179.46,92.1145 186.5,77.5C 189.354,74.8116 192.354,72.3116 195.5,70C 197.956,69.0539 199.956,69.5539 201.5,71.5C 196.525,80.2565 193.025,89.5898 191,99.5C 191.458,115.86 186.625,130.36 176.5,143C 165.409,150.904 153.076,155.737 139.5,157.5C 136.144,157.113 135.144,155.447 136.5,152.5C 137.772,153.046 139.106,153.379 140.5,153.5C 152.299,151.62 163.299,147.453 173.5,141C 179.04,136.42 182.373,130.587 183.5,123.5 Z"
       id="path55" />
  </g>
  <g
     id="g56"
     style="fill:#ffffff">
    <path
       style="opacity:1;fill:#ffffff"
       fill="#3d3d3d"
       d="M 109.5,91.5 C 110.052,89.3914 111.386,88.5581 113.5,89C 112.307,90.0946 110.973,90.928 109.5,91.5 Z"
       id="path56" />
  </g>
  <g
     id="g57"
     style="fill:#ffffff">
    <path
       style="opacity:1;fill:#ffffff"
       fill="#1c1c1c"
       d="M 150.5,78.5 C 152.465,85.6524 155.799,92.3191 160.5,98.5C 160.167,98.8333 159.833,99.1667 159.5,99.5C 154.061,93.6138 151.061,86.6138 150.5,78.5 Z"
       id="path57" />
  </g>
  <g
     id="g58"
     style="fill:#ffffff">
    <path
       style="opacity:1;fill:#ffffff"
       fill="#121212"
       d="M 109.5,91.5 C 108.207,93.2959 106.707,94.9625 105,96.5C 104.383,97.4491 104.549,98.2825 105.5,99C 100.95,101.883 97.4499,105.716 95,110.5C 94.5407,107.07 95.5407,104.07 98,101.5C 101.429,97.5615 105.263,94.2281 109.5,91.5 Z"
       id="path58" />
  </g>
  <g
     id="g59"
     style="fill:#ffffff">
    <path
       style="opacity:1;fill:#ffffff"
       fill="#6c6c6c"
       d="M 126.5,101.5 C 125.566,102.568 125.232,103.901 125.5,105.5C 124.355,101.689 124.188,97.6888 125,93.5C 125.333,93.1667 125.667,92.8333 126,92.5C 126.498,95.4816 126.665,98.4816 126.5,101.5 Z"
       id="path59" />
  </g>
  <g
     id="g60"
     style="fill:#ffffff">
    <path
       style="opacity:1;fill:#ffffff"
       fill="#303030"
       d="M 114.5,96.5 C 113.567,99.3702 111.9,101.704 109.5,103.5C 110.433,100.63 112.1,98.2964 114.5,96.5 Z"
       id="path60" />
  </g>
  <g
     id="g61"
     style="fill:#ffffff">
    <path
       style="opacity:1;fill:#ffffff"
       fill="#383838"
       d="M 114.5,96.5 C 114.685,94.8042 115.519,93.4709 117,92.5C 117.167,92.8333 117.333,93.1667 117.5,93.5C 116.188,98.364 116.188,103.197 117.5,108C 117,108.5 116.5,109 116,109.5C 114.639,105.075 114.139,100.742 114.5,96.5 Z"
       id="path61" />
  </g>
  <g
     id="g62"
     style="fill:#ffffff">
    <path
       style="opacity:1;fill:#ffffff"
       fill="#0e0e0e"
       d="M 506.5,110.5 C 505.833,111.5 505.167,112.5 504.5,113.5C 503.53,110.438 502.696,107.438 502,104.5C 502.333,104.167 502.667,103.833 503,103.5C 504.193,105.886 505.36,108.22 506.5,110.5 Z"
       id="path62" />
  </g>
  <g
     id="g63"
     style="fill:#ffffff">
    <path
       style="opacity:1;fill:#ffffff"
       fill="#4e4e4e"
       d="M 109.5,103.5 C 108.448,106.193 107.448,108.86 106.5,111.5C 105.5,111.5 104.5,111.5 103.5,111.5C 103.649,112.552 103.483,113.552 103,114.5C 103.371,107.383 105.371,100.716 109,94.5C 108.087,98.2512 106.921,102.085 105.5,106C 105.667,106.5 105.833,107 106,107.5C 106.949,105.907 108.115,104.574 109.5,103.5 Z"
       id="path63" />
  </g>
  <g
     id="g64"
     style="fill:#ffffff">
    <path
       style="opacity:1;fill:#ffffff"
       fill="#141414"
       d="M 125.5,105.5 C 125.232,103.901 125.566,102.568 126.5,101.5C 126.38,105.042 126.714,108.542 127.5,112C 127.167,112.833 126.833,113.667 126.5,114.5C 125.108,113.395 123.941,112.061 123,110.5C 121.629,106.054 120.462,101.554 119.5,97C 119.833,96.1667 120.167,95.3333 120.5,94.5C 121.559,99.9658 123.059,105.299 125,110.5C 125.494,108.866 125.66,107.199 125.5,105.5 Z"
       id="path64" />
  </g>
  <g
     id="g65"
     style="fill:#ffffff">
    <path
       style="opacity:1;fill:#ffffff"
       fill="#b3b3b3"
       d="M 519.5,114.5 C 517.554,113.746 516.721,112.412 517,110.5C 518.481,111.471 519.315,112.804 519.5,114.5 Z"
       id="path65" />
  </g>
  <g
     id="g66"
     style="fill:#ffffff">
    <path
       style="opacity:1;fill:#ffffff"
       fill="#0e0e0e"
       d="M 507.5,111.5 C 508.234,112.708 508.567,114.041 508.5,115.5C 507.534,115.487 506.868,114.487 506.5,112.5C 506.624,111.893 506.957,111.56 507.5,111.5 Z"
       id="path66" />
  </g>
  <g
     id="g67"
     style="fill:#ffffff">
    <path
       style="opacity:1;fill:#ffffff"
       fill="#1b1b1b"
       d="M 474.5,101.5 C 475.79,102.058 476.623,103.058 477,104.5C 478.403,114.473 482.07,123.473 488,131.5C 488.667,132.833 488.667,134.167 488,135.5C 482.09,126.692 475.923,118.025 469.5,109.5C 470.002,108.479 470.668,108.312 471.5,109C 473.667,111.833 475.833,114.667 478,117.5C 477.367,112.088 476.2,106.755 474.5,101.5 Z"
       id="path67" />
  </g>
  <g
     id="g68"
     style="fill:#ffffff">
    <path
       style="opacity:1;fill:#ffffff"
       fill="#737373"
       d="M 506.5,110.5 C 507.167,110.5 507.5,110.833 507.5,111.5C 506.957,111.56 506.624,111.893 506.5,112.5C 506.868,114.487 507.534,115.487 508.5,115.5C 509.598,116.601 509.765,117.934 509,119.5C 508.617,118.944 508.117,118.611 507.5,118.5C 507.167,118.5 506.833,118.5 506.5,118.5C 505.691,116.972 505.024,115.306 504.5,113.5C 505.167,112.5 505.833,111.5 506.5,110.5 Z"
       id="path68" />
  </g>
  <g
     id="g69"
     style="fill:#ffffff">
    <path
       style="opacity:1;fill:#ffffff"
       fill="#3e3e3e"
       d="M 128.5,108.5 C 130.576,113.321 132.076,118.321 133,123.5C 130.347,118.857 128.847,113.857 128.5,108.5 Z"
       id="path69" />
  </g>
  <g
     id="g70"
     style="fill:#ffffff">
    <path
       style="opacity:1;fill:#ffffff"
       fill="#a6a6a6"
       d="M 187.5,107.5 C 186.82,111.119 186.32,114.786 186,118.5C 185.626,120.491 184.793,122.158 183.5,123.5C 185.232,119.372 185.899,115.206 185.5,111C 185.608,109.319 186.275,108.152 187.5,107.5 Z"
       id="path70" />
  </g>
  <g
     id="g71"
     style="fill:#ffffff">
    <path
       style="opacity:1;fill:#ffffff"
       fill="#151515"
       d="M 141.5,116.5 C 144.154,131.783 141.488,132.449 133.5,118.5C 133.833,118.167 134.167,117.833 134.5,117.5C 135.921,120.009 137.588,122.343 139.5,124.5C 140.381,121.87 141.048,119.203 141.5,116.5 Z"
       id="path71" />
  </g>
  <g
     id="g72"
     style="fill:#ffffff">
    <path
       style="opacity:1;fill:#ffffff"
       fill="#1d1d1d"
       d="M 506.5,118.5 C 506.833,118.5 507.167,118.5 507.5,118.5C 508.958,125.554 508.791,132.554 507,139.5C 505.937,137.084 505.104,134.584 504.5,132C 505.167,131.333 505.833,130.667 506.5,130C 505.469,126.857 504.969,123.691 505,120.5C 505.333,121.167 505.667,121.833 506,122.5C 506.49,121.207 506.657,119.873 506.5,118.5 Z"
       id="path72" />
  </g>
  <g
     id="g73"
     style="fill:#ffffff">
    <path
       style="opacity:1;fill:#ffffff"
       fill="#1b1b1b"
       d="M 464.5,111.5 C 465.117,111.611 465.617,111.944 466,112.5C 466.866,123.355 471.866,131.689 481,137.5C 481.388,139.076 480.888,140.409 479.5,141.5C 472.231,137.066 466.065,131.399 461,124.5C 460.333,123.5 460.333,122.5 461,121.5C 463.713,125.092 466.547,128.592 469.5,132C 471.369,133.602 473.369,134.602 475.5,135C 468.67,128.689 465.003,120.856 464.5,111.5 Z"
       id="path73" />
  </g>
  <g
     id="g74"
     style="fill:#ffffff">
    <path
       style="opacity:1;fill:#ffffff"
       fill="#222222"
       d="M 47.5,135.5 C 47.6854,133.804 48.5187,132.471 50,131.5C 50.2793,133.412 49.4459,134.746 47.5,135.5 Z"
       id="path74" />
  </g>
  <g
     id="g75"
     style="fill:#ffffff">
    <path
       style="opacity:1;fill:#ffffff"
       fill="#252525"
       d="M 450.5,135.5 C 454.179,139.9 455.179,144.9 453.5,150.5C 453.198,145.53 452.198,140.53 450.5,135.5 Z"
       id="path75" />
  </g>
  <g
     id="g76"
     style="fill:#ffffff">
    <path
       style="opacity:1;fill:#ffffff"
       fill="#575757"
       d="M 455.5,129.5 C 456.497,129.47 457.164,129.97 457.5,131C 459.712,136.155 459.878,141.322 458,146.5C 457.879,140.693 457.046,135.026 455.5,129.5 Z"
       id="path76" />
  </g>
  <g
     id="g77"
     style="fill:#ffffff">
    <path
       style="opacity:1;fill:#ffffff"
       fill="#1b1b1b"
       d="M 448.5,157.5 C 447.833,156.167 447.167,154.833 446.5,153.5C 446.391,148.837 444.724,144.837 441.5,141.5C 442.274,140.289 443.107,140.289 444,141.5C 447.232,146.361 448.732,151.694 448.5,157.5 Z"
       id="path77" />
  </g>
  <g
     id="g78"
     style="fill:#ffffff">
    <path
       style="opacity:1;fill:#ffffff"
       fill="#242424"
       d="M 530.5,154.5 C 529.086,152.133 527.752,149.633 526.5,147C 527,146.5 527.5,146 528,145.5C 529.145,148.432 529.978,151.432 530.5,154.5 Z"
       id="path78" />
  </g>
  <g
     id="g79"
     style="fill:#ffffff">
    <path
       style="opacity:1;fill:#ffffff"
       fill="#9d9d9d"
       d="M 446.5,153.5 C 447.167,154.833 447.833,156.167 448.5,157.5C 448.737,158.791 448.404,159.791 447.5,160.5C 447.672,159.508 447.338,158.842 446.5,158.5C 446.5,156.833 446.5,155.167 446.5,153.5 Z"
       id="path79" />
  </g>
  <g
     id="g80"
     style="fill:#ffffff">
    <path
       style="opacity:1;fill:#ffffff"
       fill="#2d2d2d"
       d="M 501.5,164.5 C 501.768,166.099 501.434,167.432 500.5,168.5C 500.627,163.745 499.294,159.412 496.5,155.5C 497.355,154.707 498.189,155.04 499,156.5C 500.707,158.909 501.54,161.575 501.5,164.5 Z"
       id="path80" />
  </g>
  <g
     id="g81"
     style="fill:#ffffff">
    <path
       style="opacity:1;fill:#ffffff"
       fill="#313131"
       d="M 532.5,147.5 C 532.748,150.58 533.414,153.58 534.5,156.5C 532.575,159.303 532.575,162.303 534.5,165.5C 534.192,166.308 533.692,166.975 533,167.5C 532.263,163.13 531.43,158.796 530.5,154.5C 531.268,155.263 531.768,156.263 532,157.5C 532.159,154.118 531.659,150.785 530.5,147.5C 530.667,146.833 530.833,146.167 531,145.5C 531.278,146.416 531.778,147.082 532.5,147.5 Z"
       id="path81" />
  </g>
  <g
     id="g82"
     style="fill:#ffffff">
    <path
       style="opacity:1;fill:#ffffff"
       fill="#101010"
       d="M 446.5,158.5 C 447.338,158.842 447.672,159.508 447.5,160.5C 447.103,161.525 446.437,161.692 445.5,161C 446.252,160.329 446.586,159.496 446.5,158.5 Z"
       id="path82" />
  </g>
  <g
     id="g83"
     style="fill:#ffffff">
    <path
       style="opacity:1;fill:#ffffff"
       fill="#2e2e2e"
       d="M 211.5,159.5 C 214.163,162.657 215.33,166.324 215,170.5C 213.675,166.861 212.508,163.194 211.5,159.5 Z"
       id="path83" />
  </g>
  <g
     id="g84"
     style="fill:#ffffff">
    <path
       style="opacity:1;fill:#ffffff"
       fill="#535353"
       d="M 431.5,162.5 C 434.018,163.759 433.852,165.093 431,166.5C 430.805,165.181 430.972,163.847 431.5,162.5 Z"
       id="path84" />
  </g>
  <g
     id="g85"
     style="fill:#ffffff">
    <path
       style="opacity:1;fill:#ffffff"
       fill="#4b4b4b"
       d="M 475.5,195.5 C 475.5,194.833 475.167,194.5 474.5,194.5C 475.945,183.381 477.945,172.381 480.5,161.5C 480.833,161.833 481.167,162.167 481.5,162.5C 479.623,173.644 477.623,184.644 475.5,195.5 Z"
       id="path85" />
  </g>
  <g
     id="g86"
     style="fill:#ffffff">
    <path
       style="opacity:1;fill:#ffffff"
       fill="#181818"
       d="M 483.5,162.5 C 485.326,164.455 485.826,166.788 485,169.5C 483.798,167.323 483.298,164.989 483.5,162.5 Z"
       id="path86" />
  </g>
  <g
     id="g87"
     style="fill:#ffffff">
    <path
       style="opacity:1;fill:#ffffff"
       fill="#414141"
       d="M 497.5,170.5 C 496.14,166.957 494.474,163.457 492.5,160C 492.833,159.833 493.167,159.667 493.5,159.5C 496.248,162.661 497.581,166.327 497.5,170.5 Z"
       id="path87" />
  </g>
  <g
     id="g88"
     style="fill:#ffffff">
    <path
       style="opacity:1;fill:#ffffff"
       fill="#242424"
       d="M 216.5,163.5 C 218.385,165.795 218.885,168.462 218,171.5C 217.178,168.883 216.678,166.216 216.5,163.5 Z"
       id="path88" />
  </g>
  <g
     id="g89"
     style="fill:#ffffff">
    <path
       style="opacity:1;fill:#ffffff"
       fill="#171717"
       d="M 394.5,202.5 C 393.566,201.432 393.232,200.099 393.5,198.5C 392.815,188.171 392.648,177.837 393,167.5C 393.775,173.991 394.942,180.324 396.5,186.5C 394.912,191.71 394.245,197.043 394.5,202.5 Z"
       id="path89" />
  </g>
  <g
     id="g90"
     style="fill:#ffffff">
    <path
       style="opacity:1;fill:#ffffff"
       fill="#1a1a1a"
       d="M 154.5,161.5 C 162.352,164.018 168.019,169.018 171.5,176.5C 171.167,176.833 170.833,177.167 170.5,177.5C 169.38,176.167 168.047,175.667 166.5,176C 168.95,178.389 170.117,181.222 170,184.5C 167.303,179.129 163.803,174.296 159.5,170C 161.345,170.783 163.345,171.116 165.5,171C 162.797,167.981 159.464,165.981 155.5,165C 154.663,163.989 154.33,162.822 154.5,161.5 Z"
       id="path90" />
  </g>
  <g
     id="g91"
     style="fill:#ffffff">
    <path
       style="opacity:1;fill:#ffffff"
       fill="#0e0e0e"
       d="M 528.5,179.5 C 528.167,179.5 527.833,179.5 527.5,179.5C 528.056,174.305 527.056,169.472 524.5,165C 526.807,164.729 527.974,165.895 528,168.5C 528.499,172.152 528.665,175.818 528.5,179.5 Z"
       id="path91" />
  </g>
  <g
     id="g92"
     style="fill:#ffffff">
    <path
       style="opacity:1;fill:#ffffff"
       fill="#121212"
       d="M 129.5,176.5 C 126.645,174.75 123.311,173.917 119.5,174C 122.972,172.42 126.638,172.087 130.5,173C 133.064,174.736 132.731,175.902 129.5,176.5 Z"
       id="path92" />
  </g>
  <g
     id="g93"
     style="fill:#ffffff">
    <path
       style="opacity:1;fill:#ffffff"
       fill="#727272"
       d="M 501.5,164.5 C 502.645,168.311 502.812,172.311 502,176.5C 501.667,176.833 501.333,177.167 501,177.5C 500.502,174.518 500.335,171.518 500.5,168.5C 501.434,167.432 501.768,166.099 501.5,164.5 Z"
       id="path93" />
  </g>
  <g
     id="g94"
     style="fill:#ffffff">
    <path
       style="opacity:1;fill:#ffffff"
       fill="#282828"
       d="M 497.5,170.5 C 499.203,172.851 499.703,175.518 499,178.5C 497.748,175.986 497.248,173.32 497.5,170.5 Z"
       id="path94" />
  </g>
  <g
     id="g95"
     style="fill:#ffffff">
    <path
       style="opacity:1;fill:#ffffff"
       fill="#181818"
       d="M 129.5,176.5 C 130.954,178.263 130.62,179.597 128.5,180.5C 128.611,181.117 128.944,181.617 129.5,182C 127.208,183.29 125.208,184.957 123.5,187C 125.788,187.418 127.788,186.751 129.5,185C 130.369,182.421 132.035,180.588 134.5,179.5C 132.144,186.777 126.811,190.443 118.5,190.5C 119.575,186.062 117.908,184.062 113.5,184.5C 113.062,181.107 113.895,178.107 116,175.5C 116.333,177.167 116.667,178.833 117,180.5C 120.113,175.859 124.28,174.526 129.5,176.5 Z"
       id="path95" />
  </g>
  <g
     id="g96"
     style="fill:#ffffff">
    <path
       style="opacity:1;fill:#ffffff"
       fill="#343434"
       d="M 228.5,189.5 C 227.833,189.5 227.5,189.167 227.5,188.5C 227.543,185.09 227.043,181.757 226,178.5C 224.956,180.715 224.29,183.048 224,185.5C 223.107,186.711 222.274,186.711 221.5,185.5C 223.784,180.087 225.117,174.42 225.5,168.5C 227.561,175.349 228.561,182.349 228.5,189.5 Z"
       id="path96" />
  </g>
  <g
     id="g97"
     style="fill:#ffffff">
    <path
       style="opacity:1;fill:#ffffff"
       fill="#292929"
       d="M 522.5,177.5 C 523.966,178.347 524.8,179.68 525,181.5C 525.821,184.554 525.655,187.554 524.5,190.5C 523.636,186.184 522.969,181.851 522.5,177.5 Z"
       id="path97" />
  </g>
  <g
     id="g98"
     style="fill:#ffffff">
    <path
       style="opacity:1;fill:#ffffff"
       fill="#afafaf"
       d="M 128.5,180.5 C 127.504,180.414 126.671,180.748 126,181.5C 125.691,178.033 126.524,177.7 128.5,180.5 Z"
       id="path98" />
  </g>
  <g
     id="g99"
     style="fill:#ffffff">
    <path
       style="opacity:1;fill:#ffffff"
       fill="#4c4c4c"
       d="M 527.5,179.5 C 527.833,179.5 528.167,179.5 528.5,179.5C 528.892,182.722 528.392,185.722 527,188.5C 526.195,185.304 526.362,182.304 527.5,179.5 Z"
       id="path99" />
  </g>
  <g
     id="g100"
     style="fill:#ffffff">
    <path
       style="opacity:1;fill:#ffffff"
       fill="#1b1b1b"
       d="M 150.5,183.5 C 156.296,185.031 162.296,186.031 168.5,186.5C 162.764,189.261 157.097,189.094 151.5,186C 150.748,185.329 150.414,184.496 150.5,183.5 Z"
       id="path100" />
  </g>
  <g
     id="g101"
     style="fill:#ffffff">
    <path
       style="opacity:1;fill:#ffffff"
       fill="#181818"
       d="M 398.5,175.5 C 399.497,175.47 400.164,175.97 400.5,177C 403.253,185.603 404.419,194.436 404,203.5C 402.949,193.961 401.116,184.627 398.5,175.5 Z"
       id="path101" />
  </g>
  <g
     id="g102"
     style="fill:#ffffff">
    <path
       style="opacity:1;fill:#ffffff"
       fill="#1d1d1d"
       d="M 99.5,178.5 C 100.267,179.172 100.934,180.005 101.5,181C 100.299,181.903 99.4652,183.069 99,184.5C 97.5447,190.87 96.0447,197.203 94.5,203.5C 94.1667,202.833 93.8333,202.167 93.5,201.5C 94.4236,193.567 96.4236,185.9 99.5,178.5 Z"
       id="path102" />
  </g>
  <g
     id="g103"
     style="fill:#ffffff">
    <path
       style="opacity:1;fill:#ffffff"
       fill="#131313"
       d="M 109.5,187.5 C 112.839,189.614 116.505,190.947 120.5,191.5C 120.719,192.675 120.386,193.675 119.5,194.5C 114.605,194.079 111.272,191.746 109.5,187.5 Z"
       id="path103" />
  </g>
  <g
     id="g104"
     style="fill:#ffffff">
    <path
       style="opacity:1;fill:#ffffff"
       fill="#404040"
       d="M 457.5,185.5 C 458.75,185.577 459.583,186.244 460,187.5C 463.482,199.276 463.148,210.942 459,222.5C 459.821,216.226 460.655,209.892 461.5,203.5C 461.047,197.225 459.713,191.225 457.5,185.5 Z"
       id="path104" />
  </g>
  <g
     id="g105"
     style="fill:#ffffff">
    <path
       style="opacity:1;fill:#ffffff"
       fill="#4c4c4c"
       d="M 484.5,186.5 C 485.776,187.386 485.776,188.386 484.5,189.5C 483.913,188.767 483.913,187.767 484.5,186.5 Z"
       id="path105" />
  </g>
  <g
     id="g106"
     style="fill:#ffffff">
    <path
       style="opacity:1;fill:#ffffff"
       fill="#262626"
       d="M 508.5,185.5 C 514.597,192.522 517.597,200.856 517.5,210.5C 517.167,212.167 516.833,213.833 516.5,215.5C 517.172,205.177 514.172,195.844 507.5,187.5C 507.863,186.817 508.196,186.15 508.5,185.5 Z"
       id="path106" />
  </g>
  <g
     id="g107"
     style="fill:#ffffff">
    <path
       style="opacity:1;fill:#ffffff"
       fill="#262626"
       d="M 505.5,194.5 C 505.167,194.5 504.833,194.5 504.5,194.5C 504.215,192.712 504.548,191.045 505.5,189.5C 506.434,191.095 506.434,192.761 505.5,194.5 Z"
       id="path107" />
  </g>
  <g
     id="g108"
     style="fill:#ffffff">
    <path
       style="opacity:1;fill:#ffffff"
       fill="#171717"
       d="M 456.5,195.5 C 456.672,196.492 456.338,197.158 455.5,197.5C 453.989,193.511 452.822,189.511 452,185.5C 454.753,188.256 456.253,191.589 456.5,195.5 Z"
       id="path108" />
  </g>
  <g
     id="g109"
     style="fill:#ffffff">
    <path
       style="opacity:1;fill:#ffffff"
       fill="#242424"
       d="M 188.5,203.5 C 186.526,200.23 184.526,196.897 182.5,193.5C 182.833,193.167 183.167,192.833 183.5,192.5C 186.516,195.545 188.182,199.212 188.5,203.5 Z"
       id="path109" />
  </g>
  <g
     id="g110"
     style="fill:#ffffff">
    <path
       style="opacity:1;fill:#ffffff"
       fill="#121212"
       d="M 80.5,173.5 C 81.1239,173.917 81.4573,174.584 81.5,175.5C 81.0959,184.245 80.0959,192.912 78.5,201.5C 78.7259,203.189 79.0592,204.855 79.5,206.5C 79.0391,212.977 78.2058,219.31 77,225.5C 77.495,214.281 77.3284,203.114 76.5,192C 77.8614,185.782 79.1948,179.615 80.5,173.5 Z"
       id="path110" />
  </g>
  <g
     id="g111"
     style="fill:#ffffff">
    <path
       style="opacity:1;fill:#ffffff"
       fill="#858585"
       d="M 227.5,188.5 C 227.5,189.167 227.833,189.5 228.5,189.5C 228.538,191.636 229.205,192.969 230.5,193.5C 229.833,193.5 229.5,193.833 229.5,194.5C 228.197,194.378 226.864,194.378 225.5,194.5C 226.05,192.343 226.717,190.343 227.5,188.5 Z"
       id="path111" />
  </g>
  <g
     id="g112"
     style="fill:#ffffff">
    <path
       style="opacity:1;fill:#ffffff"
       fill="#242424"
       d="M 474.5,194.5 C 475.167,194.5 475.5,194.833 475.5,195.5C 475.25,199.102 474.25,202.435 472.5,205.5C 472.167,205 471.833,204.5 471.5,204C 472.308,196.853 472.141,189.686 471,182.5C 470.019,179.88 468.853,177.38 467.5,175C 467.85,173.743 468.517,173.409 469.5,174C 470.717,175.648 471.55,177.481 472,179.5C 472.777,185.868 473.61,190.868 474.5,194.5 Z"
       id="path112" />
  </g>
  <g
     id="g113"
     style="fill:#ffffff">
    <path
       style="opacity:1;fill:#ffffff"
       fill="#585858"
       d="M 442.5,197.5 C 442.231,195.571 442.731,193.905 444,192.5C 444.599,194.535 444.099,196.201 442.5,197.5 Z"
       id="path113" />
  </g>
  <g
     id="g114"
     style="fill:#ffffff">
    <path
       style="opacity:1;fill:#ffffff"
       fill="#7a7a7a"
       d="M 504.5,194.5 C 504.833,194.5 505.167,194.5 505.5,194.5C 505.795,196.735 505.461,198.735 504.5,200.5C 504.737,199.209 504.404,198.209 503.5,197.5C 503.263,196.209 503.596,195.209 504.5,194.5 Z"
       id="path114" />
  </g>
  <g
     id="g115"
     style="fill:#ffffff">
    <path
       style="opacity:1;fill:#ffffff"
       fill="#1a1a1a"
       d="M 374.5,195.5 C 375.5,198.167 376.5,200.833 377.5,203.5C 377.672,204.492 377.338,205.158 376.5,205.5C 375.453,202.404 374.12,199.404 372.5,196.5C 372.957,195.702 373.624,195.369 374.5,195.5 Z"
       id="path115" />
  </g>
  <g
     id="g116"
     style="fill:#ffffff">
    <path
       style="opacity:1;fill:#ffffff"
       fill="#323232"
       d="M 464.5,187.5 C 466.746,191.443 468.08,195.776 468.5,200.5C 467.811,202.444 467.311,204.444 467,206.5C 466.675,200.083 465.842,193.749 464.5,187.5 Z"
       id="path116" />
  </g>
  <g
     id="g117"
     style="fill:#ffffff">
    <path
       style="opacity:1;fill:#ffffff"
       fill="#222222"
       d="M 442.5,197.5 C 439.703,206.353 437.37,215.353 435.5,224.5C 434.643,223.264 433.977,221.931 433.5,220.5C 434.787,216.959 436.12,213.459 437.5,210C 437.998,205.688 437.331,201.355 435.5,197C 436.424,195.189 437.257,195.355 438,197.5C 438.333,200.5 438.667,203.5 439,206.5C 439.9,203.282 441.067,200.282 442.5,197.5 Z"
       id="path117" />
  </g>
  <g
     id="g118"
     style="fill:#ffffff">
    <path
       style="opacity:1;fill:#ffffff"
       fill="#171717"
       d="M 457.5,199.5 C 458.078,204.774 457.912,210.108 457,215.5C 456.107,216.711 455.274,216.711 454.5,215.5C 455.309,213.929 455.643,212.262 455.5,210.5C 456.167,206.833 456.833,203.167 457.5,199.5 Z"
       id="path118" />
  </g>
  <g
     id="g119"
     style="fill:#ffffff">
    <path
       style="opacity:1;fill:#ffffff"
       fill="#181818"
       d="M 491.5,207.5 C 491.802,210.059 491.468,212.393 490.5,214.5C 490.925,209.95 489.925,205.783 487.5,202C 488.01,200.174 488.844,200.007 490,201.5C 490.813,203.436 491.313,205.436 491.5,207.5 Z"
       id="path119" />
  </g>
  <g
     id="g120"
     style="fill:#ffffff">
    <path
       style="opacity:1;fill:#ffffff"
       fill="#262626"
       d="M 230.5,193.5 C 230.626,199.193 230.293,204.86 229.5,210.5C 230.299,215.157 230.965,219.824 231.5,224.5C 230.833,223.5 230.167,222.5 229.5,221.5C 229.029,217.644 228.362,213.811 227.5,210C 229.12,204.964 229.787,199.798 229.5,194.5C 229.5,193.833 229.833,193.5 230.5,193.5 Z"
       id="path120" />
  </g>
  <g
     id="g121"
     style="fill:#ffffff">
    <path
       style="opacity:1;fill:#ffffff"
       fill="#3f3f3f"
       d="M 90.5,202.5 C 91.7251,203.152 92.3917,204.319 92.5,206C 92.3333,207.167 92.1667,208.333 92,209.5C 91.2569,207.355 90.4235,207.189 89.5,209C 88.1129,216.273 86.6129,223.439 85,230.5C 85.1077,220.795 86.9411,211.462 90.5,202.5 Z"
       id="path121" />
  </g>
  <g
     id="g122"
     style="fill:#ffffff">
    <path
       style="opacity:1;fill:#ffffff"
       fill="#333333"
       d="M 344.5,196.5 C 349.543,206.081 351.377,216.414 350,227.5C 349.911,231.028 349.244,234.362 348,237.5C 348.105,231.509 348.605,225.509 349.5,219.5C 349.304,212.25 347.304,205.584 343.5,199.5C 344.127,198.583 344.461,197.583 344.5,196.5 Z"
       id="path122" />
  </g>
  <g
     id="g123"
     style="fill:#ffffff">
    <path
       style="opacity:1;fill:#ffffff"
       fill="#4c4c4c"
       d="M 377.5,203.5 C 377.863,216.919 376.029,230.253 372,243.5C 372.676,235.112 374.009,226.779 376,218.5C 376.499,214.179 376.666,209.846 376.5,205.5C 377.338,205.158 377.672,204.492 377.5,203.5 Z"
       id="path123" />
  </g>
  <g
     id="g124"
     style="fill:#ffffff">
    <path
       style="opacity:1;fill:#ffffff"
       fill="#9f9f9f"
       d="M 456.5,195.5 C 457.434,196.568 457.768,197.901 457.5,199.5C 456.833,203.167 456.167,206.833 455.5,210.5C 455.5,206.167 455.5,201.833 455.5,197.5C 456.338,197.158 456.672,196.492 456.5,195.5 Z"
       id="path124" />
  </g>
  <g
     id="g125"
     style="fill:#ffffff">
    <path
       style="opacity:1;fill:#ffffff"
       fill="#5d5d5d"
       d="M 393.5,198.5 C 393.232,200.099 393.566,201.432 394.5,202.5C 394.253,205.854 393.253,208.854 391.5,211.5C 391.77,206.972 392.437,202.639 393.5,198.5 Z"
       id="path125" />
  </g>
  <g
     id="g126"
     style="fill:#ffffff">
    <path
       style="opacity:1;fill:#ffffff"
       fill="#484848"
       d="M 188.5,203.5 C 189.821,206.729 191.155,210.062 192.5,213.5C 192.167,213.833 191.833,214.167 191.5,214.5C 189.482,211.112 188.482,207.446 188.5,203.5 Z"
       id="path126" />
  </g>
  <g
     id="g127"
     style="fill:#ffffff">
    <path
       style="opacity:1;fill:#ffffff"
       fill="#181818"
       d="M 90.5,210.5 C 92.3265,212.437 92.4932,214.437 91,216.5C 90.5045,214.527 90.3379,212.527 90.5,210.5 Z"
       id="path127" />
  </g>
  <g
     id="g128"
     style="fill:#ffffff">
    <path
       style="opacity:1;fill:#ffffff"
       fill="#585858"
       d="M 491.5,207.5 C 492.317,209.969 492.817,212.635 493,215.5C 493.39,212.896 494.224,210.562 495.5,208.5C 495.833,208.5 496.167,208.5 496.5,208.5C 495.958,211.673 494.958,214.673 493.5,217.5C 492.022,218.448 491.022,219.781 490.5,221.5C 490.5,219.167 490.5,216.833 490.5,214.5C 491.468,212.393 491.802,210.059 491.5,207.5 Z"
       id="path128" />
  </g>
  <g
     id="g129"
     style="fill:#ffffff">
    <path
       style="opacity:1;fill:#ffffff"
       fill="#282828"
       d="M 136.5,217.5 C 136.5,218.167 136.167,218.5 135.5,218.5C 134.65,216.506 134.15,214.506 134,212.5C 135.372,213.91 136.205,215.577 136.5,217.5 Z"
       id="path129" />
  </g>
  <g
     id="g130"
     style="fill:#ffffff">
    <path
       style="opacity:1;fill:#ffffff"
       fill="#191919"
       d="M 558.5,223.5 C 557.68,221.86 556.847,220.193 556,218.5C 555.595,220.775 556.095,222.775 557.5,224.5C 558.831,231.146 560.164,237.812 561.5,244.5C 561.132,245.91 560.299,246.91 559,247.5C 557.431,238.686 554.431,230.353 550,222.5C 550.6,227.836 551.6,233.169 553,238.5C 552.595,246.459 554.095,253.959 557.5,261C 556.576,262.811 555.743,262.645 555,260.5C 554.107,261.711 553.274,261.711 552.5,260.5C 546.709,252.544 543.042,243.711 541.5,234C 541.482,230.361 542.148,226.861 543.5,223.5C 544.895,224.815 545.895,224.481 546.5,222.5C 544.611,219.779 544.445,217.113 546,214.5C 549.744,218.108 552.578,222.442 554.5,227.5C 555.228,229.512 556.062,231.512 557,233.5C 557.275,230.942 556.775,228.608 555.5,226.5C 555.451,223.901 554.451,221.734 552.5,220C 553.276,218.23 553.11,216.397 552,214.5C 550.206,210.407 548.039,206.574 545.5,203C 545.548,201.967 545.881,201.634 546.5,202C 549.293,205.081 551.46,208.581 553,212.5C 552.671,209.299 551.838,206.133 550.5,203C 551.102,201.437 551.935,201.604 553,203.5C 552.733,199.292 551.066,195.625 548,192.5C 547.333,191.167 547.333,189.833 548,188.5C 551.095,191.692 553.428,195.359 555,199.5C 557.312,208.897 559.812,218.23 562.5,227.5C 562.167,228.167 561.833,228.833 561.5,229.5C 560.473,227.447 559.473,225.447 558.5,223.5 Z"
       id="path130" />
  </g>
  <g
     id="g131"
     style="fill:#ffffff">
    <path
       style="opacity:1;fill:#ffffff"
       fill="#2f2f2f"
       d="M 199.5,220.5 C 197.825,218.821 196.992,216.821 197,214.5C 199.039,215.978 199.872,217.978 199.5,220.5 Z"
       id="path131" />
  </g>
  <g
     id="g132"
     style="fill:#ffffff">
    <path
       style="opacity:1;fill:#ffffff"
       fill="#212121"
       d="M 362.5,223.5 C 362.167,223.5 361.833,223.5 361.5,223.5C 360.644,218.787 358.477,214.787 355,211.5C 354.251,210.365 354.417,209.365 355.5,208.5C 359.185,212.87 361.518,217.87 362.5,223.5 Z"
       id="path132" />
  </g>
  <g
     id="g133"
     style="fill:#ffffff">
    <path
       style="opacity:1;fill:#ffffff"
       fill="#9e9e9e"
       d="M 554.5,208.5 C 556.431,210.794 557.264,213.461 557,216.5C 555.659,213.978 554.826,211.311 554.5,208.5 Z"
       id="path133" />
  </g>
  <g
     id="g134"
     style="fill:#ffffff">
    <path
       style="opacity:1;fill:#ffffff"
       fill="#252525"
       d="M 338.5,199.5 C 339.931,199.881 340.764,200.881 341,202.5C 341.249,214.908 341.915,227.242 343,239.5C 341.956,237.285 341.29,234.952 341,232.5C 340.914,221.421 340.081,210.421 338.5,199.5 Z"
       id="path134" />
  </g>
  <g
     id="g135"
     style="fill:#ffffff">
    <path
       style="opacity:1;fill:#ffffff"
       fill="#383838"
       d="M 408.5,196.5 C 411.735,200.035 413.068,204.369 412.5,209.5C 412.742,214.44 411.742,219.106 409.5,223.5C 409.167,223.167 408.833,222.833 408.5,222.5C 412.424,213.823 412.424,205.156 408.5,196.5 Z"
       id="path135" />
  </g>
  <g
     id="g136"
     style="fill:#ffffff">
    <path
       style="opacity:1;fill:#ffffff"
       fill="#535353"
       d="M 429.5,208.5 C 430.586,208.62 431.253,209.287 431.5,210.5C 432.816,216.529 432.65,222.529 431,228.5C 430.714,221.8 430.214,215.133 429.5,208.5 Z"
       id="path136" />
  </g>
  <g
     id="g137"
     style="fill:#ffffff">
    <path
       style="opacity:1;fill:#ffffff"
       fill="#272727"
       d="M 503.5,197.5 C 504.404,198.209 504.737,199.209 504.5,200.5C 504.261,208.95 503.261,217.283 501.5,225.5C 500.28,225.113 499.613,224.28 499.5,223C 503.22,214.876 503.387,206.709 500,198.5C 498.132,201.605 496.965,204.938 496.5,208.5C 496.167,208.5 495.833,208.5 495.5,208.5C 495.748,204.256 497.081,200.422 499.5,197C 498.483,195.951 498.316,194.784 499,193.5C 501.11,196.492 502.443,199.825 503,203.5C 503.495,201.527 503.662,199.527 503.5,197.5 Z"
       id="path137" />
  </g>
  <g
     id="g138"
     style="fill:#ffffff">
    <path
       style="opacity:1;fill:#ffffff"
       fill="#7b7b7b"
       d="M 136.5,217.5 C 137.339,218.641 138.006,219.974 138.5,221.5C 136.117,222.462 135.117,221.462 135.5,218.5C 136.167,218.5 136.5,218.167 136.5,217.5 Z"
       id="path138" />
  </g>
  <g
     id="g139"
     style="fill:#ffffff">
    <path
       style="opacity:1;fill:#ffffff"
       fill="#979797"
       d="M 558.5,223.5 C 557.833,223.5 557.5,223.833 557.5,224.5C 556.095,222.775 555.595,220.775 556,218.5C 556.847,220.193 557.68,221.86 558.5,223.5 Z"
       id="path139" />
  </g>
  <g
     id="g140"
     style="fill:#ffffff">
    <path
       style="opacity:1;fill:#ffffff"
       fill="#313131"
       d="M 188.5,196.5 C 191.294,198.819 193.128,201.819 194,205.5C 195.597,213.142 195.763,220.808 194.5,228.5C 194.49,223.289 194.323,217.956 194,212.5C 193.003,206.848 191.17,201.515 188.5,196.5 Z"
       id="path140" />
  </g>
  <g
     id="g141"
     style="fill:#ffffff">
    <path
       style="opacity:1;fill:#ffffff"
       fill="#2a2a2a"
       d="M 318.5,215.5 C 319.376,215.369 320.043,215.702 320.5,216.5C 325.665,225.82 328.499,235.82 329,246.5C 329.486,236.443 329.153,226.443 328,216.5C 331.102,230.135 331.268,243.801 328.5,257.5C 327.076,247.507 325.576,237.507 324,227.5C 322.92,225.004 321.586,222.67 320,220.5C 319.118,223.789 318.452,227.123 318,230.5C 317.913,225.512 318.08,220.512 318.5,215.5 Z"
       id="path141" />
  </g>
  <g
     id="g142"
     style="fill:#ffffff">
    <path
       style="opacity:1;fill:#ffffff"
       fill="#353535"
       d="M 416.5,206.5 C 417.117,206.611 417.617,206.944 418,207.5C 418.667,212.5 418.667,217.5 418,222.5C 417.457,224.631 416.624,226.631 415.5,228.5C 415.167,228.167 414.833,227.833 414.5,227.5C 417.479,220.708 418.146,213.708 416.5,206.5 Z"
       id="path142" />
  </g>
  <g
     id="g143"
     style="fill:#ffffff">
    <path
       style="opacity:1;fill:#ffffff"
       fill="#737373"
       d="M 229.5,221.5 C 230.167,222.5 230.833,223.5 231.5,224.5C 231.343,225.873 231.51,227.207 232,228.5C 233,226.5 234,224.5 235,222.5C 235.295,225.242 234.462,227.575 232.5,229.5C 231.778,229.918 231.278,230.584 231,231.5C 230.722,230.584 230.222,229.918 229.5,229.5C 229.5,226.833 229.5,224.167 229.5,221.5 Z"
       id="path143" />
  </g>
  <g
     id="g144"
     style="fill:#ffffff">
    <path
       style="opacity:1;fill:#ffffff"
       fill="#3a3a3a"
       d="M 254.5,231.5 C 255.958,225.543 257.292,219.543 258.5,213.5C 259.336,219.99 258.002,225.99 254.5,231.5 Z"
       id="path144" />
  </g>
  <g
     id="g145"
     style="fill:#ffffff">
    <path
       style="opacity:1;fill:#ffffff"
       fill="#1d1d1d"
       d="M 493.5,217.5 C 492.529,223.682 491.029,229.682 489,235.5C 488.833,234.667 488.667,233.833 488.5,233C 489.869,229.286 490.536,225.453 490.5,221.5C 491.022,219.781 492.022,218.448 493.5,217.5 Z"
       id="path145" />
  </g>
  <g
     id="g146"
     style="fill:#ffffff">
    <path
       style="opacity:1;fill:#ffffff"
       fill="#222222"
       d="M 240.5,245.5 C 239.662,245.158 239.328,244.492 239.5,243.5C 239.209,237.752 239.209,232.085 239.5,226.5C 240.902,232.929 241.235,239.263 240.5,245.5 Z"
       id="path146" />
  </g>
  <g
     id="g147"
     style="fill:#ffffff">
    <path
       style="opacity:1;fill:#ffffff"
       fill="#313131"
       d="M 203.5,248.5 C 204.379,241.514 205.212,234.514 206,227.5C 206.976,234.848 206.142,241.848 203.5,248.5 Z"
       id="path147" />
  </g>
  <g
     id="g148"
     style="fill:#ffffff">
    <path
       style="opacity:1;fill:#ffffff"
       fill="#6c6c6c"
       d="M 361.5,223.5 C 361.833,223.5 362.167,223.5 362.5,223.5C 363.161,225.134 363.494,226.967 363.5,229C 363.579,232.451 362.913,235.618 361.5,238.5C 361.5,233.5 361.5,228.5 361.5,223.5 Z"
       id="path148" />
  </g>
  <g
     id="g149"
     style="fill:#ffffff">
    <path
       style="opacity:1;fill:#ffffff"
       fill="#e9e9e9"
       d="M 545.5,225.5 C 546.79,226.058 547.623,227.058 548,228.5C 550.26,233.653 551.26,238.986 551,244.5C 549.147,238.14 547.314,231.806 545.5,225.5 Z"
       id="path149" />
  </g>
  <g
     id="g150"
     style="fill:#ffffff">
    <path
       style="opacity:1;fill:#ffffff"
       fill="#9f9f9f"
       d="M 144.5,227.5 C 145.533,228.912 146.199,230.578 146.5,232.5C 146.114,235.343 146.114,238.343 146.5,241.5C 145.778,241.082 145.278,240.416 145,239.5C 144.501,235.514 144.334,231.514 144.5,227.5 Z"
       id="path150" />
  </g>
  <g
     id="g151"
     style="fill:#ffffff">
    <path
       style="opacity:1;fill:#ffffff"
       fill="#404040"
       d="M 199.5,220.5 C 200.222,220.918 200.722,221.584 201,222.5C 201.814,227.02 201.647,231.354 200.5,235.5C 200.497,230.473 200.164,225.473 199.5,220.5 Z"
       id="path151" />
  </g>
  <g
     id="g152"
     style="fill:#ffffff">
    <path
       style="opacity:1;fill:#ffffff"
       fill="#2f2f2f"
       d="M 391.5,211.5 C 390.154,219.538 388.821,227.538 387.5,235.5C 386.732,234.737 386.232,233.737 386,232.5C 385.617,233.056 385.117,233.389 384.5,233.5C 384.971,231.712 385.304,229.878 385.5,228C 384.238,220.785 382.738,213.618 381,206.5C 379.828,202.142 377.661,198.475 374.5,195.5C 374.639,193.663 375.306,193.33 376.5,194.5C 378.587,197.673 380.421,201.006 382,204.5C 383.54,211.867 385.207,219.2 387,226.5C 388.072,221.253 389.572,216.253 391.5,211.5 Z"
       id="path152" />
  </g>
  <g
     id="g153"
     style="fill:#ffffff">
    <path
       style="opacity:1;fill:#ffffff"
       fill="#969696"
       d="M 555.5,226.5 C 556.775,228.608 557.275,230.942 557,233.5C 556.062,231.512 555.228,229.512 554.5,227.5C 555.167,227.5 555.5,227.167 555.5,226.5 Z"
       id="path153" />
  </g>
  <g
     id="g154"
     style="fill:#ffffff">
    <path
       style="opacity:1;fill:#ffffff"
       fill="#282828"
       d="M 313.5,247.5 C 313.343,248.873 313.51,250.207 314,251.5C 314.69,250.262 315.19,250.262 315.5,251.5C 315.829,257.537 315.496,263.537 314.5,269.5C 313.898,260.092 312.731,250.758 311,241.5C 308.826,235.94 305.992,230.774 302.5,226C 302.548,224.967 302.881,224.634 303.5,225C 309.248,231.403 312.581,238.903 313.5,247.5 Z"
       id="path154" />
  </g>
  <g
     id="g155"
     style="fill:#ffffff">
    <path
       style="opacity:1;fill:#ffffff"
       fill="#777777"
       d="M 387.5,235.5 C 384.814,244.687 383.981,244.354 385,234.5C 384.346,235.696 383.846,235.696 383.5,234.5C 383.624,233.893 383.957,233.56 384.5,233.5C 385.117,233.389 385.617,233.056 386,232.5C 386.232,233.737 386.732,234.737 387.5,235.5 Z"
       id="path155" />
  </g>
  <g
     id="g156"
     style="fill:#ffffff">
    <path
       style="opacity:1;fill:#ffffff"
       fill="#d2d2d2"
       d="M 543.5,230.5 C 547.367,236.937 549.534,243.937 550,251.5C 545.045,245.151 542.879,238.151 543.5,230.5 Z"
       id="path156" />
  </g>
  <g
     id="g157"
     style="fill:#ffffff">
    <path
       style="opacity:1;fill:#ffffff"
       fill="#131313"
       d="M 179.5,17.5 C 180.084,20.285 179.084,21.9517 176.5,22.5C 173.287,22.19 170.287,22.5233 167.5,23.5C 166.292,24.2341 164.959,24.5674 163.5,24.5C 163.5,25.5 163.5,26.5 163.5,27.5C 159.196,27.7323 155.196,26.7323 151.5,24.5C 148.399,26.0984 145.732,28.2651 143.5,31C 142.551,31.6172 141.718,31.4506 141,30.5C 132.915,42.8204 123.749,54.3204 113.5,65C 114.167,65.3333 114.833,65.6667 115.5,66C 104.82,77.6697 95.3203,90.1697 87,103.5C 84.7487,105.377 82.2487,106.877 79.5,108C 78.8333,109 78.1667,110 77.5,111C 63.1541,113.356 52.8208,121.023 46.5,134C 46.5699,134.765 46.9033,135.265 47.5,135.5C 45.28,141.696 46.78,142.029 52,136.5C 51.769,138.769 50.6023,140.603 48.5,142C 50.4242,142.179 52.0909,142.346 53.5,142.5C 48.631,144.529 44.7976,147.862 42,152.5C 41.3333,153.5 41.3333,154.5 42,155.5C 42.6667,156.833 43.3333,156.833 44,155.5C 44.1667,156 44.3333,156.5 44.5,157C 42.7863,161.353 41.7863,165.853 41.5,170.5C 48.8655,172.615 51.5322,177.115 49.5,184C 53.6689,190.523 57.8356,197.023 62,203.5C 63.5495,210.08 64.3829,216.747 64.5,223.5C 63.9762,231.613 63.1429,239.613 62,247.5C 62.3333,247.833 62.6667,248.167 63,248.5C 65.4794,246.083 68.4794,245.083 72,245.5C 76.7539,246.795 81.5872,247.295 86.5,247C 89.9518,246.108 92.9518,244.442 95.5,242C 96.5,241.333 97.5,241.333 98.5,242C 91.7798,249.959 83.6131,252.126 74,248.5C 69.9503,249.135 66.117,250.301 62.5,252C 63.2266,253.399 63.7266,254.899 64,256.5C 73.8936,257.644 83.727,256.977 93.5,254.5C 93.026,258.281 91.3593,261.448 88.5,264C 90.678,264.165 92.5114,263.332 94,261.5C 94.142,265.36 92.142,267.36 88,267.5C 85.4723,267.442 83.4723,266.442 82,264.5C 78.9433,265.451 75.7766,265.784 72.5,265.5C 71.8333,269.5 73.5,271.167 77.5,270.5C 78.3121,271.993 79.6455,272.66 81.5,272.5C 82.7261,272.48 83.7261,272.147 84.5,271.5C 91.7646,271.389 98.2646,269.056 104,264.5C 104.333,262.167 104.667,259.833 105,257.5C 105.667,256.167 106.333,256.167 107,257.5C 109.832,253.678 111.499,249.345 112,244.5C 114.174,247.732 117.008,249.565 120.5,250C 123.099,245.842 124.932,241.342 126,236.5C 127.036,239.753 127.703,243.086 128,246.5C 128.953,243.568 129.453,240.568 129.5,237.5C 130.46,243.958 131.46,243.958 132.5,237.5C 132.709,236.078 133.209,234.745 134,233.5C 134.333,233.833 134.667,234.167 135,234.5C 137.829,232.238 137.996,229.905 135.5,227.5C 135.808,226.692 136.308,226.025 137,225.5C 138.044,226.623 138.71,227.956 139,229.5C 139.923,227.076 141.423,225.076 143.5,223.5C 144.429,224.689 144.762,226.022 144.5,227.5C 144.334,231.514 144.501,235.514 145,239.5C 145.278,240.416 145.778,241.082 146.5,241.5C 145.61,243.782 145.444,246.115 146,248.5C 149.798,253.202 152.465,258.535 154,264.5C 154.26,260.75 154.927,257.084 156,253.5C 156.871,258.906 158.038,264.239 159.5,269.5C 160.551,270.222 161.218,271.222 161.5,272.5C 162.192,275.897 162.192,279.23 161.5,282.5C 160.914,282.291 160.414,281.957 160,281.5C 159.496,275.32 158.163,269.32 156,263.5C 154.801,266.726 154.301,270.059 154.5,273.5C 154.101,276.988 153.434,277.154 152.5,274C 153.63,272.096 153.63,270.263 152.5,268.5C 151.589,261.011 148.755,254.344 144,248.5C 143.054,253.058 141.054,257.058 138,260.5C 140.222,254.13 141.889,247.463 143,240.5C 143.667,236.5 143.667,232.5 143,228.5C 142.333,229.833 141.667,229.833 141,228.5C 139.157,231.022 137.99,233.855 137.5,237C 133.22,241.279 129.72,246.112 127,251.5C 123.405,252.289 119.905,253.456 116.5,255C 111.468,259.693 107.635,265.193 105,271.5C 102.217,272.641 100.05,274.475 98.5,277C 90.8477,276.795 83.1811,276.129 75.5,275C 73.7795,274.261 72.1128,273.427 70.5,272.5C 69.1373,268.425 66.804,265.092 63.5,262.5C 62.5431,259.72 61.3764,257.053 60,254.5C 59.9025,244.253 60.7358,234.087 62.5,224C 62.4411,217.425 61.7744,210.925 60.5,204.5C 59.5,204.5 58.5,204.5 57.5,204.5C 55.2327,193.306 49.0661,184.972 39,179.5C 39.1512,172.757 39.8178,166.09 41,159.5C 32.4732,154.571 24.4732,148.904 17,142.5C 9.28769,133.515 5.78769,123.015 6.5,111C 6.92138,98.4035 9.42138,86.2368 14,74.5C 18.0402,71.487 20.2068,72.6537 20.5,78C 18.5989,92.3511 19.4323,106.518 23,120.5C 26.9754,130.071 34.1421,135.071 44.5,135.5C 46.2912,128.531 49.9579,122.698 55.5,118C 58.0758,117.218 60.0758,115.718 61.5,113.5C 68.5355,111.543 75.2022,108.71 81.5,105C 90.4062,94.5167 99.0729,83.85 107.5,73C 106.483,71.9505 106.316,70.7839 107,69.5C 120.181,56.327 131.848,41.9936 142,26.5C 143.316,23.972 144.483,23.972 145.5,26.5C 146.7,25.4688 148.034,24.6355 149.5,24C 147.216,22.6371 147.049,21.1371 149,19.5C 152.194,21.4303 155.527,23.097 159,24.5C 164.518,21.7718 170.351,20.2718 176.5,20C 177.373,18.955 178.373,18.1217 179.5,17.5 Z"
       id="path157" />
  </g>
  <g
     id="g158"
     style="fill:#ffffff">
    <path
       style="opacity:1;fill:#ffffff"
       fill="#f5f5f5"
       d="M 16.5,76.5 C 17.3307,87.9928 17.8307,99.6595 18,111.5C 19.487,126.154 27.3203,135.487 41.5,139.5C 38.1763,140.159 36.8429,142.159 37.5,145.5C 40.4248,144.361 43.4248,143.861 46.5,144C 43.1934,146.47 40.86,149.637 39.5,153.5C 31.3263,149.167 23.8263,143.833 17,137.5C 9.85191,127.311 7.18525,115.978 9,103.5C 10.0049,93.9983 12.5049,84.9983 16.5,76.5 Z"
       id="path158" />
  </g>
  <g
     id="g159"
     style="fill:#ffffff">
    <path
       style="opacity:1;fill:#ffffff"
       fill="#282828"
       d="M 295.5,266.5 C 294.833,262.833 294.167,259.167 293.5,255.5C 293.243,248.227 290.91,241.727 286.5,236C 287.01,234.174 287.844,234.007 289,235.5C 291.434,238.795 293.101,242.462 294,246.5C 295.052,253.128 295.552,259.794 295.5,266.5 Z"
       id="path159" />
  </g>
  <g
     id="g160"
     style="fill:#ffffff">
    <path
       style="opacity:1;fill:#ffffff"
       fill="#1f1f1f"
       d="M 75.5,235.5 C 80.4045,235.517 84.9045,236.851 89,239.5C 89.4828,240.448 89.6495,241.448 89.5,242.5C 87.3016,241.986 85.3016,240.986 83.5,239.5C 80.2733,239.655 76.94,239.822 73.5,240C 72.3325,241.784 71.3325,241.784 70.5,240C 72.0425,238.287 73.7092,236.787 75.5,235.5 Z"
       id="path160" />
  </g>
  <g
     id="g161"
     style="fill:#ffffff">
    <path
       style="opacity:1;fill:#ffffff"
       fill="#252525"
       d="M 229.5,229.5 C 230.222,229.918 230.722,230.584 231,231.5C 231.278,230.584 231.778,229.918 232.5,229.5C 231.105,233.514 229.605,237.514 228,241.5C 227.308,240.975 226.808,240.308 226.5,239.5C 228.704,236.553 229.704,233.22 229.5,229.5 Z"
       id="path161" />
  </g>
  <g
     id="g162"
     style="fill:#ffffff">
    <path
       style="opacity:1;fill:#ffffff"
       fill="#1f1f1f"
       d="M 302.5,246.5 C 302.5,247.167 302.167,247.5 301.5,247.5C 301.322,244.784 300.822,242.117 300,239.5C 297.796,236.77 296.463,233.77 296,230.5C 296.333,230.167 296.667,229.833 297,229.5C 300.144,234.765 301.977,240.431 302.5,246.5 Z"
       id="path162" />
  </g>
  <g
     id="g163"
     style="fill:#ffffff">
    <path
       style="opacity:1;fill:#ffffff"
       fill="#2d2d2d"
       d="M 200.5,235.5 C 200.662,237.527 200.495,239.527 200,241.5C 198.507,239.437 198.674,237.437 200.5,235.5 Z"
       id="path163" />
  </g>
  <g
     id="g164"
     style="fill:#ffffff">
    <path
       style="opacity:1;fill:#ffffff"
       fill="#949494"
       d="M 129.5,237.5 C 130.348,236.375 131.348,236.375 132.5,237.5C 131.46,243.958 130.46,243.958 129.5,237.5 Z"
       id="path164" />
  </g>
  <g
     id="g165"
     style="fill:#ffffff">
    <path
       style="opacity:1;fill:#ffffff"
       fill="#191919"
       d="M 99.5,256.5 C 100.658,251.824 100.825,247.157 100,242.5C 101.859,243.645 102.693,245.312 102.5,247.5C 102.25,250.867 101.25,253.867 99.5,256.5 Z"
       id="path165" />
  </g>
  <g
     id="g166"
     style="fill:#ffffff">
    <path
       style="opacity:1;fill:#ffffff"
       fill="#272727"
       d="M 254.5,231.5 C 252.472,238.154 250.639,244.82 249,251.5C 246.761,247.847 247.095,244.513 250,241.5C 250.942,236.547 251.442,231.547 251.5,226.5C 251.153,218.287 249.986,210.287 248,202.5C 249.887,204.026 250.887,206.026 251,208.5C 252.072,216.797 252.739,225.13 253,233.5C 253.278,232.584 253.778,231.918 254.5,231.5 Z"
       id="path166" />
  </g>
  <g
     id="g167"
     style="fill:#ffffff">
    <path
       style="opacity:1;fill:#ffffff"
       fill="#8e8e8e"
       d="M 239.5,243.5 C 239.328,244.492 239.662,245.158 240.5,245.5C 242.409,244.321 242.742,244.654 241.5,246.5C 240.5,247.833 239.5,247.833 238.5,246.5C 238.263,245.209 238.596,244.209 239.5,243.5 Z"
       id="path167" />
  </g>
  <g
     id="g168"
     style="fill:#ffffff">
    <path
       style="opacity:1;fill:#ffffff"
       fill="#2f2f2f"
       d="M 273.5,241.5 C 278.246,247.564 280.746,254.564 281,262.5C 281.556,260.405 282.056,260.238 282.5,262C 280.364,265.848 279.698,269.848 280.5,274C 279.419,275.371 278.585,276.871 278,278.5C 278.442,270.524 278.442,262.524 278,254.5C 277.226,250.286 275.393,246.619 272.5,243.5C 272.863,242.817 273.196,242.15 273.5,241.5 Z"
       id="path168" />
  </g>
  <g
     id="g169"
     style="fill:#ffffff">
    <path
       style="opacity:1;fill:#ffffff"
       fill="#3c3c3c"
       d="M 361.5,238.5 C 361.775,242.942 360.609,246.942 358,250.5C 358.548,246.304 359.715,242.304 361.5,238.5 Z"
       id="path169" />
  </g>
  <g
     id="g170"
     style="fill:#ffffff">
    <path
       style="opacity:1;fill:#ffffff"
       fill="#888888"
       d="M 315.5,251.5 C 315.19,250.262 314.69,250.262 314,251.5C 313.51,250.207 313.343,248.873 313.5,247.5C 315.011,245.524 315.844,243.191 316,240.5C 316.81,244.358 316.643,248.024 315.5,251.5 Z"
       id="path170" />
  </g>
  <g
     id="g171"
     style="fill:#ffffff">
    <path
       style="opacity:1;fill:#ffffff"
       fill="#535353"
       d="M 285.5,247.5 C 286.124,251.551 285.29,255.551 283,259.5C 283.495,255.492 284.329,251.492 285.5,247.5 Z"
       id="path171" />
  </g>
  <g
     id="g172"
     style="fill:#ffffff">
    <path
       style="opacity:1;fill:#ffffff"
       fill="#4c4c4c"
       d="M 304.5,252.5 C 303.883,252.611 303.383,252.944 303,253.5C 302.819,256.695 302.319,259.695 301.5,262.5C 301.5,257.5 301.5,252.5 301.5,247.5C 302.167,247.5 302.5,247.167 302.5,246.5C 303.29,247.609 303.79,248.942 304,250.5C 304.687,246.42 305.687,242.42 307,238.5C 307.006,243.303 306.173,247.969 304.5,252.5 Z"
       id="path172" />
  </g>
  <g
     id="g173"
     style="fill:#ffffff">
    <path
       style="opacity:1;fill:#ffffff"
       fill="#1b1b1b"
       d="M 540.5,249.5 C 540.281,248.325 540.614,247.325 541.5,246.5C 544.831,250.492 547.664,254.825 550,259.5C 550.667,260.833 550.667,262.167 550,263.5C 547.058,258.594 543.891,253.928 540.5,249.5 Z"
       id="path173" />
  </g>
  <g
     id="g174"
     style="fill:#ffffff">
    <path
       style="opacity:1;fill:#ffffff"
       fill="#404040"
       d="M 206.5,272.5 C 208.503,265.485 210.337,258.485 212,251.5C 212.087,259.061 210.254,266.061 206.5,272.5 Z"
       id="path174" />
  </g>
  <g
     id="g175"
     style="fill:#ffffff">
    <path
       style="opacity:1;fill:#ffffff"
       fill="#343434"
       d="M 263.5,260.5 C 263.67,258.152 264.003,255.818 264.5,253.5C 264.21,251.956 263.544,250.623 262.5,249.5C 263.689,248.571 265.022,248.238 266.5,248.5C 266.728,252.924 265.728,256.924 263.5,260.5 Z"
       id="path175" />
  </g>
  <g
     id="g176"
     style="fill:#ffffff">
    <path
       style="opacity:1;fill:#ffffff"
       fill="#111111"
       d="M 304.5,252.5 C 304.033,261.218 303.2,269.885 302,278.5C 301.501,273.177 301.334,267.844 301.5,262.5C 302.319,259.695 302.819,256.695 303,253.5C 303.383,252.944 303.883,252.611 304.5,252.5 Z"
       id="path176" />
  </g>
  <g
     id="g177"
     style="fill:#ffffff">
    <path
       style="opacity:1;fill:#ffffff"
       fill="#464646"
       d="M 204.5,265.5 C 206.427,257.94 207.927,250.273 209,242.5C 209.542,250.648 208.042,258.315 204.5,265.5 Z"
       id="path177" />
  </g>
  <g
     id="g178"
     style="fill:#ffffff">
    <path
       style="opacity:1;fill:#ffffff"
       fill="#898989"
       d="M 293.5,255.5 C 294.167,259.167 294.833,262.833 295.5,266.5C 295.737,267.791 295.404,268.791 294.5,269.5C 294.5,268.833 294.167,268.5 293.5,268.5C 293.5,264.167 293.5,259.833 293.5,255.5 Z"
       id="path178" />
  </g>
  <g
     id="g179"
     style="fill:#ffffff">
    <path
       style="opacity:1;fill:#ffffff"
       fill="#0f0f0f"
       d="M 99.5,256.5 C 99.205,258.423 98.3717,260.09 97,261.5C 96.7506,259.332 97.5839,257.665 99.5,256.5 Z"
       id="path179" />
  </g>
  <g
     id="g180"
     style="fill:#ffffff">
    <path
       style="opacity:1;fill:#ffffff"
       fill="#161616"
       d="M 540.5,249.5 C 544.641,261.536 547.641,273.869 549.5,286.5C 548.349,287.731 547.183,287.731 546,286.5C 542.267,279.369 538.267,272.369 534,265.5C 533.333,267.167 533.333,268.833 534,270.5C 535.637,275.769 537.803,280.769 540.5,285.5C 540.201,287.815 539.368,287.815 538,285.5C 536.056,281.89 533.723,278.557 531,275.5C 531.006,282.024 532.506,288.19 535.5,294C 535.167,294.5 534.833,295 534.5,295.5C 528.911,289.397 524.745,282.397 522,274.5C 522.374,279.455 523.04,284.455 524,289.5C 524.635,290.966 525.469,292.3 526.5,293.5C 525.833,294.833 525.167,294.833 524.5,293.5C 523.391,291.615 522.557,289.615 522,287.5C 521.462,291.443 521.962,295.276 523.5,299C 522.373,301.298 522.706,303.465 524.5,305.5C 524.192,306.308 523.692,306.975 523,307.5C 518.429,297.572 516.596,287.239 517.5,276.5C 517.833,276.833 518.167,277.167 518.5,277.5C 519.244,280.443 519.744,283.443 520,286.5C 520.17,280.804 520.67,275.138 521.5,269.5C 524.793,274.838 527.626,280.505 530,286.5C 529.689,280.879 528.522,275.379 526.5,270C 526.509,268.596 527.009,267.43 528,266.5C 528.901,269.071 530.234,271.404 532,273.5C 532.644,269.859 532.144,266.359 530.5,263C 530.946,261.274 531.779,259.774 533,258.5C 536.829,266.163 541.163,273.496 546,280.5C 544.51,269.713 541.677,259.213 537.5,249C 537.833,248.5 538.167,248 538.5,247.5C 539.182,248.243 539.849,248.909 540.5,249.5 Z"
       id="path180" />
  </g>
  <g
     id="g181"
     style="fill:#ffffff">
    <path
       style="opacity:1;fill:#ffffff"
       fill="#353535"
       d="M 238.5,246.5 C 239.5,247.833 240.5,247.833 241.5,246.5C 237.605,253.493 234.272,260.826 231.5,268.5C 231.167,268.167 230.833,267.833 230.5,267.5C 233.177,260.464 235.844,253.464 238.5,246.5 Z"
       id="path181" />
  </g>
  <g
     id="g182"
     style="fill:#ffffff">
    <path
       style="opacity:1;fill:#ffffff"
       fill="#c9c9c9"
       d="M 71.5,261.5 C 73.3547,261.272 74.1881,261.939 74,263.5C 71.3655,264.692 70.5322,264.026 71.5,261.5 Z"
       id="path182" />
  </g>
  <g
     id="g183"
     style="fill:#ffffff">
    <path
       style="opacity:1;fill:#ffffff"
       fill="#5c5c5c"
       d="M 219.5,260.5 C 220.621,262.089 220.454,263.756 219,265.5C 218.616,263.803 218.782,262.137 219.5,260.5 Z"
       id="path183" />
  </g>
  <g
     id="g184"
     style="fill:#ffffff">
    <path
       style="opacity:1;fill:#ffffff"
       fill="#515151"
       d="M 263.5,260.5 C 263.773,263.183 262.773,264.683 260.5,265C 261.399,263.348 262.399,261.848 263.5,260.5 Z"
       id="path184" />
  </g>
  <g
     id="g185"
     style="fill:#ffffff">
    <path
       style="opacity:1;fill:#ffffff"
       fill="#282828"
       d="M 203.5,248.5 C 202.962,256.115 200.628,263.115 196.5,269.5C 196.167,269 195.833,268.5 195.5,268C 196.651,266.177 197.818,264.344 199,262.5C 200.212,257.62 201.712,252.953 203.5,248.5 Z"
       id="path185" />
  </g>
  <g
     id="g186"
     style="fill:#ffffff">
    <path
       style="opacity:1;fill:#ffffff"
       fill="#262626"
       d="M 260.5,214.5 C 261.222,214.918 261.722,215.584 262,216.5C 262.667,226.833 262.667,237.167 262,247.5C 260.807,254.412 258.807,261.079 256,267.5C 255.5,267 255,266.5 254.5,266C 257.97,259.301 260.137,252.134 261,244.5C 261.666,234.481 261.499,224.481 260.5,214.5 Z"
       id="path186" />
  </g>
  <g
     id="g187"
     style="fill:#ffffff">
    <path
       style="opacity:1;fill:#ffffff"
       fill="#383838"
       d="M 204.5,265.5 C 204.161,269.85 202.828,273.85 200.5,277.5C 200.167,277.333 199.833,277.167 199.5,277C 201.284,273.124 202.951,269.291 204.5,265.5 Z"
       id="path187" />
  </g>
  <g
     id="g188"
     style="fill:#ffffff">
    <path
       style="opacity:1;fill:#ffffff"
       fill="#717171"
       d="M 160.5,266.5 C 161.486,268.426 162.486,270.426 163.5,272.5C 162.833,272.5 162.167,272.5 161.5,272.5C 161.218,271.222 160.551,270.222 159.5,269.5C 160.404,268.791 160.737,267.791 160.5,266.5 Z"
       id="path188" />
  </g>
  <g
     id="g189"
     style="fill:#ffffff">
    <path
       style="opacity:1;fill:#ffffff"
       fill="#989898"
       d="M 77.5,270.5 C 79.9973,271.338 82.3307,271.672 84.5,271.5C 83.7261,272.147 82.7261,272.48 81.5,272.5C 79.6455,272.66 78.3121,271.993 77.5,270.5 Z"
       id="path189" />
  </g>
  <g
     id="g190"
     style="fill:#ffffff">
    <path
       style="opacity:1;fill:#ffffff"
       fill="#606060"
       d="M 213.5,278.5 C 214.014,276.488 214.18,274.488 214,272.5C 213.722,273.416 213.222,274.082 212.5,274.5C 213.023,271.11 213.857,267.777 215,264.5C 215.654,263.304 216.154,263.304 216.5,264.5C 215.515,266.098 215.349,267.765 216,269.5C 216.556,267.405 217.056,267.238 217.5,269C 216.629,272.471 215.296,275.638 213.5,278.5 Z"
       id="path190" />
  </g>
  <g
     id="g191"
     style="fill:#ffffff">
    <path
       style="opacity:1;fill:#ffffff"
       fill="#424242"
       d="M 293.5,268.5 C 294.167,268.5 294.5,268.833 294.5,269.5C 294.475,272.96 293.808,276.294 292.5,279.5C 292.167,278.833 291.833,278.167 291.5,277.5C 292.328,274.521 292.995,271.521 293.5,268.5 Z"
       id="path191" />
  </g>
  <g
     id="g192"
     style="fill:#ffffff">
    <path
       style="opacity:1;fill:#ffffff"
       fill="#5e5e5e"
       d="M 152.5,268.5 C 153.63,270.263 153.63,272.096 152.5,274C 153.434,277.154 154.101,276.988 154.5,273.5C 155.124,273.917 155.457,274.584 155.5,275.5C 154.66,277.261 153.66,278.927 152.5,280.5C 151.191,276.351 151.191,272.351 152.5,268.5 Z"
       id="path192" />
  </g>
  <g
     id="g193"
     style="fill:#ffffff">
    <path
       style="opacity:1;fill:#ffffff"
       fill="#202020"
       d="M 212.5,274.5 C 212.496,276.842 211.663,278.842 210,280.5C 209.992,278.179 210.825,276.179 212.5,274.5 Z"
       id="path193" />
  </g>
  <g
     id="g194"
     style="fill:#ffffff">
    <path
       style="opacity:1;fill:#ffffff"
       fill="#161616"
       d="M 167.5,278.5 C 167.666,283.179 167.499,287.845 167,292.5C 166.667,292.167 166.333,291.833 166,291.5C 165.77,285.067 164.937,278.734 163.5,272.5C 162.486,270.426 161.486,268.426 160.5,266.5C 159.697,265.577 159.53,264.577 160,263.5C 161.518,263.943 162.685,263.276 163.5,261.5C 163.833,261.833 164.167,262.167 164.5,262.5C 164.013,263.446 163.68,264.446 163.5,265.5C 164.284,270.254 165.617,274.587 167.5,278.5 Z"
       id="path194" />
  </g>
  <g
     id="g195"
     style="fill:#ffffff">
    <path
       style="opacity:1;fill:#ffffff"
       fill="#212121"
       d="M 206.5,272.5 C 206.245,275.016 205.411,277.35 204,279.5C 203.705,276.758 204.538,274.425 206.5,272.5 Z"
       id="path195" />
  </g>
  <g
     id="g196"
     style="fill:#ffffff">
    <path
       style="opacity:1;fill:#ffffff"
       fill="#464646"
       d="M 213.5,278.5 C 212.644,282.57 211.477,286.57 210,290.5C 209.73,286.05 210.897,282.05 213.5,278.5 Z"
       id="path196" />
  </g>
  <g
     id="g197"
     style="fill:#ffffff">
    <path
       style="opacity:1;fill:#ffffff"
       fill="#232323"
       d="M 198.5,324.5 C 198.737,323.209 198.404,322.209 197.5,321.5C 199.92,310.546 200.086,299.546 198,288.5C 195.06,280.238 191.894,272.071 188.5,264C 189,263.5 189.5,263 190,262.5C 195.532,273.597 199.366,285.263 201.5,297.5C 202.799,296.91 203.632,295.91 204,294.5C 201.707,304.471 199.874,314.471 198.5,324.5 Z"
       id="path197" />
  </g>
  <g
     id="g198"
     style="fill:#ffffff">
    <path
       style="opacity:1;fill:#ffffff"
       fill="#242424"
       d="M 177.5,299.5 C 176.833,299.5 176.5,299.167 176.5,298.5C 176.915,294.625 176.415,290.958 175,287.5C 174.536,288.094 174.369,288.761 174.5,289.5C 174.167,289.5 173.833,289.5 173.5,289.5C 173.929,286.637 174.929,283.971 176.5,281.5C 177.496,287.463 177.829,293.463 177.5,299.5 Z"
       id="path198" />
  </g>
  <g
     id="g199"
     style="fill:#ffffff">
    <path
       style="opacity:1;fill:#ffffff"
       fill="#1a1a1a"
       d="M 173.5,289.5 C 173.016,293.232 172.349,296.899 171.5,300.5C 171.799,302.604 171.466,304.604 170.5,306.5C 170.167,305.333 169.833,304.167 169.5,303C 170.486,297.521 170.652,292.021 170,286.5C 169.902,283.478 169.068,280.811 167.5,278.5C 167.643,276.738 167.309,275.071 166.5,273.5C 167.531,272.3 168.365,270.966 169,269.5C 170.21,276.8 171.21,284.133 172,291.5C 172.278,290.584 172.778,289.918 173.5,289.5 Z"
       id="path199" />
  </g>
  <g
     id="g200"
     style="fill:#ffffff">
    <path
       style="opacity:1;fill:#ffffff"
       fill="#151515"
       d="M 445.5,291.5 C 446.804,285.361 449.637,280.027 454,275.5C 453.537,277.526 452.704,279.526 451.5,281.5C 452.137,289.365 452.304,297.365 452,305.5C 456.046,300.056 459.546,294.389 462.5,288.5C 462.833,289.5 463.167,290.5 463.5,291.5C 463.096,293.224 462.929,294.891 463,296.5C 464.922,292.403 468.088,290.07 472.5,289.5C 473.003,295.882 473.837,302.215 475,308.5C 477.109,304.877 476.942,301.377 474.5,298C 477.212,295.993 478.712,296.826 479,300.5C 479.654,299.304 480.154,299.304 480.5,300.5C 478.568,305.677 478.068,311.011 479,316.5C 480.917,311.999 482.251,307.332 483,302.5C 483.414,302.043 483.914,301.709 484.5,301.5C 484.912,307.018 485.745,312.685 487,318.5C 490.471,309.902 493.638,301.235 496.5,292.5C 497.251,293.376 497.751,294.376 498,295.5C 498.514,302.352 498.847,309.018 499,315.5C 499.906,312.879 500.406,313.046 500.5,316C 500.219,318.292 499.552,320.458 498.5,322.5C 497.914,322.291 497.414,321.957 497,321.5C 496.667,314.5 496.333,307.5 496,300.5C 492.963,307.329 490.296,314.329 488,321.5C 487.845,323.856 487.845,326.189 488,328.5C 487.311,329.357 486.478,330.023 485.5,330.5C 484.252,327.494 484.252,324.494 485.5,321.5C 485.167,321.167 484.833,320.833 484.5,320.5C 484.167,321.167 483.833,321.833 483.5,322.5C 481.674,327.212 481.007,331.712 481.5,336C 473.108,336.453 464.775,337.286 456.5,338.5C 456.343,337.127 456.51,335.793 457,334.5C 459.772,330.059 462.106,325.392 464,320.5C 471.847,312.485 473.68,303.151 469.5,292.5C 468.548,294.045 468.215,295.712 468.5,297.5C 467.178,297.67 466.011,297.337 465,296.5C 462.123,300.418 459.623,304.585 457.5,309C 456.223,309.127 455.057,308.627 454,307.5C 452.147,309.685 449.98,311.518 447.5,313C 447.957,313.414 448.291,313.914 448.5,314.5C 444.892,318.853 443.892,323.687 445.5,329C 444.259,332.043 442.925,331.876 441.5,328.5C 439.675,329.571 438.508,328.904 438,326.5C 436.607,330.488 434.773,334.154 432.5,337.5C 431.228,336.954 429.894,336.621 428.5,336.5C 421.75,337.107 415.083,338.107 408.5,339.5C 410.318,334.523 412.152,329.523 414,324.5C 417.522,321.734 420.855,318.734 424,315.5C 426.257,311.317 428.257,306.984 430,302.5C 430.986,296.633 429.486,291.633 425.5,287.5C 427.265,291.073 427.598,294.74 426.5,298.5C 425.914,298.291 425.414,297.957 425,297.5C 424.471,294.053 423.638,290.719 422.5,287.5C 421.467,284.562 419.967,281.895 418,279.5C 417.536,280.094 417.369,280.761 417.5,281.5C 417.89,288.252 415.39,293.586 410,297.5C 410.685,293.066 411.519,288.566 412.5,284C 412.045,280.719 411.211,277.552 410,274.5C 409.743,286.155 407.743,297.489 404,308.5C 403.417,310.002 402.584,311.335 401.5,312.5C 400.35,309.253 399.517,305.92 399,302.5C 396.721,306.724 394.721,311.057 393,315.5C 392.506,313.866 392.34,312.199 392.5,310.5C 393.152,309.551 393.486,308.385 393.5,307C 393.392,305.319 392.725,304.152 391.5,303.5C 392.369,298.761 393.536,294.094 395,289.5C 395.333,294.5 395.667,299.5 396,304.5C 397.767,298.537 399.1,292.537 400,286.5C 400.147,289.11 400.981,291.444 402.5,293.5C 400.51,296.889 400.01,300.556 401,304.5C 401.893,305.711 402.726,305.711 403.5,304.5C 407.192,293.076 408.192,281.409 406.5,269.5C 407.897,265.765 409.897,265.098 412.5,267.5C 412.167,268.167 411.833,268.833 411.5,269.5C 412.896,274.102 414.063,278.769 415,283.5C 415.667,279.167 415.667,274.833 415,270.5C 414.033,269.322 413.533,267.989 413.5,266.5C 414.002,265.479 414.668,265.312 415.5,266C 417.121,269.709 418.621,273.542 420,277.5C 421.507,278.505 422.673,279.838 423.5,281.5C 424.517,278.972 425.684,278.972 427,281.5C 430.328,287.817 432.661,294.484 434,301.5C 435.823,295.656 436.99,289.656 437.5,283.5C 439.715,284.821 441.382,286.654 442.5,289C 441.578,292.475 441.412,296.309 442,300.5C 442.505,297.135 443.672,294.135 445.5,291.5 Z"
       id="path200" />
  </g>
  <g
     id="g201"
     style="fill:#ffffff">
    <path
       style="opacity:1;fill:#ffffff"
       fill="#b4b4b4"
       d="M 425.5,287.5 C 424.152,286.473 423.652,285.14 424,283.5C 425.188,284.563 425.688,285.897 425.5,287.5 Z"
       id="path201" />
  </g>
  <g
     id="g202"
     style="fill:#ffffff">
    <path
       style="opacity:1;fill:#ffffff"
       fill="#8e8e8e"
       d="M 422.5,287.5 C 420.376,285.941 418.709,283.941 417.5,281.5C 417.369,280.761 417.536,280.094 418,279.5C 419.967,281.895 421.467,284.562 422.5,287.5 Z"
       id="path202" />
  </g>
  <g
     id="g203"
     style="fill:#ffffff">
    <path
       style="opacity:1;fill:#ffffff"
       fill="#202020"
       d="M 504.5,301.5 C 505.647,296.559 507.48,291.892 510,287.5C 510.413,290.232 511.08,292.899 512,295.5C 512.436,289.648 513.436,283.981 515,278.5C 514.546,286.809 514.546,295.142 515,303.5C 516.547,306.158 516.38,308.825 514.5,311.5C 513.776,305.162 511.943,299.162 509,293.5C 507.74,296.359 506.24,299.026 504.5,301.5 Z"
       id="path203" />
  </g>
  <g
     id="g204"
     style="fill:#ffffff">
    <path
       style="opacity:1;fill:#ffffff"
       fill="#212121"
       d="M 391.5,303.5 C 392.725,304.152 393.392,305.319 393.5,307C 393.486,308.385 393.152,309.551 392.5,310.5C 392.66,308.801 392.494,307.134 392,305.5C 390.483,309.234 388.816,312.901 387,316.5C 385.261,318.741 383.094,320.408 380.5,321.5C 379.522,321.023 378.689,320.357 378,319.5C 376.023,314.255 374.356,308.922 373,303.5C 372.51,304.793 372.343,306.127 372.5,307.5C 372.167,307.5 371.833,307.5 371.5,307.5C 371.338,300.653 373.338,294.653 377.5,289.5C 379.61,284.941 381.943,280.608 384.5,276.5C 384.833,276.667 385.167,276.833 385.5,277C 381.949,283.27 378.782,289.77 376,296.5C 375.42,302.774 376.42,308.774 379,314.5C 380.53,303.174 384.363,292.84 390.5,283.5C 390.833,283.667 391.167,283.833 391.5,284C 389.873,286.754 388.373,289.588 387,292.5C 386.976,300.289 386.143,307.955 384.5,315.5C 384.846,316.696 385.346,316.696 386,315.5C 387.246,311.131 389.079,307.131 391.5,303.5 Z"
       id="path204" />
  </g>
  <g
     id="g205"
     style="fill:#ffffff">
    <path
       style="opacity:1;fill:#ffffff"
       fill="#eeeeee"
       d="M 448.5,306.5 C 445.947,311.938 443.113,317.271 440,322.5C 439.667,322.167 439.333,321.833 439,321.5C 437.426,322.984 436.093,324.651 435,326.5C 434.685,325.092 435.018,323.759 436,322.5C 441.225,318.05 443.725,312.383 443.5,305.5C 445.225,302.375 446.725,299.042 448,295.5C 448.499,299.152 448.665,302.818 448.5,306.5 Z"
       id="path205" />
  </g>
  <g
     id="g206"
     style="fill:#ffffff">
    <path
       style="opacity:1;fill:#ffffff"
       fill="#cacaca"
       d="M 458.5,300.5 C 458.709,299.078 459.209,297.745 460,296.5C 460.773,298.352 460.273,299.686 458.5,300.5 Z"
       id="path206" />
  </g>
  <g
     id="g207"
     style="fill:#ffffff">
    <path
       style="opacity:1;fill:#ffffff"
       fill="#e9e9e9"
       d="M 438.5,298.5 C 439.647,302.646 439.814,306.98 439,311.5C 436.667,313.5 434.333,315.5 432,317.5C 434.095,311.274 436.261,304.94 438.5,298.5 Z"
       id="path207" />
  </g>
  <g
     id="g208"
     style="fill:#ffffff">
    <path
       style="opacity:1;fill:#ffffff"
       fill="#848484"
       d="M 173.5,289.5 C 173.833,289.5 174.167,289.5 174.5,289.5C 174.133,295.172 173.633,300.839 173,306.5C 172.809,304.292 172.309,302.292 171.5,300.5C 172.349,296.899 173.016,293.232 173.5,289.5 Z"
       id="path208" />
  </g>
  <g
     id="g209"
     style="fill:#ffffff">
    <path
       style="opacity:1;fill:#ffffff"
       fill="#dfdfdf"
       d="M 383.5,299.5 C 384.817,304.845 384.317,310.178 382,315.5C 382.165,310.172 382.665,304.838 383.5,299.5 Z"
       id="path209" />
  </g>
  <g
     id="g210"
     style="fill:#ffffff">
    <path
       style="opacity:1;fill:#ffffff"
       fill="#c1c1c1"
       d="M 448.5,306.5 C 448.665,302.818 448.499,299.152 448,295.5C 446.725,299.042 445.225,302.375 443.5,305.5C 442.903,305.265 442.57,304.765 442.5,304C 443.816,299.89 444.816,295.724 445.5,291.5C 446.935,289.402 448.102,287.069 449,284.5C 449.463,291.908 449.297,299.241 448.5,306.5 Z"
       id="path210" />
  </g>
  <g
     id="g211"
     style="fill:#ffffff">
    <path
       style="opacity:1;fill:#ffffff"
       fill="#1f1f1f"
       d="M 177.5,299.5 C 177.833,299.5 178.167,299.5 178.5,299.5C 178.789,302.649 178.289,305.649 177,308.5C 176.51,307.207 176.343,305.873 176.5,304.5C 176.629,302.784 176.962,301.117 177.5,299.5 Z"
       id="path211" />
  </g>
  <g
     id="g212"
     style="fill:#ffffff">
    <path
       style="opacity:1;fill:#ffffff"
       fill="#dadada"
       d="M 458.5,300.5 C 458.251,302.936 457.251,304.936 455.5,306.5C 455.167,306.167 454.833,305.833 454.5,305.5C 455.612,303.581 456.946,301.914 458.5,300.5 Z"
       id="path212" />
  </g>
  <g
     id="g213"
     style="fill:#ffffff">
    <path
       style="opacity:1;fill:#ffffff"
       fill="#757575"
       d="M 176.5,298.5 C 176.5,299.167 176.833,299.5 177.5,299.5C 176.962,301.117 176.629,302.784 176.5,304.5C 175.167,302.5 175.167,300.5 176.5,298.5 Z"
       id="path213" />
  </g>
  <g
     id="g214"
     style="fill:#ffffff">
    <path
       style="opacity:1;fill:#ffffff"
       fill="#333333"
       d="M 191.5,318.5 C 190.662,318.842 190.328,319.508 190.5,320.5C 189.666,314.99 189.5,309.324 190,303.5C 185.487,310.208 182.654,317.541 181.5,325.5C 180.986,321.496 181.486,317.496 183,313.5C 184.037,307.606 183.371,301.939 181,296.5C 180.623,297.942 179.79,298.942 178.5,299.5C 179.031,296.763 179.864,294.096 181,291.5C 181.333,291.833 181.667,292.167 182,292.5C 183.792,297.367 185.125,302.367 186,307.5C 188.273,302.606 191.273,298.273 195,294.5C 194.071,297.735 193.071,301.068 192,304.5C 191.501,309.155 191.334,313.821 191.5,318.5 Z"
       id="path214" />
  </g>
  <g
     id="g215"
     style="fill:#ffffff">
    <path
       style="opacity:1;fill:#ffffff"
       fill="#e4e4e4"
       d="M 429.5,311.5 C 429.202,308.664 429.869,308.164 431.5,310C 430.956,310.717 430.289,311.217 429.5,311.5 Z"
       id="path215" />
  </g>
  <g
     id="g216"
     style="fill:#ffffff">
    <path
       style="opacity:1;fill:#ffffff"
       fill="#2a2a2a"
       d="M 504.5,301.5 C 503.423,304.526 503.423,307.526 504.5,310.5C 504,311.5 503.5,312.5 503,313.5C 502.306,312.182 501.473,311.349 500.5,311C 501.618,307.629 502.951,304.462 504.5,301.5 Z"
       id="path216" />
  </g>
  <g
     id="g217"
     style="fill:#ffffff">
    <path
       style="opacity:1;fill:#ffffff"
       fill="#1a1a1a"
       d="M 370.5,308.5 C 371.473,310.948 371.806,313.615 371.5,316.5C 371.519,318.06 371.852,319.56 372.5,321C 372.387,322.28 371.72,323.113 370.5,323.5C 366.829,320.154 364.162,316.154 362.5,311.5C 361.135,318.211 360.802,324.877 361.5,331.5C 358.041,330.564 355.207,328.564 353,325.5C 351.421,322.006 349.587,318.673 347.5,315.5C 346.817,315.863 346.15,316.196 345.5,316.5C 346.985,311.214 349.152,306.214 352,301.5C 350.172,305.214 349.505,309.214 350,313.5C 351.914,318.335 354.581,322.669 358,326.5C 357.956,316.388 360.623,307.054 366,298.5C 366.2,301.284 365.366,303.784 363.5,306C 364.668,310.168 366.501,314.002 369,317.5C 370.149,314.607 370.649,311.607 370.5,308.5 Z"
       id="path217" />
  </g>
  <g
     id="g218"
     style="fill:#ffffff">
    <path
       style="opacity:1;fill:#ffffff"
       fill="#767676"
       d="M 370.5,308.5 C 370.5,307.833 370.833,307.5 371.5,307.5C 371.833,307.5 372.167,307.5 372.5,307.5C 372.81,310.713 372.477,313.713 371.5,316.5C 371.806,313.615 371.473,310.948 370.5,308.5 Z"
       id="path218" />
  </g>
  <g
     id="g219"
     style="fill:#ffffff">
    <path
       style="opacity:1;fill:#ffffff"
       fill="#1d1d1d"
       d="M 283.5,323.5 C 286.408,317.437 290.241,312.104 295,307.5C 294.983,309.568 293.983,311.234 292,312.5C 291.73,315.224 291.23,317.891 290.5,320.5C 291.5,321.5 292.5,322.5 293.5,323.5C 297.195,319.474 300.862,315.474 304.5,311.5C 305.521,312.002 305.688,312.668 305,313.5C 301.684,316.135 299.184,319.301 297.5,323C 297.961,326.554 299.294,329.72 301.5,332.5C 304.23,326.936 306.73,321.27 309,315.5C 310.763,312.98 312.763,310.647 315,308.5C 314.08,311.146 312.58,313.646 310.5,316C 313.388,319.222 315.888,322.722 318,326.5C 317.494,317.535 317.827,308.535 319,299.5C 319.419,298.328 320.085,297.328 321,296.5C 319.563,305.704 319.229,315.038 320,324.5C 322.22,329.384 325.22,333.718 329,337.5C 329.808,339.579 329.641,341.579 328.5,343.5C 322.189,335.355 315.689,327.355 309,319.5C 305.844,325.814 303.844,332.481 303,339.5C 302.311,340.357 301.478,341.023 300.5,341.5C 299.711,338.095 298.711,334.761 297.5,331.5C 295.612,333.794 294.278,336.461 293.5,339.5C 292.675,340.386 291.675,340.719 290.5,340.5C 293.231,326.875 291.231,326.042 284.5,338C 283.275,338.563 282.275,338.23 281.5,337C 285.549,331.42 287.716,325.254 288,318.5C 286.483,320.24 284.983,321.906 283.5,323.5 Z"
       id="path219" />
  </g>
  <g
     id="g220"
     style="fill:#ffffff">
    <path
       style="opacity:1;fill:#ffffff"
       fill="#959595"
       d="M 429.5,311.5 C 429.539,312.756 429.039,313.756 428,314.5C 427.415,313.002 427.915,312.002 429.5,311.5 Z"
       id="path220" />
  </g>
  <g
     id="g221"
     style="fill:#ffffff">
    <path
       style="opacity:1;fill:#ffffff"
       fill="#161616"
       d="M 345.5,316.5 C 343.752,324.154 341.085,331.487 337.5,338.5C 336.522,338.023 335.689,337.357 335,336.5C 334.667,337.167 334.333,337.833 334,338.5C 325.42,331.808 321.253,323.142 321.5,312.5C 323.435,319.487 326.602,325.82 331,331.5C 332.755,326.369 333.921,321.035 334.5,315.5C 335.086,315.709 335.586,316.043 336,316.5C 336.708,312.751 337.708,309.084 339,305.5C 339.893,304.289 340.726,304.289 341.5,305.5C 336.288,314.657 334.788,324.324 337,334.5C 339.944,328.475 342.777,322.475 345.5,316.5 Z"
       id="path221" />
  </g>
  <g
     id="g222"
     style="fill:#ffffff">
    <path
       style="opacity:1;fill:#ffffff"
       fill="#e0e0e0"
       d="M 482.5,311.5 C 483.629,313.628 483.796,315.961 483,318.5C 481.833,321.833 480.667,325.167 479.5,328.5C 476.081,325.125 472.081,322.792 467.5,321.5C 468.123,319.289 469.123,317.289 470.5,315.5C 471.452,316.533 471.452,317.7 470.5,319C 471.01,320.826 471.844,320.993 473,319.5C 473.895,317.196 474.729,314.862 475.5,312.5C 476.327,316.459 476.827,320.459 477,324.5C 477.667,323.833 478.333,323.167 479,322.5C 479.474,318.578 480.641,314.912 482.5,311.5 Z"
       id="path222" />
  </g>
  <g
     id="g223"
     style="fill:#ffffff">
    <path
       style="opacity:1;fill:#ffffff"
       fill="#0d0d0d"
       d="M 197.5,321.5 C 198.404,322.209 198.737,323.209 198.5,324.5C 197.56,328.463 197.393,332.463 198,336.5C 201.298,339.457 205.131,341.457 209.5,342.5C 210.984,341.533 211.984,340.2 212.5,338.5C 213.338,338.842 213.672,339.508 213.5,340.5C 213.196,341.15 212.863,341.817 212.5,342.5C 214.387,344.888 215.054,347.388 214.5,350C 204.803,349.902 195.137,350.736 185.5,352.5C 185.196,348.785 185.863,345.285 187.5,342C 185.231,341.242 183.064,341.409 181,342.5C 180.056,341.737 179.556,340.737 179.5,339.5C 183.946,333.608 187.612,327.274 190.5,320.5C 190.328,319.508 190.662,318.842 191.5,318.5C 193.257,317.708 194.591,316.375 195.5,314.5C 196.223,316.164 195.89,317.831 194.5,319.5C 194.846,320.696 195.346,320.696 196,319.5C 196.333,320.833 196.667,322.167 197,323.5C 197.464,322.906 197.631,322.239 197.5,321.5 Z"
       id="path223" />
  </g>
  <g
     id="g224"
     style="fill:#ffffff">
    <path
       style="opacity:1;fill:#ffffff"
       fill="#191919"
       d="M 283.5,323.5 C 280.701,330.397 278.201,337.397 276,344.5C 275.627,342.302 275.127,340.135 274.5,338C 278.432,332.368 279.432,326.201 277.5,319.5C 273.626,328.954 270.46,338.621 268,348.5C 266.739,342.58 265.739,336.58 265,330.5C 264.275,328.051 263.275,325.717 262,323.5C 260.095,326.971 257.928,330.304 255.5,333.5C 256.428,334.768 256.595,336.101 256,337.5C 255.667,336.833 255.333,336.167 255,335.5C 254.74,337.618 253.74,339.284 252,340.5C 253.199,335.226 254.199,329.893 255,324.5C 251.724,330.108 248.057,335.442 244,340.5C 243.743,337.983 244.41,335.65 246,333.5C 247.324,329.554 247.991,325.554 248,321.5C 245.142,327.852 241.309,333.519 236.5,338.5C 235.417,337.635 235.251,336.635 236,335.5C 239.742,330.184 242.242,324.35 243.5,318C 242.833,317.833 242.167,317.667 241.5,317.5C 239.236,317.904 237.07,317.904 235,317.5C 230.083,323.668 227.083,330.668 226,338.5C 225,337.167 224,337.167 223,338.5C 222.333,337.833 221.667,337.167 221,336.5C 220.781,337.938 220.281,339.271 219.5,340.5C 218.167,339.5 216.833,338.5 215.5,337.5C 214.824,338.602 214.158,339.602 213.5,340.5C 213.672,339.508 213.338,338.842 212.5,338.5C 213.777,336.852 214.777,335.018 215.5,333C 217.113,332.911 218.28,333.745 219,335.5C 220.043,333.299 220.877,330.966 221.5,328.5C 222.427,330.113 223.261,331.779 224,333.5C 224.333,329.5 224.667,325.5 225,321.5C 226.163,323.285 226.83,325.285 227,327.5C 228.667,323.5 230.333,319.5 232,315.5C 232.667,314.167 233.333,314.167 234,315.5C 235.351,313.981 236.851,312.648 238.5,311.5C 239.631,312.751 240.964,313.751 242.5,314.5C 243.863,313.802 245.029,313.802 246,314.5C 245.468,317.114 245.135,319.78 245,322.5C 248.432,318.636 251.099,314.302 253,309.5C 251.791,316.543 250.458,323.543 249,330.5C 252.782,325.576 256.282,320.576 259.5,315.5C 258.503,319.137 258.003,322.804 258,326.5C 260.95,319.907 263.95,312.907 267,305.5C 266.584,310.014 265.75,314.514 264.5,319C 266.377,324.712 267.877,330.545 269,336.5C 272.81,329.237 275.31,321.57 276.5,313.5C 277.5,313.5 278.5,313.5 279.5,313.5C 279.89,316.839 280.39,320.173 281,323.5C 281.77,324.598 282.603,324.598 283.5,323.5 Z"
       id="path224" />
  </g>
  <g
     id="g225"
     style="fill:#ffffff">
    <path
       style="opacity:1;fill:#ffffff"
       fill="#1d1d1d"
       d="M 259.5,315.5 C 260.045,313.407 260.878,311.407 262,309.5C 262.542,312.082 261.708,314.082 259.5,315.5 Z"
       id="path225" />
  </g>
  <g
     id="g226"
     style="fill:#ffffff">
    <path
       style="opacity:1;fill:#ffffff"
       fill="#bdbdbd"
       d="M 442.5,320.5 C 443.097,320.735 443.43,321.235 443.5,322C 443,323.5 442.5,325 442,326.5C 441.322,324.402 441.489,322.402 442.5,320.5 Z"
       id="path226" />
  </g>
  <g
     id="g227"
     style="fill:#ffffff">
    <path
       style="opacity:1;fill:#ffffff"
       fill="#c8c8c8"
       d="M 420.5,324.5 C 418.027,324.053 417.86,323.053 420,321.5C 420.483,322.448 420.649,323.448 420.5,324.5 Z"
       id="path227" />
  </g>
  <g
     id="g228"
     style="fill:#ffffff">
    <path
       style="opacity:1;fill:#ffffff"
       fill="#dddddd"
       d="M 420.5,324.5 C 421.908,323.939 423.408,323.605 425,323.5C 427.599,324.776 430.099,325.442 432.5,325.5C 428.319,326.464 424.319,326.131 420.5,324.5 Z"
       id="path228" />
  </g>
  <g
     id="g229"
     style="fill:#ffffff">
    <path
       style="opacity:1;fill:#ffffff"
       fill="#d6d6d6"
       d="M 289.5,323.5 C 292.188,326.216 291.688,328.55 288,330.5C 288.437,328.243 288.937,325.91 289.5,323.5 Z"
       id="path229" />
  </g>
  <g
     id="g230"
     style="fill:#ffffff">
    <path
       style="opacity:1;fill:#ffffff"
       fill="#f4f4f4"
       d="M 466.5,325.5 C 468.655,325.372 470.655,325.872 472.5,327C 474.208,329.043 476.208,330.71 478.5,332C 474.767,333.127 470.934,333.961 467,334.5C 466.056,333.737 465.556,332.737 465.5,331.5C 466.156,329.547 466.489,327.547 466.5,325.5 Z"
       id="path230" />
  </g>
  <g
     id="g231"
     style="fill:#ffffff">
    <path
       style="opacity:1;fill:#ffffff"
       fill="#b8b8b8"
       d="M 463.5,325.5 C 464.239,325.369 464.906,325.536 465.5,326C 464.072,328.783 462.738,331.617 461.5,334.5C 461.167,334.333 460.833,334.167 460.5,334C 461.423,331.14 462.423,328.307 463.5,325.5 Z"
       id="path231" />
  </g>
  <g
     id="g232"
     style="fill:#ffffff">
    <path
       style="opacity:1;fill:#ffffff"
       fill="#dadada"
       d="M 420.5,329.5 C 424.61,329.255 428.944,329.255 433.5,329.5C 433.378,333.838 433.045,334.172 432.5,330.5C 429.577,331.453 426.744,331.786 424,331.5C 422.887,330.695 421.721,330.028 420.5,329.5 Z"
       id="path232" />
  </g>
  <g
     id="g233"
     style="fill:#ffffff">
    <path
       style="opacity:1;fill:#ffffff"
       fill="#ebebeb"
       d="M 191.5,344.5 C 190.915,341.739 191.915,340.073 194.5,339.5C 198.832,342.26 203.499,344.427 208.5,346C 204.137,346.29 199.804,346.79 195.5,347.5C 194.833,347.167 194.167,346.833 193.5,346.5C 196.161,341.156 195.495,340.489 191.5,344.5 Z"
       id="path233" />
  </g>
  <g
     id="g234"
     style="fill:#ffffff">
    <path
       style="opacity:1;fill:#ffffff"
       fill="#eaeaea"
       d="M 191.5,344.5 C 191.688,346.103 191.188,347.437 190,348.5C 189.652,346.86 190.152,345.527 191.5,344.5 Z"
       id="path234" />
  </g>
</svg>
