<?xml version="1.0" encoding="UTF-8" standalone="no"?>
<!DOCTYPE svg PUBLIC "-//W3C//DTD SVG 1.1//EN"
 "http://www.w3.org/Graphics/SVG/1.1/DTD/svg11.dtd">
<!-- Generated by graphviz version 2.43.0 (0)
 -->
<!-- Title: ICON Pages: 1 -->
<svg width="1024pt" height="637pt"
 viewBox="0.00 0.00 1024.00 637.34" xmlns="http://www.w3.org/2000/svg" xmlns:xlink="http://www.w3.org/1999/xlink">
<g id="graph0" class="graph" transform="scale(1 1) rotate(0) translate(4 633.34)">
<title>ICON</title>
<g id="clust1" class="cluster">
<title>clusterMain</title>
<polygon fill="transparent" stroke="transparent" points="8,-97.74 8,-621.34 1008,-621.34 1008,-97.74 8,-97.74"/>
</g>
<g id="clust22" class="cluster">
<title>clusterLegend</title>
<polygon fill="transparent" stroke="black" points="92,-8 92,-77.74 913,-77.74 913,-8 92,-8"/>
</g>
<!-- ICON -->
<g id="node1" class="node">
<title>ICON</title>
<polygon fill="white" stroke="black" stroke-width="2" points="503.5,-613.34 438.5,-613.34 438.5,-577.34 503.5,-577.34 503.5,-613.34"/>
<text text-anchor="middle" x="471" y="-590.34" font-family="Times,serif" font-size="20.00">ICON</text>
</g>
<!-- STDC++ -->
<g id="node2" class="node">
<title>STDC++</title>
<ellipse fill="#79c547" stroke="black" cx="100" cy="-379.34" rx="44.39" ry="18"/>
<text text-anchor="middle" x="100" y="-375.64" font-family="Times,serif" font-size="14.00">STDC++</text>
</g>
<!-- ICON&#45;&gt;STDC++ -->
<g id="edge1" class="edge">
<title>ICON&#45;&gt;STDC++</title>
<path fill="none" stroke="black" d="M438.45,-593.15C359.62,-589.73 160.99,-577.63 107,-541.34 99.73,-536.45 104.4,-529.04 97,-524.34"/>
<path fill="none" stroke="black" d="M97,-522.34C89.6,-517.64 93.17,-511.57 87,-505.34 59.53,-477.63 13.03,-491.16 17,-452.34"/>
</g>
<!-- CUDA -->
<g id="node3" class="node">
<title>CUDA</title>
<ellipse fill="#79c547" stroke="black" cx="72" cy="-451.34" rx="36" ry="18"/>
<text text-anchor="middle" x="72" y="-447.64" font-family="Times,serif" font-size="14.00">CUDA</text>
</g>
<!-- ICON&#45;&gt;CUDA -->
<g id="edge2" class="edge">
<title>ICON&#45;&gt;CUDA</title>
<path fill="none" stroke="black" d="M97,-522.34C93.05,-519.83 85.56,-497.72 79.8,-479.01"/>
<polygon fill="black" stroke="black" points="83.14,-477.95 76.9,-469.39 76.44,-479.97 83.14,-477.95"/>
</g>
<!-- ROCm -->
<g id="node4" class="node">
<title>ROCm</title>
<ellipse fill="#79c547" stroke="black" cx="152" cy="-523.34" rx="36.29" ry="18"/>
<text text-anchor="middle" x="152" y="-519.64" font-family="Times,serif" font-size="14.00">ROCm</text>
</g>
<!-- ICON&#45;&gt;ROCm -->
<g id="edge3" class="edge">
<title>ICON&#45;&gt;ROCm</title>
<path fill="none" stroke="black" d="M438.33,-587.48C391.18,-577.54 301.31,-558.44 225,-541.34 215,-539.1 204.25,-536.63 194.15,-534.28"/>
<polygon fill="black" stroke="black" points="194.85,-530.85 184.32,-531.99 193.26,-537.67 194.85,-530.85"/>
</g>
<!-- MPI -->
<g id="node5" class="node">
<title>MPI</title>
<ellipse fill="#79c547" stroke="black" cx="653" cy="-163.34" rx="27" ry="18"/>
<text text-anchor="middle" x="653" y="-159.64" font-family="Times,serif" font-size="14.00">MPI</text>
</g>
<!-- ICON&#45;&gt;MPI -->
<g id="edge4" class="edge">
<title>ICON&#45;&gt;MPI</title>
<path fill="none" stroke="black" d="M979,-450.34C993.15,-413.14 979.74,-399.67 969,-361.34 966.93,-353.97 916.23,-241.93 911,-236.34"/>
<path fill="none" stroke="black" d="M911,-234.34C880.84,-202.06 752.82,-179.07 689.2,-169.41"/>
<polygon fill="black" stroke="black" points="689.61,-165.94 679.2,-167.93 688.58,-172.86 689.61,-165.94"/>
</g>
<!-- ZLIB -->
<g id="node6" class="node">
<title>ZLIB</title>
<ellipse fill="#79c547" stroke="black" cx="911" cy="-163.34" rx="30.59" ry="18"/>
<text text-anchor="middle" x="911" y="-159.64" font-family="Times,serif" font-size="14.00">ZLIB</text>
</g>
<!-- ICON&#45;&gt;ZLIB -->
<g id="edge5" class="edge">
<title>ICON&#45;&gt;ZLIB</title>
<path fill="none" stroke="black" d="M911,-234.34C900.45,-223.05 900.38,-205.71 902.98,-191.11"/>
<polygon fill="black" stroke="black" points="906.46,-191.62 905.24,-181.09 899.63,-190.08 906.46,-191.62"/>
</g>
<!-- HDF5 -->
<g id="node7" class="node">
<title>HDF5</title>
<ellipse fill="#79c547" stroke="black" cx="609" cy="-235.34" rx="32.49" ry="18"/>
<text text-anchor="middle" x="609" y="-231.64" font-family="Times,serif" font-size="14.00">HDF5</text>
</g>
<!-- ICON&#45;&gt;HDF5 -->
<g id="edge6" class="edge">
<title>ICON&#45;&gt;HDF5</title>
<path fill="none" stroke="black" d="M448,-522.34C451.05,-514.12 451.1,-510.75 458,-505.34 501.81,-470.97 544.76,-514.01 578,-469.34 626.29,-404.44 518.37,-363.36 551,-289.34 556.96,-275.81 568.27,-264.24 579.33,-255.39"/>
<polygon fill="black" stroke="black" points="581.74,-257.96 587.65,-249.17 577.54,-252.36 581.74,-257.96"/>
</g>
<!-- NetCDF&#45;Fortran -->
<g id="node8" class="node">
<title>NetCDF&#45;Fortran</title>
<ellipse fill="#47a1f1" stroke="black" cx="890" cy="-379.34" rx="69.59" ry="18"/>
<text text-anchor="middle" x="890" y="-375.64" font-family="Times,serif" font-size="14.00">NetCDF&#45;Fortran</text>
</g>
<!-- ICON&#45;&gt;NetCDF&#45;Fortran -->
<g id="edge7" class="edge">
<title>ICON&#45;&gt;NetCDF&#45;Fortran</title>
<path fill="none" stroke="black" d="M503.55,-590.95C564.36,-584.09 692.3,-566.99 728,-541.34 743.04,-530.53 733.81,-515.94 749,-505.34 835.03,-445.32 941.71,-550.39 979,-452.34"/>
<path fill="none" stroke="black" d="M979,-450.34C987.89,-426.96 965.96,-409.53 941.64,-397.91"/>
<polygon fill="black" stroke="black" points="942.83,-394.6 932.27,-393.74 939.98,-401 942.83,-394.6"/>
</g>
<!-- RTE+RRTMGP -->
<g id="node9" class="node">
<title>RTE+RRTMGP</title>
<polygon fill="#79c547" stroke="black" points="356.5,-541.34 249.5,-541.34 249.5,-505.34 356.5,-505.34 356.5,-541.34"/>
<text text-anchor="middle" x="303" y="-519.64" font-family="Times,serif" font-size="14.00">RTE+RRTMGP</text>
</g>
<!-- ICON&#45;&gt;RTE+RRTMGP -->
<g id="edge8" class="edge">
<title>ICON&#45;&gt;RTE+RRTMGP</title>
<path fill="none" stroke="black" d="M438.21,-580.68C414.12,-570.64 380.95,-556.82 353.49,-545.38"/>
<polygon fill="black" stroke="black" points="354.62,-542.05 344.04,-541.44 351.92,-548.52 354.62,-542.05"/>
</g>
<!-- ECRAD -->
<g id="node10" class="node">
<title>ECRAD</title>
<polygon fill="#79c547" stroke="black" points="719,-541.34 657,-541.34 657,-505.34 719,-505.34 719,-541.34"/>
<text text-anchor="middle" x="688" y="-519.64" font-family="Times,serif" font-size="14.00">ECRAD</text>
</g>
<!-- ICON&#45;&gt;ECRAD -->
<g id="edge9" class="edge">
<title>ICON&#45;&gt;ECRAD</title>
<path fill="none" stroke="black" d="M503.65,-585.73C537.48,-576.56 591.99,-561.07 647.12,-541.48"/>
<polygon fill="black" stroke="black" points="648.46,-544.71 656.69,-538.04 646.09,-538.13 648.46,-544.71"/>
</g>
<!-- BLAS -->
<g id="node11" class="node">
<title>BLAS</title>
<ellipse fill="#47a1f1" stroke="black" cx="749" cy="-379.34" rx="33.29" ry="18"/>
<text text-anchor="middle" x="749" y="-375.64" font-family="Times,serif" font-size="14.00">BLAS</text>
</g>
<!-- ICON&#45;&gt;BLAS -->
<g id="edge10" class="edge">
<title>ICON&#45;&gt;BLAS</title>
<path fill="none" stroke="black" d="M540,-522.34C547.55,-517.89 542.72,-510.23 550,-505.34 642.83,-443.01 725.81,-553.87 799,-469.34 816.9,-448.67 795.06,-420.59 774.88,-401.53"/>
<polygon fill="black" stroke="black" points="777.09,-398.81 767.32,-394.71 772.4,-404.01 777.09,-398.81"/>
</g>
<!-- LAPACK -->
<g id="node12" class="node">
<title>LAPACK</title>
<ellipse fill="#47a1f1" stroke="black" cx="874" cy="-451.34" rx="46.29" ry="18"/>
<text text-anchor="middle" x="874" y="-447.64" font-family="Times,serif" font-size="14.00">LAPACK</text>
</g>
<!-- ICON&#45;&gt;LAPACK -->
<g id="edge11" class="edge">
<title>ICON&#45;&gt;LAPACK</title>
<path fill="none" stroke="black" d="M540,-522.34C547.55,-517.89 542.7,-510.2 550,-505.34 648.58,-439.72 698.08,-493.54 814,-469.34 818.97,-468.3 824.14,-467.07 829.26,-465.76"/>
<polygon fill="black" stroke="black" points="830.23,-469.12 838.99,-463.15 828.42,-462.36 830.23,-469.12"/>
</g>
<!-- RTTOV -->
<g id="node13" class="node">
<title>RTTOV</title>
<ellipse fill="#79c547" stroke="black" cx="599" cy="-523.34" rx="40.09" ry="18"/>
<text text-anchor="middle" x="599" y="-519.64" font-family="Times,serif" font-size="14.00">RTTOV</text>
</g>
<!-- ICON&#45;&gt;RTTOV -->
<g id="edge12" class="edge">
<title>ICON&#45;&gt;RTTOV</title>
<path fill="none" stroke="black" d="M502.31,-577.22C521.48,-566.73 546,-553.33 565.54,-542.64"/>
<polygon fill="black" stroke="black" points="567.32,-545.65 574.42,-537.78 563.96,-539.51 567.32,-545.65"/>
</g>
<!-- SCT -->
<g id="node14" class="node">
<title>SCT</title>
<polygon fill="#79c547" stroke="black" points="491,-325.34 437,-325.34 437,-289.34 491,-289.34 491,-325.34"/>
<text text-anchor="middle" x="464" y="-303.64" font-family="Times,serif" font-size="14.00">SCT</text>
</g>
<!-- ICON&#45;&gt;SCT -->
<g id="edge13" class="edge">
<title>ICON&#45;&gt;SCT</title>
<path fill="none" stroke="black" d="M230,-522.34C228.15,-513.53 233.64,-510.52 241,-505.34 298.11,-465.1 340.39,-514.12 394,-469.34 415.51,-451.37 442.24,-376.13 455.59,-335.17"/>
<polygon fill="black" stroke="black" points="458.95,-336.15 458.69,-325.56 452.29,-334 458.95,-336.15"/>
</g>
<!-- YAXT -->
<g id="node15" class="node">
<title>YAXT</title>
<polygon fill="#79c547" stroke="black" points="569,-469.34 515,-469.34 515,-433.34 569,-433.34 569,-469.34"/>
<text text-anchor="middle" x="542" y="-447.64" font-family="Times,serif" font-size="14.00">YAXT</text>
</g>
<!-- ICON&#45;&gt;YAXT -->
<g id="edge14" class="edge">
<title>ICON&#45;&gt;YAXT</title>
<path fill="none" stroke="black" d="M458.83,-577.24C450.25,-562.99 441.38,-542.21 448,-524.34"/>
<path fill="none" stroke="black" d="M448,-522.34C451.05,-514.12 451.9,-511.63 458,-505.34 471.64,-491.26 489.74,-479.24 505.63,-470.22"/>
<polygon fill="black" stroke="black" points="507.6,-473.13 514.69,-465.26 504.24,-466.99 507.6,-473.13"/>
</g>
<!-- ECCODES -->
<g id="node16" class="node">
<title>ECCODES</title>
<ellipse fill="#79c547" stroke="black" cx="334" cy="-451.34" rx="50.89" ry="18"/>
<text text-anchor="middle" x="334" y="-447.64" font-family="Times,serif" font-size="14.00">ECCODES</text>
</g>
<!-- ICON&#45;&gt;ECCODES -->
<g id="edge15" class="edge">
<title>ICON&#45;&gt;ECCODES</title>
<path fill="none" stroke="black" d="M230,-522.34C226.63,-506.32 263.14,-484.95 293.81,-470.06"/>
<polygon fill="black" stroke="black" points="295.56,-473.1 303.1,-465.66 292.56,-466.78 295.56,-473.1"/>
</g>
<!-- CDI -->
<g id="node17" class="node">
<title>CDI</title>
<polygon fill="#47a1f1" stroke="black" points="429,-541.34 375,-541.34 375,-505.34 429,-505.34 429,-541.34"/>
<text text-anchor="middle" x="402" y="-519.64" font-family="Times,serif" font-size="14.00">CDI</text>
</g>
<!-- ICON&#45;&gt;CDI -->
<g id="edge16" class="edge">
<title>ICON&#45;&gt;CDI</title>
<path fill="none" stroke="black" d="M453.94,-577.04C445.5,-568.48 435.18,-558 425.96,-548.64"/>
<polygon fill="black" stroke="black" points="428.37,-546.11 418.86,-541.44 423.39,-551.02 428.37,-546.11"/>
</g>
<!-- SERIALBOX -->
<g id="node18" class="node">
<title>SERIALBOX</title>
<ellipse fill="#79c547" stroke="black" cx="206" cy="-451.34" rx="59.59" ry="18"/>
<text text-anchor="middle" x="206" y="-447.64" font-family="Times,serif" font-size="14.00">SERIALBOX</text>
</g>
<!-- ICON&#45;&gt;SERIALBOX -->
<g id="edge17" class="edge">
<title>ICON&#45;&gt;SERIALBOX</title>
<path fill="none" stroke="black" d="M438.19,-594.3C390.57,-592.68 301.39,-583.68 241,-541.34 233.63,-536.17 231.85,-533.15 230,-524.34"/>
<path fill="none" stroke="black" d="M230,-522.34C226.91,-507.66 221.65,-491.8 216.84,-478.9"/>
<polygon fill="black" stroke="black" points="219.98,-477.34 213.12,-469.27 213.45,-479.86 219.98,-477.34"/>
</g>
<!-- MTIME -->
<g id="node19" class="node">
<title>MTIME</title>
<polygon fill="#47a1f1" stroke="black" points="789.5,-469.34 726.5,-469.34 726.5,-433.34 789.5,-433.34 789.5,-469.34"/>
<text text-anchor="middle" x="758" y="-447.64" font-family="Times,serif" font-size="14.00">MTIME</text>
</g>
<!-- ICON&#45;&gt;MTIME -->
<g id="edge18" class="edge">
<title>ICON&#45;&gt;MTIME</title>
<path fill="none" stroke="black" d="M493.26,-577.14C505.01,-567.41 519.19,-554.56 530,-541.34 535.55,-534.55 532.45,-528.79 540,-524.34"/>
<path fill="none" stroke="black" d="M540,-522.34C547.55,-517.89 542.89,-510.47 550,-505.34 609.38,-462.49 642.42,-489.91 716.58,-469.35"/>
<polygon fill="black" stroke="black" points="717.75,-472.66 726.33,-466.45 715.75,-465.95 717.75,-472.66"/>
</g>
<!-- YAC -->
<g id="node20" class="node">
<title>YAC</title>
<polygon fill="#79c547" stroke="black" points="521,-541.34 467,-541.34 467,-505.34 521,-505.34 521,-541.34"/>
<text text-anchor="middle" x="494" y="-519.64" font-family="Times,serif" font-size="14.00">YAC</text>
</g>
<!-- ICON&#45;&gt;YAC -->
<g id="edge19" class="edge">
<title>ICON&#45;&gt;YAC</title>
<path fill="none" stroke="black" d="M476.69,-577.04C479.25,-569.24 482.33,-559.85 485.18,-551.17"/>
<polygon fill="black" stroke="black" points="488.58,-552.04 488.38,-541.44 481.93,-549.85 488.58,-552.04"/>
</g>
<!-- ICON&#45;TIXI -->
<g id="node21" class="node">
<title>ICON&#45;TIXI</title>
<polygon fill="#79c547" stroke="black" points="838.5,-541.34 757.5,-541.34 757.5,-505.34 838.5,-505.34 838.5,-541.34"/>
<text text-anchor="middle" x="798" y="-519.64" font-family="Times,serif" font-size="14.00">ICON&#45;TIXI</text>
</g>
<!-- ICON&#45;&gt;ICON&#45;TIXI -->
<g id="edge20" class="edge">
<title>ICON&#45;&gt;ICON&#45;TIXI</title>
<path fill="none" stroke="black" d="M503.91,-589.1C555.31,-580.66 657.61,-562.79 743,-541.34 744.45,-540.97 745.93,-540.59 747.41,-540.2"/>
<polygon fill="black" stroke="black" points="748.59,-543.51 757.29,-537.46 746.72,-536.76 748.59,-543.51"/>
</g>
<!-- COMIN -->
<g id="node22" class="node">
<title>COMIN</title>
<polygon fill="#79c547" stroke="black" points="78,-541.34 16,-541.34 16,-505.34 78,-505.34 78,-541.34"/>
<text text-anchor="middle" x="47" y="-519.64" font-family="Times,serif" font-size="14.00">COMIN</text>
</g>
<!-- ICON&#45;&gt;COMIN -->
<g id="edge21" class="edge">
<title>ICON&#45;&gt;COMIN</title>
<path fill="none" stroke="black" d="M438.33,-592.23C372.12,-587.41 217.69,-573.44 92,-541.34 90.73,-541.01 89.44,-540.66 88.14,-540.29"/>
<polygon fill="black" stroke="black" points="88.78,-536.82 78.19,-537.14 86.66,-543.5 88.78,-536.82"/>
</g>
<!-- FORTRAN&#45;SUPPORT -->
<g id="node23" class="node">
<title>FORTRAN&#45;SUPPORT</title>
<polygon fill="#47a1f1" stroke="black" points="999.5,-541.34 856.5,-541.34 856.5,-505.34 999.5,-505.34 999.5,-541.34"/>
<text text-anchor="middle" x="928" y="-519.64" font-family="Times,serif" font-size="14.00">FORTRAN&#45;SUPPORT</text>
</g>
<!-- ICON&#45;&gt;FORTRAN&#45;SUPPORT -->
<g id="edge22" class="edge">
<title>ICON&#45;&gt;FORTRAN&#45;SUPPORT</title>
<path fill="none" stroke="black" d="M503.65,-590.53C567.56,-582.9 713.86,-564.61 846.18,-541.6"/>
<polygon fill="black" stroke="black" points="846.84,-545.04 856.09,-539.87 845.63,-538.15 846.84,-545.04"/>
</g>
<!-- CUDA&#45;&gt;STDC++ -->
<g id="edge23" class="edge">
<title>CUDA&#45;&gt;STDC++</title>
<path fill="none" stroke="black" d="M78.78,-433.4C81.93,-425.52 85.75,-415.96 89.28,-407.13"/>
<polygon fill="black" stroke="black" points="92.63,-408.2 93.09,-397.62 86.13,-405.6 92.63,-408.2"/>
</g>
<!-- ROCm&#45;&gt;STDC++ -->
<g id="edge24" class="edge">
<title>ROCm&#45;&gt;STDC++</title>
<path fill="none" stroke="black" d="M145.83,-505.49C136.88,-481.05 120.2,-435.51 109.63,-406.63"/>
<polygon fill="black" stroke="black" points="112.89,-405.35 106.16,-397.17 106.31,-407.76 112.89,-405.35"/>
</g>
<!-- ROCm&#45;&gt;CUDA -->
<g id="edge25" class="edge">
<title>ROCm&#45;&gt;CUDA</title>
<path fill="none" stroke="black" d="M134.64,-507.15C123.56,-497.45 109.02,-484.73 96.74,-473.98"/>
<polygon fill="black" stroke="black" points="98.88,-471.21 89.05,-467.26 94.27,-476.48 98.88,-471.21"/>
</g>
<!-- HDF5&#45;&gt;MPI -->
<g id="edge26" class="edge">
<title>HDF5&#45;&gt;MPI</title>
<path fill="none" stroke="black" d="M619.21,-218.1C624.59,-209.53 631.32,-198.83 637.35,-189.24"/>
<polygon fill="black" stroke="black" points="640.49,-190.82 642.85,-180.49 634.57,-187.09 640.49,-190.82"/>
</g>
<!-- HDF5&#45;&gt;ZLIB -->
<g id="edge27" class="edge">
<title>HDF5&#45;&gt;ZLIB</title>
<path fill="none" stroke="black" d="M636.28,-225.39C645.08,-222.64 654.91,-219.72 664,-217.34 737.09,-198.24 823.65,-180.85 872.46,-171.51"/>
<polygon fill="black" stroke="black" points="873.11,-174.95 882.28,-169.65 871.8,-168.08 873.11,-174.95"/>
</g>
<!-- AEC / SZIP -->
<g id="node24" class="node">
<title>AEC / SZIP</title>
<ellipse fill="#def1d1" stroke="black" cx="460" cy="-163.34" rx="53.89" ry="18"/>
<text text-anchor="middle" x="460" y="-159.64" font-family="Times,serif" font-size="14.00">AEC / SZIP</text>
</g>
<!-- HDF5&#45;&gt;AEC / SZIP -->
<g id="edge28" class="edge">
<title>HDF5&#45;&gt;AEC / SZIP</title>
<path fill="none" stroke="black" d="M585.06,-223.09C561.95,-212.24 526.56,-195.61 499.32,-182.81"/>
<polygon fill="black" stroke="black" points="500.59,-179.54 490.05,-178.46 497.62,-185.88 500.59,-179.54"/>
</g>
<!-- NetCDF&#45;C -->
<g id="node25" class="node">
<title>NetCDF&#45;C</title>
<ellipse fill="#d1e8fc" stroke="black" cx="609" cy="-307.34" rx="49.29" ry="18"/>
<text text-anchor="middle" x="609" y="-303.64" font-family="Times,serif" font-size="14.00">NetCDF&#45;C</text>
</g>
<!-- NetCDF&#45;Fortran&#45;&gt;NetCDF&#45;C -->
<g id="edge29" class="edge">
<title>NetCDF&#45;Fortran&#45;&gt;NetCDF&#45;C</title>
<path fill="none" stroke="black" d="M841.69,-366.31C790.5,-353.55 710.07,-333.52 658.44,-320.66"/>
<polygon fill="black" stroke="black" points="659.07,-317.21 648.52,-318.19 657.38,-324 659.07,-317.21"/>
</g>
<!-- ECRAD&#45;&gt;NetCDF&#45;Fortran -->
<g id="edge30" class="edge">
<title>ECRAD&#45;&gt;NetCDF&#45;Fortran</title>
<path fill="none" stroke="black" d="M719.22,-509.67C723.79,-508.07 728.49,-506.57 733,-505.34 778.9,-492.88 913.32,-505.69 944,-469.34 961.26,-448.89 940.48,-422.32 919.9,-403.55"/>
<polygon fill="black" stroke="black" points="921.94,-400.69 912.1,-396.77 917.35,-405.97 921.94,-400.69"/>
</g>
<!-- LAPACK&#45;&gt;BLAS -->
<g id="edge31" class="edge">
<title>LAPACK&#45;&gt;BLAS</title>
<path fill="none" stroke="black" d="M848.7,-436.17C828.94,-425.11 801.38,-409.67 780.24,-397.84"/>
<polygon fill="black" stroke="black" points="781.76,-394.67 771.32,-392.84 778.34,-400.78 781.76,-394.67"/>
</g>
<!-- RTTOV&#45;&gt;HDF5 -->
<g id="edge32" class="edge">
<title>RTTOV&#45;&gt;HDF5</title>
<path fill="none" stroke="black" d="M628.51,-511C634.87,-508.87 641.6,-506.84 648,-505.34 770.57,-476.55 823.91,-538.68 929,-469.34 936.32,-464.51 937.05,-460.89 939,-452.34"/>
<path fill="none" stroke="black" d="M939,-450.34C940.95,-441.79 935.88,-438.77 929,-433.34 885.94,-399.39 853.64,-431.81 811,-397.34 796.77,-385.83 803.32,-374.88 791,-361.34 746.95,-312.9 680.66,-273.46 641.42,-252.56"/>
<polygon fill="black" stroke="black" points="643.01,-249.45 632.53,-247.9 639.76,-255.65 643.01,-249.45"/>
</g>
<!-- RTTOV&#45;&gt;NetCDF&#45;Fortran -->
<g id="edge33" class="edge">
<title>RTTOV&#45;&gt;NetCDF&#45;Fortran</title>
<path fill="none" stroke="black" d="M939,-450.34C942.99,-432.81 932.22,-416.18 919.77,-403.54"/>
<polygon fill="black" stroke="black" points="922.03,-400.87 912.34,-396.58 917.24,-405.97 922.03,-400.87"/>
</g>
<!-- RTTOV&#45;&gt;LAPACK -->
<g id="edge34" class="edge">
<title>RTTOV&#45;&gt;LAPACK</title>
<path fill="none" stroke="black" d="M629.14,-511.25C635.33,-509.15 641.84,-507.07 648,-505.34 720.68,-484.93 740.76,-487.64 814,-469.34 818.68,-468.17 823.54,-466.9 828.39,-465.58"/>
<polygon fill="black" stroke="black" points="829.54,-468.9 838.25,-462.87 827.68,-462.15 829.54,-468.9"/>
</g>
<!-- SCT&#45;&gt;MPI -->
<g id="edge35" class="edge">
<title>SCT&#45;&gt;MPI</title>
<path fill="none" stroke="black" d="M473.67,-289.1C482.3,-274.39 495.74,-253.04 510,-236.34"/>
<path fill="none" stroke="black" d="M510,-234.34C538.1,-201.43 585.31,-182.59 617.75,-172.92"/>
<polygon fill="black" stroke="black" points="619.05,-176.19 627.72,-170.1 617.15,-169.46 619.05,-176.19"/>
</g>
<!-- SCT&#45;&gt;HDF5 -->
<g id="edge36" class="edge">
<title>SCT&#45;&gt;HDF5</title>
<path fill="none" stroke="black" d="M491.27,-293.17C515.28,-281.58 550.3,-264.68 575.9,-252.32"/>
<polygon fill="black" stroke="black" points="577.73,-255.32 585.21,-247.82 574.68,-249.02 577.73,-255.32"/>
</g>
<!-- YAXT&#45;&gt;MPI -->
<g id="edge37" class="edge">
<title>YAXT&#45;&gt;MPI</title>
<path fill="none" stroke="black" d="M533.97,-433.03C522.58,-406.46 503.79,-353.91 510,-308.34"/>
</g>
<!-- ECCODES&#45;&gt;AEC / SZIP -->
<g id="edge38" class="edge">
<title>ECCODES&#45;&gt;AEC / SZIP</title>
<path fill="none" stroke="black" d="M362.32,-436.15C381.71,-424.36 404.82,-405.46 410,-380.34"/>
<path fill="none" stroke="black" d="M410,-378.34C418.15,-338.81 418.99,-328.68 428,-289.34 435.74,-255.52 445.83,-216.87 452.59,-191.61"/>
<polygon fill="black" stroke="black" points="456.05,-192.23 455.27,-181.66 449.29,-190.41 456.05,-192.23"/>
</g>
<!-- CDI&#45;&gt;MPI -->
<g id="edge39" class="edge">
<title>CDI&#45;&gt;MPI</title>
<path fill="none" stroke="black" d="M424,-450.34C437.81,-415.77 455.22,-414.51 470,-380.34"/>
<path fill="none" stroke="black" d="M470,-378.34C473.13,-371.11 471.6,-368.44 475,-361.34 487.19,-335.88 506.73,-336.38 510,-308.34"/>
<path fill="none" stroke="black" d="M510,-306.34C513.6,-275.44 489.8,-260 510,-236.34"/>
</g>
<!-- CDI&#45;&gt;YAXT -->
<g id="edge40" class="edge">
<title>CDI&#45;&gt;YAXT</title>
<path fill="none" stroke="black" d="M429.33,-508.68C451.1,-497.79 481.79,-482.44 505.64,-470.52"/>
<polygon fill="black" stroke="black" points="507.36,-473.57 514.74,-465.97 504.23,-467.31 507.36,-473.57"/>
</g>
<!-- CDI&#45;&gt;ECCODES -->
<g id="edge41" class="edge">
<title>CDI&#45;&gt;ECCODES</title>
<path fill="none" stroke="black" d="M385.19,-505.04C376.63,-496.22 366.09,-485.37 356.8,-475.81"/>
<polygon fill="black" stroke="black" points="359.16,-473.22 349.68,-468.48 354.14,-478.1 359.16,-473.22"/>
</g>
<!-- CDI&#45;&gt;AEC / SZIP -->
<g id="edge42" class="edge">
<title>CDI&#45;&gt;AEC / SZIP</title>
<path fill="none" stroke="black" d="M406.63,-505.11C410.66,-490.79 416.96,-469.97 424,-452.34"/>
<path fill="none" stroke="black" d="M424,-450.34C435.77,-420.88 400.64,-410.66 410,-380.34"/>
</g>
<!-- CDI&#45;&gt;NetCDF&#45;C -->
<g id="edge43" class="edge">
<title>CDI&#45;&gt;NetCDF&#45;C</title>
<path fill="none" stroke="black" d="M424,-450.34C427.1,-442.14 428.08,-439.81 434,-433.34 456.52,-408.73 532.86,-357.58 576.92,-328.92"/>
<polygon fill="black" stroke="black" points="579.05,-331.71 585.54,-323.34 575.24,-325.84 579.05,-331.71"/>
</g>
<!-- PPM -->
<g id="node26" class="node">
<title>PPM</title>
<polygon fill="#def1d1" stroke="black" points="497,-469.34 443,-469.34 443,-433.34 497,-433.34 497,-469.34"/>
<text text-anchor="middle" x="470" y="-447.64" font-family="Times,serif" font-size="14.00">PPM</text>
</g>
<!-- CDI&#45;&gt;PPM -->
<g id="edge44" class="edge">
<title>CDI&#45;&gt;PPM</title>
<path fill="none" stroke="black" d="M418.81,-505.04C427.13,-496.48 437.31,-486 446.39,-476.64"/>
<polygon fill="black" stroke="black" points="448.93,-479.06 453.38,-469.44 443.91,-474.18 448.93,-479.06"/>
</g>
<!-- SERIALBOX&#45;&gt;STDC++ -->
<g id="edge45" class="edge">
<title>SERIALBOX&#45;&gt;STDC++</title>
<path fill="none" stroke="black" d="M182.21,-434.63C167.07,-424.63 147.3,-411.58 130.95,-400.78"/>
<polygon fill="black" stroke="black" points="132.53,-397.63 122.26,-395.04 128.68,-403.47 132.53,-397.63"/>
</g>
<!-- SERIALBOX&#45;&gt;NetCDF&#45;C -->
<g id="edge46" class="edge">
<title>SERIALBOX&#45;&gt;NetCDF&#45;C</title>
<path fill="none" stroke="black" d="M250.29,-439.24C310.46,-424.14 411.08,-398.82 415,-397.34 447.72,-384.96 453.34,-376.22 485,-361.34 512.31,-348.5 543.55,-335.16 567.84,-325.07"/>
<polygon fill="black" stroke="black" points="569.22,-328.29 577.13,-321.23 566.55,-321.82 569.22,-328.29"/>
</g>
<!-- YAC&#45;&gt;MPI -->
<g id="edge47" class="edge">
<title>YAC&#45;&gt;MPI</title>
<path fill="none" stroke="black" d="M697,-378.34C709.36,-310.04 681.57,-230.04 664.71,-189.96"/>
<polygon fill="black" stroke="black" points="667.87,-188.46 660.69,-180.67 661.45,-191.23 667.87,-188.46"/>
</g>
<!-- YAC&#45;&gt;LAPACK -->
<g id="edge48" class="edge">
<title>YAC&#45;&gt;LAPACK</title>
<path fill="none" stroke="black" d="M521.01,-510C525.61,-508.23 530.39,-506.59 535,-505.34 649.31,-474.41 682.48,-490.45 799,-469.34 807.78,-467.75 817.09,-465.83 826.05,-463.86"/>
<polygon fill="black" stroke="black" points="826.99,-467.24 835.98,-461.64 825.45,-460.41 826.99,-467.24"/>
</g>
<!-- YAC&#45;&gt;YAXT -->
<g id="edge49" class="edge">
<title>YAC&#45;&gt;YAXT</title>
<path fill="none" stroke="black" d="M505.87,-505.04C511.5,-496.81 518.35,-486.82 524.57,-477.76"/>
<polygon fill="black" stroke="black" points="527.5,-479.67 530.27,-469.44 521.73,-475.71 527.5,-479.67"/>
</g>
<!-- YAC&#45;&gt;MTIME -->
<g id="edge50" class="edge">
<title>YAC&#45;&gt;MTIME</title>
<path fill="none" stroke="black" d="M521.07,-510.23C525.66,-508.43 530.43,-506.72 535,-505.34 611.24,-482.28 636.77,-492.77 716.36,-469.51"/>
<polygon fill="black" stroke="black" points="717.78,-472.73 726.35,-466.5 715.76,-466.03 717.78,-472.73"/>
</g>
<!-- YAC&#45;&gt;NetCDF&#45;C -->
<g id="edge51" class="edge">
<title>YAC&#45;&gt;NetCDF&#45;C</title>
<path fill="none" stroke="black" d="M521.36,-509.49C546.48,-497.37 581.5,-479.58 593,-469.34 607.55,-456.38 604.12,-447 618,-433.34 648.14,-403.68 689.8,-422 697,-380.34"/>
<path fill="none" stroke="black" d="M697,-378.34C701.57,-353.07 678.21,-335.29 654.42,-323.97"/>
<polygon fill="black" stroke="black" points="655.55,-320.64 644.98,-319.8 652.72,-327.05 655.55,-320.64"/>
</g>
<!-- FYAML -->
<g id="node27" class="node">
<title>FYAML</title>
<ellipse fill="#d1e8fc" stroke="black" cx="668" cy="-451.34" rx="40.89" ry="18"/>
<text text-anchor="middle" x="668" y="-447.64" font-family="Times,serif" font-size="14.00">FYAML</text>
</g>
<!-- YAC&#45;&gt;FYAML -->
<g id="edge52" class="edge">
<title>YAC&#45;&gt;FYAML</title>
<path fill="none" stroke="black" d="M521.33,-510.95C525.89,-509.06 530.57,-507.14 535,-505.34 566.68,-492.46 602.73,-478.11 629.3,-467.6"/>
<polygon fill="black" stroke="black" points="630.62,-470.84 638.63,-463.91 628.05,-464.33 630.62,-470.84"/>
</g>
<!-- XML2 -->
<g id="node28" class="node">
<title>XML2</title>
<ellipse fill="#d1e8fc" stroke="black" cx="965" cy="-235.34" rx="35.19" ry="18"/>
<text text-anchor="middle" x="965" y="-231.64" font-family="Times,serif" font-size="14.00">XML2</text>
</g>
<!-- ICON&#45;TIXI&#45;&gt;XML2 -->
<g id="edge53" class="edge">
<title>ICON&#45;TIXI&#45;&gt;XML2</title>
<path fill="none" stroke="black" d="M838.58,-508.28C841.76,-507.26 844.93,-506.27 848,-505.34 907.86,-487.27 945.86,-518.89 984,-469.34 1031.16,-408.07 997.6,-308.94 977.35,-262.25"/>
<polygon fill="black" stroke="black" points="980.42,-260.55 973.14,-252.85 974.03,-263.41 980.42,-260.55"/>
</g>
<!-- COMIN&#45;&gt;STDC++ -->
<g id="edge54" class="edge">
<title>COMIN&#45;&gt;STDC++</title>
<path fill="none" stroke="black" d="M34.05,-505.31C25.07,-491.61 15.04,-471.54 17,-452.34"/>
<path fill="none" stroke="black" d="M17,-450.34C19.46,-426.33 40.22,-408.82 60.37,-397.32"/>
<polygon fill="black" stroke="black" points="62.03,-400.4 69.21,-392.61 58.74,-394.23 62.03,-400.4"/>
</g>
<!-- NetCDF&#45;C&#45;&gt;ZLIB -->
<g id="edge55" class="edge">
<title>NetCDF&#45;C&#45;&gt;ZLIB</title>
<path fill="none" stroke="black" d="M637.96,-292.72C694.46,-266.16 819.04,-207.58 878.36,-179.69"/>
<polygon fill="black" stroke="black" points="880.08,-182.75 887.64,-175.32 877.1,-176.41 880.08,-182.75"/>
</g>
<!-- NetCDF&#45;C&#45;&gt;HDF5 -->
<g id="edge56" class="edge">
<title>NetCDF&#45;C&#45;&gt;HDF5</title>
<path fill="none" stroke="black" d="M609,-289.04C609,-281.32 609,-272.05 609,-263.45"/>
<polygon fill="black" stroke="black" points="612.5,-263.44 609,-253.44 605.5,-263.44 612.5,-263.44"/>
</g>
<!-- PPM&#45;&gt;MPI -->
<g id="edge57" class="edge">
<title>PPM&#45;&gt;MPI</title>
<path fill="none" stroke="black" d="M466.32,-433.17C464.03,-418.51 462.72,-397.18 470,-380.34"/>
</g>
<!-- PPM&#45;&gt;NetCDF&#45;Fortran -->
<g id="edge58" class="edge">
<title>PPM&#45;&gt;NetCDF&#45;Fortran</title>
<path fill="none" stroke="black" d="M497.17,-436.42C500.1,-435.25 503.08,-434.19 506,-433.34 628.58,-397.64 664.72,-416.15 791,-397.34 801.83,-395.73 813.3,-393.88 824.45,-392.02"/>
<polygon fill="black" stroke="black" points="825.29,-395.43 834.57,-390.31 824.12,-388.52 825.29,-395.43"/>
</g>
<!-- XML2&#45;&gt;ZLIB -->
<g id="edge59" class="edge">
<title>XML2&#45;&gt;ZLIB</title>
<path fill="none" stroke="black" d="M952.75,-218.46C945.84,-209.51 937.08,-198.15 929.37,-188.16"/>
<polygon fill="black" stroke="black" points="932.08,-185.94 923.2,-180.16 926.54,-190.22 932.08,-185.94"/>
</g>
<!-- bottomNode -->
<!-- external -->
<g id="node30" class="node">
<title>external</title>
<ellipse fill="white" stroke="black" cx="147" cy="-42.87" rx="46.84" ry="26.74"/>
<text text-anchor="middle" x="147" y="-46.67" font-family="Times,serif" font-size="14.00">External</text>
<text text-anchor="middle" x="147" y="-31.67" font-family="Times,serif" font-size="14.00">packages</text>
</g>
<!-- bottomNode&#45;&gt;external -->
<!-- bundled -->
<g id="node31" class="node">
<title>bundled</title>
<polygon fill="white" stroke="black" points="278,-61.87 212,-61.87 212,-23.87 278,-23.87 278,-61.87"/>
<text text-anchor="middle" x="245" y="-46.67" font-family="Times,serif" font-size="14.00">Bundled</text>
<text text-anchor="middle" x="245" y="-31.67" font-family="Times,serif" font-size="14.00">packages</text>
</g>
<!-- external&#45;&gt;bundled -->
<!-- mandatoryIcon -->
<g id="node32" class="node">
<title>mandatoryIcon</title>
<polygon fill="#47a1f1" stroke="transparent" points="437.5,-61.87 296.5,-61.87 296.5,-23.87 437.5,-23.87 437.5,-61.87"/>
<text text-anchor="middle" x="367" y="-46.67" font-family="Times,serif" font-size="14.00">Immediate mandatory</text>
<text text-anchor="middle" x="367" y="-31.67" font-family="Times,serif" font-size="14.00">dependencies of ICON</text>
</g>
<!-- bundled&#45;&gt;mandatoryIcon -->
<!-- optionalIcon -->
<g id="node33" class="node">
<title>optionalIcon</title>
<polygon fill="#79c547" stroke="transparent" points="596.5,-61.87 455.5,-61.87 455.5,-23.87 596.5,-23.87 596.5,-61.87"/>
<text text-anchor="middle" x="526" y="-46.67" font-family="Times,serif" font-size="14.00">Immediate optional</text>
<text text-anchor="middle" x="526" y="-31.67" font-family="Times,serif" font-size="14.00">dependencies of ICON</text>
</g>
<!-- mandatoryIcon&#45;&gt;optionalIcon -->
<!-- mandatoryBundled -->
<g id="node34" class="node">
<title>mandatoryBundled</title>
<polygon fill="#d1e8fc" stroke="transparent" points="753,-69.37 615,-69.37 615,-16.37 753,-16.37 753,-69.37"/>
<text text-anchor="middle" x="684" y="-54.17" font-family="Times,serif" font-size="14.00">Immediate mandatory</text>
<text text-anchor="middle" x="684" y="-39.17" font-family="Times,serif" font-size="14.00">dependencies of</text>
<text text-anchor="middle" x="684" y="-24.17" font-family="Times,serif" font-size="14.00">the bundled packages</text>
</g>
<!-- optionalIcon&#45;&gt;mandatoryBundled -->
<!-- optionalBundled -->
<g id="node35" class="node">
<title>optionalBundled</title>
<polygon fill="#def1d1" stroke="transparent" points="905,-69.37 771,-69.37 771,-16.37 905,-16.37 905,-69.37"/>
<text text-anchor="middle" x="838" y="-54.17" font-family="Times,serif" font-size="14.00">Immediate optional</text>
<text text-anchor="middle" x="838" y="-39.17" font-family="Times,serif" font-size="14.00">dependencies of</text>
<text text-anchor="middle" x="838" y="-24.17" font-family="Times,serif" font-size="14.00">the bundled packages</text>
</g>
<!-- mandatoryBundled&#45;&gt;optionalBundled -->
</g>
</svg>
