<svg id="Ebene_1" data-name="Ebene 1" xmlns="http://www.w3.org/2000/svg" viewBox="0 0 195.09 69.19"><defs><style>.cls-1{fill:#005092;}</style></defs><path class="cls-1" d="M229.37,118.69h-1.45v7h.79v-6.33a.08.08,0,0,1,.08-.09.08.08,0,0,1,.07.05l1.69,6.37h.8l1.67-6.31a.1.1,0,0,1,.1-.06s.06,0,.06.08v6.29H234v-7H232.5l-1.44,5.4a.12.12,0,0,1-.12.1s-.07,0-.08-.09Zm-4.19-6v-2.32h2.44v-.89h-2.46v-2h3.34v-.85h-4.33v7h4.51v-.89Zm-2.75,6h-1v4.6a3,3,0,0,0,.44,1.76,2,2,0,0,0,1.62.82,2.26,2.26,0,0,0,1.75-.63,2.62,2.62,0,0,0,.62-1.87v-4.68H225v4.41a3.07,3.07,0,0,1-.21,1.29,1.22,1.22,0,0,1-1.06.6c-1.14,0-1.31-.91-1.31-1.66Zm-10.52-8.77a5.72,5.72,0,0,1,.28-1.67,1.26,1.26,0,0,1,1.14-.92c.77,0,1.09.61,1.17,1.29l.91-.17a2.33,2.33,0,0,0-.62-1.37,2,2,0,0,0-1.46-.57c-2,0-2.37,2-2.37,3.64,0,3.35,1.72,3.65,2.29,3.65a2.07,2.07,0,0,0,1.55-.6,2.42,2.42,0,0,0,.65-1.57l-.95-.17a2.11,2.11,0,0,1-.24,1,1.11,1.11,0,0,1-.93.53c-1.14,0-1.42-1.49-1.42-3m1.62,8.77h-5.05v.88h2v6.09h1v-6.09h2ZM206,113.22a2.71,2.71,0,0,0,1.6.55,2.07,2.07,0,0,0,1.51-.5,2,2,0,0,0,.68-1.57,1.82,1.82,0,0,0-.23-.94,2.47,2.47,0,0,0-1-.92l-1.39-.62a1.14,1.14,0,0,1-.76-1,1,1,0,0,1,1.07-.92c.81,0,1.11.47,1.43,1.12l.82-.49a2.33,2.33,0,0,0-2.25-1.48,1.87,1.87,0,0,0-2,1.8,2.11,2.11,0,0,0,.21,1,2.59,2.59,0,0,0,1.15.93l1.24.56c.73.33.85.74.85,1.06a1.13,1.13,0,0,1-1.22,1.12,1.69,1.69,0,0,1-1.61-1.25l-.84.52a2.9,2.9,0,0,0,.78,1.06m-2.37,5.47h-1.24v7h.8V121s0-1.09,0-1.29c0,0,0-.06.06-.1l0,0a14.78,14.78,0,0,0,.56,1.48l2,4.53H207v-7h-.8v4.12c0,.24,0,.6,0,1,0,.09,0,.56,0,.67s0,.1,0,.14h-.06c0-.11-.24-.66-.28-.79s-.29-.68-.29-.69Zm-3.2,0H196v7h4.52v-.88h-3.5v-2.33h2.44v-.88H197v-2h3.34Zm-5.21-4.91a2.26,2.26,0,0,0,1.75-.63,2.63,2.63,0,0,0,.61-1.87V106.6h-.87V111a3.14,3.14,0,0,1-.21,1.3,1.21,1.21,0,0,1-1.06.59c-1.14,0-1.31-.9-1.31-1.65V106.6h-1v4.59a3,3,0,0,0,.44,1.77,2,2,0,0,0,1.62.82m-2.78,6.63L189.64,125v.71h4.73v-.88h-2.22l-.7,0c-.1,0-.26,0-.37,0a.32.32,0,0,1-.16,0l0,0c0-.12,0-.13.2-.42.31-.45.56-.84,1-1.61l2.1-3.44v-.6h-4.46v.88h1.89c.29,0,.86,0,1,0a.86.86,0,0,1,.24,0,.11.11,0,0,1,.08.06.21.21,0,0,1-.06.1c-.05.08-.13.18-.18.25s-.2.29-.3.45m-4.68-7.73v-2.32h2.44v-.89h-2.46v-2H191v-.85h-4.34v7h4.52v-.89Zm-3.13,6h-1.24v7h.8V121s0-1.09,0-1.29c0,0,0-.06.06-.1s0,0,0,0,.31.9.56,1.48l2,4.53H188v-7h-.79v4.12c0,.24,0,.6,0,1,0,.09,0,.56,0,.67s0,.1,0,.14h-.06l-.29-.79s-.28-.68-.28-.69Zm-13.35,0h-1v7h1v-3.21h2.49v3.21h1v-7h-1v2.92h-2.49Zm-7.4,3.55c0,3.35,1.72,3.65,2.29,3.65a2.07,2.07,0,0,0,1.55-.6,2.49,2.49,0,0,0,.66-1.57l-1-.17a2.28,2.28,0,0,1-.25,1,1.07,1.07,0,0,1-.92.53c-1.15,0-1.43-1.49-1.43-3a5.59,5.59,0,0,1,.29-1.67,1.24,1.24,0,0,1,1.14-.91c.76,0,1.08.61,1.16,1.28l.91-.17a2.32,2.32,0,0,0-.62-1.37,2,2,0,0,0-1.45-.57c-2,0-2.38,2-2.38,3.64m-17.58,1.16,1-3.55s0,0,.05,0,0,0,0,0l1.1,3.55Zm.55-4.71-2.25,7h1l.44-1.45h2.75l.48,1.45h1l-2.36-7Zm-8.37,0H137v7h.78v-6.33a.09.09,0,0,1,.09-.09s.05,0,.06.05l1.7,6.37h.79l1.68-6.31a.08.08,0,0,1,.09-.06.07.07,0,0,1,.07.08v6.29H143v-7h-1.48l-1.44,5.4a.12.12,0,0,1-.11.1s-.07,0-.09-.09Zm-4.63,0v7h1v-7Zm-4.8,0h-1v7h4.18v-.88H129Zm-3.38,0-2.78,3.25,2.74,3.72h1.18v-.1L124,121.9l2.72-3.07v-.14Zm-3,0h-1v7h1Zm28.37-35-15.17-9.27a4.69,4.69,0,0,0-4.18-.13s-2.13,1.12-5,2.45a22.71,22.71,0,0,0-1.71-4.26A275.65,275.65,0,0,0,87,79.05a243.87,243.87,0,0,0-28.78,9.09,1.4,1.4,0,0,1-1.08-.07l-12.28-6.9c-.29-.16-.27-.4,0-.53,0,0,14.63-6.08,37.37-9.19a208.9,208.9,0,0,1,31.35-2A149.83,149.83,0,0,1,129.76,71a55.94,55.94,0,0,0-7.32-2.3c-5.67-7.21-15.56-12-26.84-12-13.2,0-24.53,6.57-29.37,15.91a262.23,262.23,0,0,0-25.76,7.08c-1.25.43-1.35,1.34-.22,2L55.42,91a5.14,5.14,0,0,0,4.25.27s2.16-1,5-2.14a22.33,22.33,0,0,0,1.59,3.82,279,279,0,0,0,37.94-6.55,171.89,171.89,0,0,0,28.88-10.17,1.21,1.21,0,0,1,1,.07l12.15,7.64c.28.17.26.43,0,.56,0,0-14.56,6.38-37.31,9.49a207.48,207.48,0,0,1-31.35,2,149.73,149.73,0,0,1-16.17-1.58,55.64,55.64,0,0,0,7.32,2.29c5.66,7.22,15.56,12,26.83,12,12.62,0,23.52-6,28.69-14.67a154.77,154.77,0,0,0,26.51-8.14c1.22-.52,1.29-1.52.16-2.21m3.29,38a9.6,9.6,0,0,1-1.58.06V119.5h1c1,0,1.6.36,1.6,1.18a1.07,1.07,0,0,1-1,1.07m2.3,3.91-1.83-3.22a1.79,1.79,0,0,0,1.49-1.86c0-.72-.41-1.89-2.36-1.89H151.7v7h1v-3.1h1.07l1.66,3.1Zm5.82-7H158v7h4.51v-.88h-3.5v-2.33h2.45v-.88H159v-2h3.33Zm8.82-36.8c0,.74-.05,1.92-.05,2.66,0,4.17-2,4.53-3.88,4.53H165.9v-14c2.54,0,3.58,0,4.5,1.33.74,1.07.79,2.88.79,5.48m4.8,3.64,0-3.7c0-4.88-.36-6.39-1.31-7.78-1.24-1.81-3.1-2.81-8.4-2.81h-5.26V93c3.58,0,6.68,0,7.3-.06A11.41,11.41,0,0,0,173,91.8c2.4-1.22,3-3.82,3-6.27m5.38,33.16H177v7h4.51v-.88h-3.49v-2.33h2.44v-.88H178v-2h3.33Zm.27-11.21a2,2,0,0,1,1.75.6,3.24,3.24,0,0,1,.55,2c0,1.3-.38,2.61-2,2.61h-.73v-5.2Zm.07-.88h-1.5v7h1.51c1.85,0,2.44-.79,2.74-1.33a4.32,4.32,0,0,0,.5-2.06c0-2.25-.94-3.58-3.25-3.58M180.33,93h4.86V71.24h-4.86Zm17.93,0-7.72-11.6,6.63-10.11h-5.24l-6.57,10.47L192.55,93Zm5.93,13.65h-5.06v.88h2v6.09h1v-6.09h2Zm7-29.12c0,1.18-.12,2.37-1.63,2.9-.68.24-1.09.24-3.79.24v-6c2.67,0,3.26,0,4,.27.94.35,1.42,1.09,1.42,2.6M216.69,93,212,83.31c3-.92,4.14-3,4.14-5.77,0-5.83-4.47-6.3-8-6.3h-7V93h4.7V84.08h1.6L211.51,93Zm1.88,27.73a1.07,1.07,0,0,1-1,1.07,9.55,9.55,0,0,1-1.58.06V119.5h1c1.05,0,1.6.36,1.6,1.18m-1.38-2h-2.14v7h1v-3.1h1.08l1.65,3.1h1.14l-1.82-3.22a1.8,1.8,0,0,0,1.49-1.86c0-.72-.42-1.89-2.37-1.89m3.65-9.17h-2.49V106.6h-1v7h1v-3.21h2.49v3.21h1v-7h-1ZM219.17,93h15.15v-4H225l9.29-13.82V71.24H219.89v4h8.87L219.17,89Zm14.45,15.47.82-.49a2.33,2.33,0,0,0-2.25-1.48,1.86,1.86,0,0,0-2,1.8,2,2,0,0,0,.21,1,2.59,2.59,0,0,0,1.15.93l1.23.56c.74.33.86.74.86,1.06a1.14,1.14,0,0,1-1.23,1.12,1.69,1.69,0,0,1-1.6-1.25l-.84.52a2.52,2.52,0,0,0,2.38,1.61,2.07,2.07,0,0,0,1.51-.5,2,2,0,0,0,.68-1.57,1.7,1.7,0,0,0-.24-.94,2.4,2.4,0,0,0-1-.92l-1.39-.62a1.13,1.13,0,0,1-.76-1,1,1,0,0,1,1.07-.92c.8,0,1.11.47,1.43,1.12" transform="translate(-39.46 -56.69)"/></svg>
