<?xml version="1.0" encoding="UTF-8" standalone="no"?>
<!-- Generator: Adobe Illustrator 28.1.0, SVG Export Plug-In . SVG Version: 6.00 Build 0)  -->

<svg
   version="1.1"
   x="0px"
   y="0px"
   viewBox="0 0 606.53 215.68"
   style="enable-background:new 0 0 606.53 215.68;"
   xml:space="preserve"
   id="svg134"
   sodipodi:docname="ICON_logo_white.svg"
   inkscape:version="1.3.2 (091e20e, 2023-11-25, custom)"
   xmlns:inkscape="http://www.inkscape.org/namespaces/inkscape"
   xmlns:sodipodi="http://sodipodi.sourceforge.net/DTD/sodipodi-0.dtd"
   xmlns="http://www.w3.org/2000/svg"
   xmlns:svg="http://www.w3.org/2000/svg"><defs
   id="defs134" /><sodipodi:namedview
   id="namedview134"
   pagecolor="#ffffff"
   bordercolor="#666666"
   borderopacity="1.0"
   inkscape:showpageshadow="2"
   inkscape:pageopacity="0.0"
   inkscape:pagecheckerboard="0"
   inkscape:deskcolor="#d1d1d1"
   inkscape:zoom="5.231398"
   inkscape:cx="303.26501"
   inkscape:cy="107.90615"
   inkscape:window-width="3840"
   inkscape:window-height="2066"
   inkscape:window-x="1909"
   inkscape:window-y="-11"
   inkscape:window-maximized="1"
   inkscape:current-layer="svg134" />
<style
   type="text/css"
   id="style1">
	.st0{fill:#00131D;}
	.st1{display:none;}
	.st2{display:inline;fill:#36A9E1;}
</style>
<g
   id="Ebene_1"
   style="fill:#ffffff">
	<g
   id="g3"
   style="fill:#ffffff">
		<path
   class="st0"
   d="M21.19,194.26V21.41H42.7v172.85H21.19z"
   id="path1"
   style="fill:#ffffff" />
		<path
   class="st0"
   d="M67.83,107.96c0-53.12,39.13-89.4,88.11-89.4c31.36,0,52.61,14.77,66.34,34.21l-18.14,10.11    c-9.85-14.51-27.73-25.14-48.2-25.14c-37.06,0-65.82,29.02-65.82,70.23c0,40.94,28.76,70.23,65.82,70.23    c20.47,0,38.35-10.37,48.2-25.14l18.4,10.11c-14.51,19.69-35.24,34.21-66.6,34.21C106.96,197.37,67.83,161.09,67.83,107.96z"
   id="path2"
   style="fill:#ffffff" />
		<path
   class="st0"
   d="M564.51,194.26L463.71,54.84v139.42H442.2V21.41h22.03l99.51,136.57V21.41h21.51v172.85H564.51z"
   id="path3"
   style="fill:#ffffff" />
	</g>
	<g
   id="g133"
   style="fill:#ffffff">
		<g
   id="g132"
   style="fill:#ffffff">
			<path
   class="st0"
   d="M235.89,125.1c0,0,5.15,16.83,4.52,15.07c-0.02-0.02,2.77,7.94,3.96,7.64c0.9-0.35,0.35-2.01,0.34-2.02     c0.12-0.19,0.31-0.43,0.46-0.6c-0.02-0.11-0.06-0.26-0.08-0.36c0.1,0.06,0.23,0.14,0.33,0.2c0.26-0.04,0.26-0.03,0.26-0.03     c0,0,0,0,0,0c0,0,0,0,0,0c0,0,0,0,0,0s0,0,0,0c0,0,0,0,0,0c0,0,0,0,0,0c0,0,0,0,0,0c-0.02-0.11-0.05-0.26-0.07-0.37     c0.1-0.04,0.24-0.1,0.35-0.15c0.1,0.07,0.22,0.15,0.32,0.22c0.14-0.17,0.16-0.12,0.18-0.06c0.07,0.09,0.16,0.21,0.22,0.3     c0.08-0.18,0.23-0.41,0.39-0.53l-0.17-0.44c-0.49-1.7,0.06-4.77,0.07-4.78c-0.15-0.5-0.22-1.02-0.28-1.54l-7.83-9.22     C238.86,128.44,235.87,125.05,235.89,125.1z"
   id="path4"
   style="fill:#ffffff" />
			<path
   class="st0"
   d="M246.17,133.1c-0.01-0.47-0.03-0.95-0.1-1.42c0.18,0.2,0.38,0.52,0.5,0.76c0.19-0.62,0.19-0.62,2.19-5.02     c-0.07-0.81-0.07-0.81-0.04-1.25c0-0.21-0.09-0.49-0.21-0.66c0.15-1.79-0.94-3.61-0.95-3.62c-0.36-0.1-0.36-0.19-0.36-0.28     c-0.06-0.1-0.14-0.23-0.2-0.33c-0.12,0.03-0.28,0.06-0.4,0.09c-0.08-0.55-0.08-0.55-0.5-1.69c-0.69-0.93-1.16-2.03-1.8-3     l-6.86,6.18L246.17,133.1z"
   id="path5"
   style="fill:#ffffff" />
			<path
   class="st0"
   d="M242.21,115.14c-0.1-0.05-0.23-0.1-0.33-0.15c0.07-0.39-0.07-0.79,0.01-1.18c-0.13-0.35-0.16-0.38-0.19-0.4     c0.06-0.48,0.07-0.53-0.45-1.41c-0.13-0.33-0.13-0.42-0.12-0.52c-0.21-0.23-0.21-0.23-0.53-1.14c-0.1-0.07-0.24-0.17-0.34-0.24     c-0.38,0.31-0.51,0.78-0.78,1.16c-0.17-0.15-0.33-0.44-0.17-0.27c0.23-0.14,0.24-0.2,0.24-0.27c0.07-0.15,0.15-0.35,0.27-0.46     c0.02-0.39,0.02-0.79,0.07-1.18c-0.01-0.12-0.01-0.15,0-0.18c-0.09-0.08-0.2-0.18-0.29-0.25c0.01-0.23-0.05-0.54-0.14-0.75     c-0.18,0.6-0.05-0.22,0-0.46c-0.02,0.02-0.03-0.01-0.05-0.05l-1.88,11.98L242.21,115.14z"
   id="path6"
   style="fill:#ffffff" />
			<path
   class="st0"
   d="M238.57,96.14c-0.04,0.01-0.06,0.05-0.07,0.1c-0.15-0.18-0.31-0.45-0.39-0.67     c-0.06,0.12-0.13,0.27-0.19,0.39c0.16-1.18,0.17-1.22-0.03-2.17c-0.1,0.26-0.21,0.61-0.28,0.88c-0.03-0.32-0.03-0.32-0.03-0.32     s0,0,0,0l-0.04,0.06c0.02-0.09,0.04-0.18,0.06-0.28c0.05-0.13,0.11-0.3,0.18-0.42c0.32-1.07,0.36-3.04,0.08-3.57     c-0.02,0.03-0.06,0.06-0.08,0.09c-0.04-0.12-0.09-0.27-0.13-0.39c0.34-0.21,0.34-0.21,0.6-0.97c0.02-0.11,0.02-0.14,0.03-0.17     l-0.1-0.11c0-0.12,0.01-0.27,0.01-0.39c-0.08-0.14-0.08-0.16-0.09-0.18c0.29-1.49,0.29-1.49,0.26-1.6     c-0.15-0.14-0.16-0.11-0.16-0.08c-0.1,0.04-0.12,0.1-0.13,0.16c-0.22-1.11,0.78-4.92,0.79-4.96c-0.29,0.83-0.6,1.93-0.6,1.94     l-0.01,0.03c-2.22,8.15-2.76,14.25-2.94,16.25c-0.37,7.71-0.47,9.86-0.11,14.63l0.29,1.35L238.57,96.14z"
   id="path7"
   style="fill:#ffffff" />
			<path
   class="st0"
   d="M238.92,81.22c0.02-0.06,0.04-0.12,0.05-0.18c0.05-0.19,0.11-0.37,0.17-0.55c-0.13,0.35-0.22,0.71-0.33,1.06     l0,0c0,0.01-0.01,0.02-0.01,0.03c0.03-0.09,0.05-0.18,0.08-0.26c-0.01,0.03-0.02,0.06-0.03,0.09     C238.89,81.35,238.9,81.28,238.92,81.22z"
   id="path8"
   style="fill:#ffffff" />
			<path
   class="st0"
   d="M306.83,33.05c0-0.05,0.08-0.07,0.05-0.13c0,0-0.03-0.05-0.18-0.11c-0.05-0.02-0.07-0.02-0.11-0.02     c-0.04,0.01-0.08,0.06-0.12,0.05c-0.03-0.01-0.04-0.01-0.05,0c-0.03,0.01-0.04,0.04-0.07,0.05c0.19,0.05,0.3,0.07,0.45,0.16     C306.81,33.04,306.83,33.05,306.83,33.05z"
   id="path9"
   style="fill:#ffffff" />
			<path
   class="st0"
   d="M307.78,35.62c0.17-0.01,0.32,0.07,0.49,0.06c0.38-0.03,0.38-0.03,0.7-0.25c0.01-0.01,0.02-0.02,0.03-0.02     c0.08-0.01,0.16,0.03,0.24,0.03c0.01-0.01,0.02-0.02,0.03-0.03c0.02-0.02,0.05-0.05,0.07-0.07c0,0,0,0,0,0s0,0,0,0c0,0,0,0,0,0     c0,0,0,0,0,0c0,0,0,0,0,0c0,0,0,0,0,0c0,0,0,0,0,0c0.02,0.01,0.05,0.02,0.07,0.03c0,0.01,0,0.03,0,0.04     c0.02,0.01,0.04,0.03,0.05,0.05c0.05,0.08,0.24,0.04,0.28-0.13c0.02-0.01,0.05-0.01,0.08-0.02c-0.03-0.03-0.03-0.03-0.09-0.07     c0.02-0.02,0.05-0.05,0.08-0.05c0.17-0.03,0.19-0.14,0.2-0.24c-0.01-0.01-0.02-0.02-0.03-0.03c-0.09,0.02-0.09,0.02-0.13,0.01     c0.01-0.02,0.02-0.06,0.02-0.08c-0.22-0.06-0.22-0.06-0.35-0.06c0.32-0.19,0.32-0.19,0.38-0.25c-0.02-0.02-0.02-0.02-0.09-0.06     c0.12-0.1,0.12-0.1,0.14-0.13c0.2,0,0.2,0,0.46-0.08c-0.63-0.02-0.63-0.02-0.65-0.04c0.08-0.27,0.08-0.27,0.08-0.3     c-0.1-0.03-0.2-0.03-0.29-0.04c-0.36,0.27-0.36,0.27-0.56,0.21c0.02-0.02,0.03-0.05,0.04-0.07c-0.01-0.01-0.01-0.03-0.02-0.04     c-0.13-0.05-0.25,0.05-0.37,0.01c-0.23,0.05-0.26,0.05-0.3-0.18c-0.1,0.1-0.22,0.19-0.31,0.3c-0.04-0.15-0.1-0.31,0.12-0.32     c0.04-0.03,0.08-0.06,0.11-0.1c-0.1-0.04-0.14-0.04-0.14-0.04c-0.06,0-0.09,0.08-0.15,0.08c-0.12,0.01-0.24-0.04-0.36-0.02     c-0.02,0-0.04,0.01-0.06,0.02c-0.05,0.05-0.12,0.12-0.17,0.17c-0.05-0.02-0.05-0.02-0.09-0.01c0.09-0.21,0.09-0.21,0.2-0.32     c-0.05,0-0.05,0-0.22-0.03c-0.33,0.32-0.39,0.38-0.53,0.4c-0.04-0.08-0.04-0.08-0.06-0.1c-0.02-0.01-0.05-0.02-0.07-0.03     c-0.24,0.15-0.24,0.15-0.5,0.19c0.11-0.17,0.31-0.24,0.46-0.38c0.01-0.01,0.02-0.04,0.02-0.06c0.08-0.02,0.08-0.02,0.14-0.07     c-0.02-0.01-0.05-0.02-0.06-0.04c0.03-0.03,0.07-0.04,0.1-0.07c0.1-0.09,0.04-0.25-0.28-0.3c-0.04,0.02-0.08,0.04-0.12,0.05     c0.06,0.1,0.06,0.12,0.07,0.18c-0.17,0.19-0.17,0.19-0.24,0.18c-0.01-0.01-0.01-0.02-0.02-0.03c0.04-0.12-0.07-0.24-0.02-0.36     c0.02,0,0.05-0.01,0.06-0.03c-0.01-0.02-0.03-0.04-0.05-0.06l-0.16,0.08c0.01,0,0.03,0.01,0.04,0.01c-0.09,0.01-0.18,0-0.26,0.02     c0.01,0.01,0.01,0.01,0.1,0.07c-0.09,0.05-0.16,0.14-0.25,0.19c-0.21-0.01-0.44,0.23-0.62,0c-0.04,0.03-0.09,0.06-0.13,0.09     c0.04,0.01,0.07,0.02,0.11,0.03c0.02,0.04,0.02,0.04,0.13,0.1c0.24-0.09,0.8-0.13,0.76,0.12c-0.08,0.02-0.16-0.03-0.24,0.01     c0,0-0.07,0.04-0.13,0.15c0.15,0.01,0.15,0.01,0.18,0.04c-0.05,0.04-0.05,0.04-0.13,0.07c-0.27-0.15-0.27-0.15-0.28-0.15     l-0.68,0.03c-0.12,0.02-0.14,0.07-0.14,0.08c0.08,0.08,0.09,0.09,0.15,0.11c0.15-0.02,0.15-0.02,0.51,0.14     c-0.12,0.16-0.12,0.16-0.13,0.19c0.05,0,0.1,0,0.14,0c0,0.01,0.01,0.02,0.01,0.03c-0.1,0.06-0.11,0.07-0.14,0.11     c-0.03,0.02-0.05,0.04-0.08,0.06c-0.03,0.01-0.03,0.01-0.16,0.08c-0.19-0.06-0.19-0.06-0.45-0.07c-0.03,0.03-0.06,0.08-0.09,0.11     c0.16,0.08,0.16,0.08,0.79,0.19c-0.01,0.03-0.02,0.06-0.03,0.08c0.07,0.03,0.15,0.01,0.22,0.03c-0.01,0.02-0.03,0.05-0.04,0.08     c0.06,0.06,0.13,0.1,0.19,0.16c0.03,0.01,0.05,0.02,0.08,0.03c-0.15,0.04-0.29,0.09-0.43,0.13c0.24,0.07,0.43,0.24,0.67,0.3     c0.1,0.02,0.1,0.02,0.31-0.06c0.01,0.01,0.02,0.01,0.03,0.02c-0.01,0.04-0.01,0.04-0.05,0.11c0.03,0.01,0.05,0.02,0.08,0.03     c0,0,0.31-0.1,0.38-0.18c-0.01-0.02-0.02-0.05-0.04-0.07c0.12-0.1,0.12-0.1,0.15-0.13c0.12,0.07,0.2,0.2,0.32,0.27     c0.06,0.03,0.12,0.01,0.18,0.02c0.16-0.12,0.16-0.12,0.19-0.12c0.02,0.02,0.04,0.04,0.09,0.17     C307.47,35.71,307.61,35.64,307.78,35.62z"
   id="path10"
   style="fill:#ffffff" />
			<path
   class="st0"
   d="M355.7,22l0.98,0.42c0,0,0,0,0,0c0.01,0.01,0.02,0.01,0.02,0.02c0.05,0.02,0.09,0.03,0.13,0.04l0.28,0.12     c-0.12-0.04-0.22-0.08-0.28-0.1c-0.1-0.03-0.1-0.03-0.13-0.04c0,0,0.1,0.04,0.25,0.09c-0.05-0.02-0.1-0.03-0.1-0.03     c-0.01,0-0.03-0.01-0.05-0.01c0,0,0,0,0,0c0.01,0,0.17,0.06,0.22,0.07c0.09,0.03,0.2,0.07,0.31,0.11l0.11,0.05     c0.1,0.04,0.33,0.12,0.93,0.33C357.19,22.56,356.22,22.2,355.7,22z"
   id="path11"
   style="fill:#ffffff" />
			<path
   class="st0"
   d="M356.25,25.2c-0.23-0.08-0.34-0.1-0.34-0.1c0.27,0.09,0.55,0.18,0.82,0.28c0,0,0,0,0,0     C356.71,25.37,356.45,25.27,356.25,25.2z"
   id="path12"
   style="fill:#ffffff" />
			<path
   class="st0"
   d="M355.47,21.9c-0.38-0.14-0.41-0.15-0.71-0.25c0.07,0.03,0.16,0.07,0.23,0.1c0.01,0,0.03,0.01,0.04,0.01     c0.11,0.04,0.26,0.09,0.37,0.14c0.07,0.03,0.17,0.06,0.29,0.11l-0.19-0.08C355.49,21.91,355.48,21.91,355.47,21.9z"
   id="path13"
   style="fill:#ffffff" />
			<path
   class="st0"
   d="M362.96,86.41c0-0.02-0.01-0.03,0-0.03c0,0,0,0,0,0c-0.01-0.01-0.03-0.01-0.07-0.02     c0.01,0.05,0.01,0.09,0.02,0.14C362.97,86.52,362.97,86.47,362.96,86.41z"
   id="path14"
   style="fill:#ffffff" />
			<path
   class="st0"
   d="M364.6,127.13c0-0.05,0-0.1-0.01-0.15c0,0.08-0.01,0.16-0.01,0.24C364.58,127.2,364.59,127.18,364.6,127.13z     "
   id="path15"
   style="fill:#ffffff" />
			<path
   class="st0"
   d="M310.87,164.14c-0.01,0-0.02,0-0.03,0c0.21,0.69,0.21,0.69,0.07,0.98c0.5,0.84,0.5,0.84,0.53,1.63     c-0.07,0.01-0.15,0.03-0.22,0.05c0.28,0.48-0.01,1.16,0.55,1.55c0.01,0.15,0.13,1.49,1.39,1.59c0.09,0.26,0.26,0.46,0.44,0.67     l1.39,0.42L310.87,164.14z"
   id="path16"
   style="fill:#ffffff" />
			<path
   class="st0"
   d="M353.73,33.06c-0.02,0.08-0.05,0.19-0.07,0.27l2.26,1.68c0.09,0.05,0.14,0.09,0.18,0.13     c0.06,0.12,0.16,0.24,0.27,0.34l2.4-0.46c-0.22,0.02-0.46,0.02-0.71-0.04l-0.33-0.32c-0.35-0.25-0.6-0.62-0.98-0.84     c-0.8-0.75-1.4-1.28-1.87-1.64l-1.99-0.6c0,0,0,0.01,0,0.01C353.06,32.2,353.62,32.92,353.73,33.06z"
   id="path17"
   style="fill:#ffffff" />
			<path
   class="st0"
   d="M311.16,159.48c-0.01-0.05-0.02-0.09,0.03-0.08c0,0,0.2,0.04,0.18,0.11c-0.02,0.05-0.16,0.09-0.23,0.11     l6.56,10.63l23.15-40.84l-36.07,3.52c0,0.04-0.17-0.01-0.17,0.03c0.09,0.04,0.2,0.09,0.29,0.12c-0.09,0.02-0.21,0.04-0.3,0.06     c-0.26,0.07-0.26,0.16-0.27,0.26c1.38,1.18,1.38,1.18,3.38,3.71c0.08,0.01,0.16,0.02,0.24,0.03l0.32,0.4     c0.02,0.2,0.05,0.48,0.09,0.68c0.14,0.08,0.33,0.18,0.47,0.25c-0.08,0.19-0.19,0.43-0.29,0.61c0.15,0.16,0.36,0.35,0.53,0.48     c0.17,1.37,1.6,2.38,1.11,3.93c0.07,0.07,0.16,0.16,0.24,0.22c-0.06,0.17-0.07,0.43-0.05,0.61c-0.09,0.03-0.22,0.07-0.31,0.1     c-0.18,0.59-0.18,0.59,0.1,1.38c-0.66,1.28,1.23,3.29-0.54,4.05c-0.04,0.19-0.1,0.43-0.15,0.61c-0.96,0.35-0.67,1.55-1.39,2.07     c-0.05,0.47-0.19,0.91-0.35,1.36l3.43,5.73C311.17,159.59,311.18,159.55,311.16,159.48z"
   id="path18"
   style="fill:#ffffff" />
			<path
   class="st0"
   d="M340.71,126.58l-33.34-39.82l-8.82,32.92c0.37,0.19,0.56,0.37,0.96,0.43c0.03,0.4,0.11,0.41,0.19,0.43     c0.04,0.16,0.09,0.37,0.13,0.53c0.08,0.09,0.12,0.1,0.16,0.11c-0.13,0.06-0.31,0.13-0.44,0.19c0.49,1.51,0.63,1.52,1.95,1.63     c0.01-0.06,0.01-0.13,0.02-0.19c0.13,0.06,0.31,0.14,0.45,0.2c0.08-0.05,0.2-0.12,0.28-0.18c0.28,0,0.67-0.1,0.91-0.25     c0.43,0.26,0.93,0.26,1.39,0.44c0.23,0.59,0.31,0.78,1.24,0.81c-0.03,0.72-0.03,0.94,0.49,1.48c0,0,0,0,0.01,0     c-0.2,0.81-0.29,1.19-0.64,1.48c0.11,0.9-0.33,1.74-0.29,2.63c-0.07,0.06-0.16,0.15-0.22,0.21c-0.09-0.02-0.22-0.04-0.31-0.06     c-0.02,0.09-0.05,0.21-0.08,0.31c0.1,0.04,0.24,0.09,0.34,0.13c-0.08,0.04-0.19,0.1-0.27,0.15c0,0.04,0,0.08,0,0.11l19.41-2.01     L340.71,126.58z"
   id="path19"
   style="fill:#ffffff" />
			<path
   class="st0"
   d="M294.56,71.55c-0.21,0.13-0.5,0.33-0.94,0.63c-0.48,1.35-2.93,2.1-2.95,2.1c-3.69-0.66-3.51,3.98-5.41,5.83     c-1.29,1.26-3.79-0.08-4.61,2.16l-3.78,3.64c-0.11,0.09-0.33,0.07-0.48,0.1c-0.27,0.61-0.84,1-1.16,1.57     c-0.06,0.01-0.14,0.02-0.21,0.03c-0.15,0.26-0.46,0.54-0.72,0.67c-0.34,0.19-0.37,0.28-0.4,0.37l-0.24,0.42     c-0.1,0.38-0.1,0.38-0.2,3.03c-0.03-0.01-0.06-0.02-0.09-0.03c-0.4,0.76-0.16,1.66-0.53,2.43c0.14,0.21,0.12,0.27,0.1,0.33     c-0.19,0.24-0.34,0.5-0.47,0.76l31.79-12.32L294.56,71.55z"
   id="path20"
   style="fill:#ffffff" />
			<path
   class="st0"
   d="M352.44,35.76c-0.16,0-0.38,0.08-0.51,0.18c-0.15-0.04-0.13-0.02-0.11,0.01c-1.01,0.2-1.01,0.2-1.11,0.28     c0.05,0.07,0.11,0.16,0.16,0.23c-0.09-0.02-0.2-0.05-0.29-0.07c-0.11,0.11-0.32,0.19-0.47,0.2c-0.19-0.03-0.22-0.07-0.24-0.11     c0.08-0.03,0.18-0.07,0.26-0.1c0.05-0.04,0.02-0.08-0.01-0.12c-0.52-0.26-0.52-0.26-0.63-0.45c-0.06,0.15-0.12,0.35-0.16,0.5     c0,0.1,0.01,0.11,0.02,0.12c-0.07-0.04-0.16-0.1-0.23-0.14c-0.29,0.1-0.86,0.31-1.31,0.8l5.01-0.95     C352.7,36.11,352.63,36.02,352.44,35.76z"
   id="path21"
   style="fill:#ffffff" />
			<path
   class="st0"
   d="M270.8,98.96c-0.15,0.19-0.26,0.43-0.3,0.63c-0.09,1.2-0.09,1.2,0.14,1.68l0.01,0.08     c-0.08,0.13-0.18,0.29-0.26,0.42c0.69,2.11,0.69,2.11,0.86,2.22c0.03,0.67,0.03,0.67,0.46,1.5c0.27,0.15,0.26,0.21,0.24,0.28     c0.1,0.12,0.22,0.28,0.32,0.39c-0.03,0.14-0.07,0.34-0.1,0.48c0.15,0.3,0.14,0.36,0.12,0.43c0.13,0.07,0.31,0.15,0.44,0.22     c-0.07,0.33-0.14,0.77-0.19,1.1c0.18,0.19,0.42,0.44,0.6,0.63c-0.25,0.64-0.25,0.65,0.42,2.92c0.7,1.21,0.7,1.21,2.19,2.9     c0.17,0.07,0.17,0.1,0.17,0.14c0.25,0.26,0.57,0.62,0.8,0.9c0.19,0.16,0.26,0.18,0.33,0.2c0.08,0.46,0.45,0.94,0.8,1.36     l0.55,0.47c7.22,1.64,7.72,1.55,9.31,1.24c0.34,0.06,0.34,0.06,0.35,0.06s0,0,0.01,0c0,0,0,0,0.01,0c0,0,0,0,0.01,0     c0,0,0,0,0.01,0c0,0,0,0,0.01,0c0,0,0,0,0.01,0s0,0,0.01,0c1.32,0.13,2.64-0.35,3.97-0.04c0.03-0.14,0.07-0.34,0.1-0.48     c-0.09-0.11-0.22-0.25-0.31-0.36c0.14,0.03,0.33,0.06,0.47,0.09c0.05,0.15,0.11,0.35,0.16,0.5c0.15-0.02,0.36-0.04,0.51-0.06     c0.05,0.14,0.11,0.32,0.16,0.45c0.12-0.1,0.27-0.23,0.39-0.33c0.15,0.03,0.34,0.07,0.48,0.11c0.72-0.53,1.37-0.61,1.99-0.48     l8.62-32.26L270.8,98.96z"
   id="path22"
   style="fill:#ffffff" />
			<path
   class="st0"
   d="M415.41,114.71c-0.03,0.04-0.07,0.08-0.1,0.12c0,0,0.01,0,0.01,0C415.35,114.79,415.38,114.75,415.41,114.71     z"
   id="path23"
   style="fill:#ffffff" />
			<path
   class="st0"
   d="M354.69,34.92c0.06,0.09,0.14,0.22,0.19,0.31c-0.02,0-0.04,0.01-0.07,0.01c-0.13-0.13-0.29-0.31-0.41-0.45     c-0.68,0-0.79-0.06-1.09-0.24c-0.05,0.06-0.12,0.15-0.17,0.22c-0.17,0-0.39-0.02-0.55-0.06c-0.03,0.07-0.07,0.17-0.1,0.24     c0.89,0.88,0.89,0.88,0.91,0.9c-0.09,0.02-0.2,0.05-0.28,0.07c0,0.05-0.01,0.11-0.02,0.17l3.2-0.61c-0.36-0.16-0.77-0.16-1.1-0.4     C355.05,35.03,354.84,34.96,354.69,34.92z"
   id="path24"
   style="fill:#ffffff" />
			<path
   class="st0"
   d="M357.43,22.75c-0.06-0.02-0.08-0.03-0.11-0.04c-0.17-0.03-0.18-0.04-0.2-0.05     c-0.14-0.06-0.34-0.14-0.48-0.18c0.19,0.18,0.19,0.18,1.73,0.72l0.41,0.18l-0.06-0.01c-0.52-0.19-1.19-0.42-1.19-0.42     c0.02-0.01,0.06,0,0.09,0.01c-0.08-0.03-0.18-0.07-0.26-0.09c0.15,0.08,0.35,0.18,0.51,0.25c-0.14-0.03-0.33-0.1-0.47-0.16     c-0.1-0.05-0.13-0.06-0.16-0.07l0.08,0.1c0.12,0.06,0.27,0.2,0.33,0.32c0.07,0.01,0.15,0.03,0.22,0.05l0.21,0.06     c0.34,0.2,0.39,0.2,0.61,0.19c0.43,0.25,0.92,0.33,1.37,0.52c-0.07-0.01-0.17-0.02-0.24-0.02c0.3,0.15,0.63,0.24,0.93,0.39     c0,0.01-0.01,0.02-0.01,0.02c-0.08,0-0.18,0-0.26,0c-0.06,0-0.08-0.01-0.1-0.02c0.27,0.22,0.61,0.33,0.9,0.51     c-0.19-0.06-0.58-0.19-0.84-0.24l0.52,0.21c0.29,0.1,0.39,0.13,0.94,0.36l-0.38-0.84L357.43,22.75z"
   id="path25"
   style="fill:#ffffff" />
			<path
   class="st0"
   d="M359.22,34.93l0.75-0.14c-0.08-0.03-0.15-0.06-0.25-0.12C359.68,34.74,359.5,34.85,359.22,34.93z"
   id="path26"
   style="fill:#ffffff" />
			<path
   class="st0"
   d="M415.11,115.46c0.05,0.1-0.01,0.21,0.03,0.32c0.06,0.14,0.18,0.22,0.24,0.36c0-0.06,0.01-0.13,0.01-0.19     c0.03-0.12,0.04-0.24,0.07-0.36c0.01-0.05,0.03-0.09,0.05-0.12c0.09-0.12,0.09-0.12,0.09-0.13c0.02-0.1,0.01-0.2,0.01-0.3     c0-0.06-0.13-0.13-0.3-0.21c-0.11,0.16-0.22,0.33-0.35,0.49C415.09,115.42,415.09,115.42,415.11,115.46z"
   id="path27"
   style="fill:#ffffff" />
			<path
   class="st0"
   d="M331.53,40.21c0.06-0.05,0.11-0.11,0.17-0.16c0.07-0.88,0.07-0.88,0.04-1.05c0.07,0.15,0.15,0.36,0.22,0.51     l0.13-0.26c0.3-0.18,0.49-0.49,0.8-0.66c0.05,0.06,0.11,0.14,0.15,0.2c0.5-0.14,0.61-0.08,1.05,0.19l0.25,0.06l0,0.22     c-0.11,0.01-0.25,0.02-0.36,0.03c-0.04,0.11-0.1,0.25-0.14,0.36c-0.04,0.07-0.06,0.12-0.08,0.15l6.25-1.19     c-0.01,0-0.01,0-0.02-0.01c-0.11-0.02-0.25-0.04-0.36-0.06c-0.01-0.08-0.03-0.19-0.04-0.27c-0.1-0.01-0.23-0.02-0.33-0.03     c-0.07-0.09-0.07-0.12-0.08-0.14c-0.12-0.17-0.29-0.38-0.42-0.54c0.25,0.04,0.59,0.1,1.39,0.82c0.03,0.01,0.07,0.02,0.1,0.02     l0.07-0.32c0.09,0.15,0.11,0.19,0.43,0.4l2.99-0.57c0.02-0.62-0.08-0.7-0.73-1.1c-0.49-0.18-0.92-0.48-1.4-0.69     c-0.13-0.02-0.13-0.02-0.13-0.02s0,0,0,0s0,0,0,0c0,0,0,0,0,0c0,0,0,0,0,0c0,0,0,0,0,0s0,0,0,0c0,0,0,0,0,0     c-0.31-0.23-0.42-0.3-2.17-1.02c-0.32-0.07-0.33-0.12-0.35-0.17c-0.21-0.01-0.49-0.01-0.69-0.02c-0.31,0.09-0.3,0.12-0.29,0.15     c-0.51-0.18-0.58-0.15-0.96,0.03c-0.06-0.08-0.14-0.19-0.2-0.27c0.19-0.06,0.42-0.2,0.56-0.34c-0.02-0.19-0.14-0.43-0.28-0.56     c-0.07,0.07-0.16,0.17-0.23,0.24c-0.04-0.09-0.1-0.22-0.14-0.31c-0.08,0.06-0.18,0.14-0.26,0.2c-0.1-0.02-0.23-0.04-0.33-0.06     c0.04-0.09,0.1-0.21,0.14-0.3c-0.07-0.14-0.2-0.32-0.33-0.4l-0.04-0.01c-0.11,0.24-0.12,0.24-0.13,0.24     c0,0.1-0.01,0.23-0.01,0.33c-0.08,0.06-0.18,0.15-0.26,0.21c-0.19,0.2-0.19,0.25-0.18,0.3c-0.01-0.07-0.03-0.15-0.04-0.22     c0.04-0.09,0.08-0.21,0.12-0.3c-0.07-0.21-0.1-0.21-0.13-0.21c-0.02,0.14-0.04,0.14-0.07,0.14c-0.09,0.23-0.12,0.23-0.15,0.23     c-0.13,0.16-0.26,0.39-0.33,0.58c-0.05-0.09-0.12-0.21-0.17-0.3c0.08-0.07,0.19-0.17,0.27-0.24c-0.17-0.17-0.17-0.21-0.17-0.26     c-0.14-0.05-0.33-0.11-0.48-0.13l0.04,0.3c-0.01,0.09-0.03,0.09-0.04,0.08c-0.09-0.05-0.2-0.11-0.29-0.16     c-0.24,0.33-0.24,0.33-1.44,0.07c-0.11,0.05-0.11,0.1-0.11,0.14c0.09,0.04,0.21,0.1,0.31,0.15c0.02,0.1,0.05,0.24,0.08,0.34     c-0.08-0.06-0.18-0.14-0.26-0.21c-0.05,0.09-0.13,0.22-0.18,0.31c-0.05-0.09-0.11-0.21-0.16-0.31c-0.08,0.03-0.09,0.03-0.11,0.03     c-0.16,0.31-0.17,0.35-0.17,0.38c0.01-0.11,0.03-0.25,0.04-0.36c-0.03-0.03-0.08-0.07-0.11-0.09c-0.1-0.02-0.23-0.04-0.33-0.05     c-0.07,0.08-0.16,0.18-0.23,0.25c-0.01,0-0.01-0.01-0.02-0.01c0.01-0.06,0.01-0.11,0.02-0.17c-0.01-0.01-0.02-0.01-0.05-0.02     c-0.04-0.01-0.05-0.01-0.06-0.03c0,0.04,0.01,0.12,0.02,0.17c-0.07-0.04-0.14-0.08-0.2-0.11c0,0.1-0.01,0.24-0.01,0.34     c-0.12,0.05-0.29,0.12-0.41,0.19c-0.09,0.13-0.21,0.3-0.32,0.4c-0.02,0.1-0.05,0.24-0.07,0.35c-0.06,0.02-0.14,0.06-0.2,0.08     c-0.1,0.01-0.24,0.02-0.34,0.02c-0.06,0.08-0.13,0.2-0.19,0.28c0.19,0.03,0.46,0,0.64-0.07c-0.37,0.15-0.37,0.15-1.04,0.24     c-0.28,0.05-0.29,0.09-0.3,0.12c0.03,0,0.06,0.01,0.09,0.01c0.03,0.1,0.07,0.24,0.1,0.34c0.1,0.06,0.09,0.11,0.07,0.16     c-0.11-0.01-0.25-0.03-0.36-0.04c-0.17,0.26-0.47,0.69-1.41,0.95c-0.07,0.2-0.15,0.47-0.21,0.68c-0.19,0.1-0.47,0.2-0.69,0.23     c-0.04,0.06-0.05,0.11-0.07,0.16c-0.1-0.01-0.23-0.02-0.33-0.03c-0.03-0.09-0.07-0.22-0.11-0.31c-0.06,0.08-0.15,0.18-0.21,0.26     c-0.05,0.01-0.08,0.02-0.11,0.03l1.12,2.43L331.53,40.21z"
   id="path28"
   style="fill:#ffffff" />
			<path
   class="st0"
   d="M345.21,36.27c-0.1-0.02-0.24-0.05-0.34-0.08c0.13,0.17,0.3,0.4,0.43,0.57c-0.01,0.07-0.03,0.15-0.04,0.22     c-0.01,0.11-0.03,0.25-0.05,0.36c0.06,0.07,0.12,0.15,0.19,0.23l1.26-0.24c0.08-0.06,0.17-0.11,0.24-0.16     C346.37,36.69,346.37,36.69,345.21,36.27z"
   id="path29"
   style="fill:#ffffff" />
			<path
   class="st0"
   d="M322.96,39.62c-0.12,0.02-0.22,0-0.61-0.1c-0.1-0.01-0.23-0.03-0.33-0.04c-0.01,0.1-0.03,0.23-0.04,0.33     c-0.29,0.18-0.64,0.19-0.95,0.3c0.09,0.07,0.21,0.15,0.3,0.22c-0.1,0.05-0.22,0.11-0.32,0.15c-0.25-0.03-0.28,0.04-0.31,0.11     c-0.09-0.03-0.22-0.07-0.32-0.1c-0.07,0.07-0.17,0.16-0.25,0.22c-0.45-0.07-0.59-0.02-0.78,0.45c0.1,0,0.23,0,0.33,0     c0.07,0.07,0.16,0.17,0.22,0.25c0.3-0.14,0.3-0.14,0.95,0.02c0.07,0.03,0.05,0.08,0.03,0.14l-0.42,0.11     c-0.49-0.27-0.64-0.26-1.15-0.19c-0.16-0.05-0.18-0.01-0.2,0.03c0.09,0.05,0.22,0.11,0.31,0.16c-0.17,0.12-0.4,0.27-0.58,0.38     c0.09,0.06,0.21,0.13,0.31,0.19c0,0,0,0,0,0l4.79-0.67l-0.91-1.98c-0.01,0-0.02-0.01-0.03-0.01     C322.99,39.58,322.95,39.58,322.96,39.62z"
   id="path30"
   style="fill:#ffffff" />
			<path
   class="st0"
   d="M358.79,34.9c0.03-0.03,0-0.06-0.03-0.09c0.15-0.06,0.32-0.22,0.41-0.35c0.66,0,1.01,0.14,1.14,0.26     l1.85-0.35l-4.44-1.33c-0.01,0.01-0.02,0.01-0.02,0.02c0,0,0,0,0,0c0,0,0,0,0,0c0,0,0,0,0,0c0,0,0,0,0,0c0,0,0,0,0,0c0,0,0,0,0,0     c0,0,0,0,0,0c0,0,0,0,0,0L357.59,33l-0.01,0c-0.06,0.06-0.14,0.13-0.2,0.19c-0.09-0.03-0.2-0.07-0.29-0.1     c-0.11-0.05-0.13-0.06-0.14-0.07c-0.16-0.14-0.33-0.25-0.51-0.36l-0.7-0.21c1.9,1.73,2,1.78,2.6,2.13     C358.46,34.69,358.64,34.82,358.79,34.9z"
   id="path31"
   style="fill:#ffffff" />
			<path
   class="st0"
   d="M415.31,114.83c-0.21-0.1-0.45-0.24-0.51-0.45c0.03,0.3,0.06,0.59,0.09,0.85     C415.06,115.12,415.19,114.98,415.31,114.83z"
   id="path32"
   style="fill:#ffffff" />
			<path
   class="st0"
   d="M414.8,114.38c0-0.03-0.01-0.05-0.01-0.08c0,0.01-0.01,0.02-0.01,0.03     C414.78,114.35,414.79,114.36,414.8,114.38z"
   id="path33"
   style="fill:#ffffff" />
			<path
   class="st0"
   d="M291.56,68.03l-0.06-0.07c-0.01,0.02-0.02,0.04-0.04,0.06C291.49,68.02,291.53,68.02,291.56,68.03z"
   id="path34"
   style="fill:#ffffff" />
			<path
   class="st0"
   d="M296.54,69.83c0.52,0.11,0.94,0.61,1.54,0.39c0.25,0.03,0.48,0.19,0.75,0.11c0.24-0.07,0.28-0.35,0.47-0.48     c0.01-0.01,1-0.51,1.53-0.43c0.12,0.02,0.27,0.04,0.34,0.01c0.16-0.07,0.19-0.18,0.23-0.3c0.1-0.33,0.1-0.33,1.67-0.99     c0.01-0.08,0.05-0.14,0.08-0.22c-0.34-0.23-0.34-0.23-0.25-0.39c-0.16-0.27-0.22-0.39,0.41-0.55l1.18-0.75     c-0.29-0.08-0.59-0.14-0.9-0.2c0.3,0.06,0.6,0.12,0.9,0.18c0.6-0.52,1.67-0.72,1.68-0.72c0.07,0.01,0.07,0.01,0.07,0.01     c0,0,0,0,0,0c0,0,0,0,0,0c0,0,0,0,0,0c0,0,0,0,0,0c0,0,0,0,0,0c0,0,0,0,0,0c0,0,0,0,0,0c1.49-0.39,1.49-0.39,1.77-0.59     c0-0.77,0-0.77,0.38-1.38c0.66,0.06,1.31-0.49,1.97-0.03c0.1-0.03,0.24-0.06,0.34-0.08c0.19,0.29,0.53,0.43,0.73,0.71     c0.15-0.02,0.35-0.04,0.49-0.05c0.1,0.02,0.23,0.04,0.33,0.06c0.71-0.55,1.85-0.2,2.36-1.15c0.21-0.06,0.34-0.09,0.47-0.09     l5.62-12.26c-0.08,0.02-0.16,0.03-0.23,0.04c-0.08-0.2-0.12-0.49-0.11-0.7c-0.07-0.08-0.16-0.18-0.23-0.25     c0.1-0.04,0.24-0.1,0.34-0.15c-0.1-0.03-0.22-0.08-0.32-0.11c0.1-0.2,0.23-0.46,0.34-0.66c0.06,0.09,0.15,0.22,0.22,0.31     c0.09,0.25,0.14,0.25,0.19,0.26c0.15,0.09,0.15,0.09,0.15,0.09c0,0,0.01,0,0.01,0c0,0,0,0,0.01,0c0,0,0,0,0.01,0c0,0,0,0,0.01,0     c0,0,0,0,0,0c0,0,0,0,0,0c0,0,0,0,0,0c0.04-0.12,0.08-0.28,0.12-0.4c-0.17-0.12-0.44-0.23-0.65-0.25     c0.52-0.61,0.52-0.61,0.75-1.04c0.08,0.06,0.19,0.14,0.27,0.21c0.09-0.08,0.21-0.18,0.31-0.25c-0.01-0.04-0.02-0.09-0.03-0.13     c-0.1-0.01-0.23-0.03-0.33-0.05c0.01-0.22,0.05-0.51,0.09-0.73c-0.08-0.07-0.18-0.16-0.26-0.23c0.33-0.03,0.7-0.06,0.72-0.6     l0.01-0.01c0.13-0.22,0.15-0.28,0.17-0.33c-1.17,0.26-2.59,1.04-2.6,1.05c0.34-0.04,0.67-0.19,1.02-0.17     c0.06,0.08,0.15,0.18,0.21,0.26c-0.02,0.12-0.05,0.28-0.07,0.4c-0.09-0.09-0.2-0.25-0.32-0.26c-0.37,0.33-0.37,0.33-1.05,0.18     c-0.07,0.2-0.12,0.49-0.12,0.71c0.14,0.23,0.13,0.27,0.11,0.31l-0.23,0.03c-0.16,0.32-0.23,0.46,0.21,0.87     c-0.06,0.09-0.13,0.21-0.19,0.3c-0.09,0.24-0.04,0.25,0.01,0.25c-0.01,0.32,0.01,0.33,0.04,0.33c-0.21,0.82-0.21,0.82-0.13,1.1     c-0.1-0.03-0.23-0.07-0.32-0.09c-0.16,0.16-0.37,0.39-0.51,0.56c-0.03-0.1-0.08-0.24-0.11-0.35c-0.27,0.04-0.63,0.13-0.88,0.24     c0.03,0.15,0.06,0.35,0.09,0.51c-0.09-0.07-0.2-0.16-0.29-0.22c0-0.1,0-0.23-0.01-0.33c-0.2-0.03-0.48-0.06-0.68-0.07     c-0.04-0.05-0.09-0.11-0.13-0.16c-0.07,0-1.69,0-2.91,1.91c-1.73-0.14-1.73-0.14-2.18-0.12c-0.21,0.01-0.49,0.02-0.7,0.04     c-0.21,0.42-0.22,0.43-0.48,1.03c-1.06,0.02-2.02,0.61-3.1,0.49c0.03-0.1,0.06-0.24,0.09-0.34c-0.08-0.07-0.19-0.15-0.27-0.22     c-0.08,0.06-0.19,0.15-0.27,0.21c0.04,0.75,0.04,0.75-1.19,1.15c-0.09-0.04-0.21-0.1-0.31-0.15c-0.1,0.07-0.23,0.16-0.32,0.23     c-0.05-0.01-0.1-0.02-0.15-0.03c-0.02-0.11-0.04-0.27-0.06-0.38c-0.09-0.05-0.22-0.11-0.31-0.16c-0.11,0.05-0.26,0.11-0.37,0.16     c-0.19-0.08-0.45-0.15-0.66-0.16c-0.32,0.13-0.35,0.17-0.37,0.21c0.08,0.07,0.19,0.15,0.27,0.22c-0.02,0.06-0.04,0.13-0.06,0.19     c-0.3-0.07-0.33,0-0.36,0.06l-0.22,0.09l0.01,0.15c0.81,0.07,0.94,0.08,1.11,0.76c0.21,0.02,0.49,0.03,0.71,0.02     c-0.09,0.04-0.21,0.1-0.31,0.14c0.08,0.06,0.2,0.13,0.28,0.19c-0.04,0.1-0.09,0.24-0.13,0.34c0.1,0.02,0.24,0.04,0.34,0.06     c-0.28,0.45-0.28,0.45,0.77,1.9c-0.14,0.4-0.14,0.4-0.45,0.89c-0.26,0.62-0.26,0.62-0.24,0.95c-1.77,1.2-1.77,1.2-1.8,1.19     c-0.04,0-4.71-1.17-5.25-1.97c-0.25-0.03-0.58-0.03-0.83,0.01c-0.24,0.09-0.28,0.16-0.31,0.23c-1.18-0.15-1.18-0.15-1.51,0.23     c0.06,0.08,0.14,0.2,0.2,0.28c-0.05,0.19-0.06,0.46-0.03,0.66c-0.57,0.59-0.52,1.42-0.86,2.1c0.01,0,0.03,0.01,0.04,0.01     c-0.17,0.15-0.51,0.34-0.66,0.41c-0.08,0.37-0.4,0.58-0.6,0.87c-0.12,0.02-0.12,0.02-0.27,0.01c-0.05,0.06-0.09,0.14-0.13,0.22     l3.99,4.7C296.5,69.86,296.52,69.85,296.54,69.83z"
   id="path35"
   style="fill:#ffffff" />
			<path
   class="st0"
   d="M402,58.6c-0.18-0.17-0.32-0.37-0.47-0.57l3.86,19.72l7.69,5.89c-0.1-0.24-0.2-0.46-0.3-0.66     c-0.01-0.15-0.03-0.21-0.05-0.27c-0.03-0.19-0.07-0.45-0.09-0.65c0.01-0.35,0.01-0.35-0.27-1.38c-0.02-0.07-0.02-0.08-0.02-0.09     c-0.03-0.11-0.08-0.26-0.11-0.37c-0.05-0.12-0.07-0.17-0.09-0.23c0.04,0.09,0.1,0.2,0.14,0.29c-0.03-0.08,0.07,0.17,0.1,0.25     c-0.02-0.09-0.04-0.2-0.06-0.29c-0.04-0.16-0.06-0.21-0.08-0.27c-0.08-0.36-0.08-0.36-0.09-0.47c-0.04-0.13-0.05-0.19-0.07-0.24     c-0.11-0.36-0.11-0.36-0.23-0.71c-0.03-0.09-0.06-0.18-0.09-0.26c-0.05-0.17-0.16-0.54-0.33-1.04c-0.04-0.12-0.07-0.21-0.11-0.29     c-0.01-0.04-0.03-0.09-0.04-0.13c0-0.01,0-0.01,0-0.01c0,0,0,0,0,0s0,0,0,0c0,0,0,0,0,0c0,0,0,0,0,0s0,0,0,0c0,0,0,0,0,0     c0,0,0,0,0,0c-0.12-0.35-0.73-1.99-0.74-2c-0.04-0.11-0.07-0.17-0.09-0.22c-0.19-0.47-0.38-0.95-0.57-1.42l-0.01-0.01l-0.08-0.2     c-0.01-0.02-0.17-0.42-0.53-1.25l-2.24-4.78c-0.23-0.45-0.46-0.89-0.69-1.34l-0.04-0.08c-0.13-0.24-0.13-0.24-0.23-0.42     c0.04,0.09,0.1,0.21,0.15,0.3c-0.49-0.83-0.93-1.69-1.43-2.52c0.02,0.04,0.05,0.09,0.07,0.14c-1.16-1.87-2.23-3.8-3.44-5.63     l0.06,0.33C401.59,57.91,401.76,58.19,402,58.6z M408.22,69.68c0.06,0.12,0.13,0.32,0.22,0.54c-0.06-0.11-0.13-0.21-0.17-0.33     c-0.05-0.12-0.09-0.27-0.08-0.28C408.19,69.62,408.19,69.62,408.22,69.68z M406.32,65.58c0,0.01,0.01,0.01,0.01,0.02     c0.09,0.18,0.19,0.35,0.28,0.53c0.01,0.03,0.02,0.05,0.03,0.08c-0.02-0.02-0.02-0.05-0.04-0.07c0,0.01,0.01,0.02,0.01,0.03     C406.51,65.98,406.41,65.78,406.32,65.58C406.31,65.59,406.31,65.58,406.32,65.58z M404.07,62.08c0.01,0,0.11,0.16,0.13,0.19     c0.02,0.03,0.02,0.03,0.02,0.04c0,0,0,0,0,0c0,0-0.01,0-0.09-0.13C404.08,62.11,404.07,62.09,404.07,62.08     C404.07,62.08,404.07,62.08,404.07,62.08z"
   id="path36"
   style="fill:#ffffff" />
			<path
   class="st0"
   d="M324.77,48.51c0.19-0.04,0.42-0.19,0.54-0.33c1.48,0.16,1.48,0.16,1.86-0.49c-0.09,0.06-0.22,0.14-0.31,0.2     c0-0.52,0.35-0.9,0.52-1.36c0.02-0.05,0.02-0.07,0.1-0.8l-1.2-1.05l-2.06,4.5C324.42,49.09,324.62,48.91,324.77,48.51z"
   id="path37"
   style="fill:#ffffff" />
			<path
   class="st0"
   d="M317.86,80.58c-0.34-0.17-0.33-0.2-0.33-0.23c-0.82-0.11-1.52-0.55-2.28-0.81c-0.21-0.65-0.93-0.9-1.2-1.5     c0.29-0.44,0.73-0.77,0.94-1.27c0.1,0.01,0.2,0.03,0.3,0.04c0-0.16,0.01-0.36,0.01-0.52c-0.07-0.2-0.07-0.2-0.07-0.2s0,0,0,0     c0,0,0,0,0,0s0,0,0,0c0,0,0,0,0,0s0,0,0,0s0,0,0,0s0,0,0,0c0.08-0.14,0.2-0.32,0.28-0.45c-0.14-0.03-0.33-0.07-0.47-0.11     c0.02-0.15,0.05-0.35,0.07-0.5c0.12-0.27,0.15-0.26,0.19-0.26c0.28-0.21,0.64-0.52,0.88-0.78c-0.17-0.1-0.39-0.23-0.55-0.33     c-0.21-0.17-0.44-0.45-0.55-0.7l-0.27-0.13c-0.47,0.05-0.95,0-1.42-0.04l-4.4,9.58l9.44-1.54c-0.01-0.01-0.02-0.01-0.03-0.02     C318.24,80.75,318.02,80.65,317.86,80.58z"
   id="path38"
   style="fill:#ffffff" />
			<path
   class="st0"
   d="M402.03,73.86l-4.2-21.5c-1.21-1.47-2.7-3.33-4.01-4.84l-21.84-9.53L402.03,73.86z"
   id="path39"
   style="fill:#ffffff" />
			<path
   class="st0"
   d="M318.54,44.9c0.12,0.15,0.26,0.29,0.4,0.38c0.09-0.04,0.22-0.08,0.31-0.12c-0.01,0.02-0.03,0.05-0.04,0.08     c0.61,0.13,1.62,0.35,3.83-0.73c0.06,0.01,0.12,0.02,0.19,0.03c-0.08,0.2-0.19,0.48-0.27,0.69c0.05,0.06,0.11,0.13,0.17,0.2     l0.57-1.25L318.54,44.9z"
   id="path40"
   style="fill:#ffffff" />
			<path
   class="st0"
   d="M309.86,72.61c-0.43-0.14-0.91-0.09-1.32-0.31c-2.14-0.26-2.23-0.26-9.41,0.69l4.89,5.75l2.49,2.93     l4.14-9.02c-0.11-0.1-0.24-0.19-0.35-0.24C309.89,72.5,309.87,72.56,309.86,72.61z"
   id="path41"
   style="fill:#ffffff" />
			<path
   class="st0"
   d="M329.09,43.27l-0.46,0.09l1.01,0.89c0.01-0.07,0.02-0.14,0.02-0.23C329.47,43.89,329.45,43.87,329.09,43.27z     "
   id="path42"
   style="fill:#ffffff" />
			<path
   class="st0"
   d="M414.3,89.29c-0.04-0.06-0.06-0.13-0.11-0.19c-0.03-0.04-0.1-0.04-0.12-0.1c-0.08-0.2-0.29-1.01-0.29-1.02     c0,0-0.04-0.32-0.07-0.64l-7.84-6.01l1.01,8.22c0.04,0.06,0.08,0.12,0.13,0.19c0.33,0.96,0.33,0.96,1.15,2.57     c0.1,0.11,0.12,0.09,0.15,0.08c-0.01-0.09-0.02-0.21-0.03-0.3c0.11-0.14,0.09-0.2,0.08-0.26c0.15,0.15,0.3,0.41,0.35,0.62     c0.04,0,0.1,0.01,0.14,0.01c0.39,1.68,1.04,3.29,1.25,5.01c0.09,0,0.21,0,0.3,0c0.03,0.04,0.06,0.1,0.09,0.15     c0.8-0.67,0.33-1.61,0.53-2.42c1.78,1.52,3.18,13.53,3.79,19.11c0.45-1.59,1.62-8.3,1.64-8.3c0,0.1-0.57-5.4-0.58-7.86     c-0.09-0.7-0.23-1.65-0.23-1.65c-0.3-1.41-0.72-5.33-1.42-8.77l-0.11-0.08C414.18,88.07,414.31,88.72,414.3,89.29z"
   id="path43"
   style="fill:#ffffff" />
			<path
   class="st0"
   d="M401.29,76.94l-32.86-39.23l-4.46,36.05L401.29,76.94z M364.76,70.16     C364.76,70.16,364.76,70.16,364.76,70.16c0.01,0,0.01,0.01,0.01,0.01c-0.08,0.01-0.16,0.01-0.24,0.02c0,0,0-0.01-0.01-0.01     C364.54,70.18,364.54,70.18,364.76,70.16z"
   id="path44"
   style="fill:#ffffff" />
			<path
   class="st0"
   d="M346.58,64.01c-0.16,0.09-0.15,0.17-0.14,0.25c0.21-0.07,0.49-0.16,0.7-0.23c0.04,0.22,0.19,0.5,0.34,0.67     c0.11,0.01,0.25,0.02,0.35,0.03c1.25,1.71,4.96,1.57,4.41,4.48c-1.36,0.86-1.45,0.83-2.16,0.59c-1.11,0.86-2.01-0.23-3.02-0.33     c-0.06,0.07-0.14,0.16-0.19,0.22c-0.39-0.11-0.39-0.11-0.77-0.74c-0.98,0.02-1.88-0.37-2.84-0.5c-0.25,0.04-0.25,0.07-0.24,0.1     c-0.62,0.09-1.1,0.56-1.73,0.63c-0.08,0.09-0.08,0.14-0.08,0.19c-0.58,0.37-0.58,0.37-1.36,0.19c-0.06-0.04-0.06-0.06-0.06-0.09     c-0.39,0.17-0.39,0.17-1.34,0.02c-0.05,0.09-0.12,0.22-0.18,0.32c0.21,0.07,0.49,0.16,0.7,0.23c-0.21,0.01-0.49,0.05-0.7,0.1     c0.26,0.02,0.51,0.04,0.77,0.05c-0.15-0.01-0.3-0.01-0.45-0.02c-0.6,0.2-1.07,0.34-1.68,0.12c-0.09,0.12-0.09,0.23-0.09,0.34     c-1.53-0.12-1.64,0.36-1.78,0.97c0.24,0.21,0.54,0.51,0.73,0.76c-0.03,0.18-0.08,0.41-0.11,0.59c0.29,0.4,0.28,0.45,0.28,0.51     c-0.14,0.04-0.34,0.1-0.48,0.14c-0.37-0.14-0.37-0.09-0.37-0.03c0.02,0.15,0.06,0.35,0.08,0.51c0.14-0.01,0.34-0.03,0.48-0.04     c0.55,0.6,0.55,0.6,0.34,1.51c0.28,0.1,0.69,0.15,0.98,0.13c0.37,0.52,0.37,0.52,1.18,0.74c0.42,0.73,0.65,0.81,1.25,0.94     c0.75,0.16,0.64-0.97,1.33-0.94c0.51,0.02,0.91,0.3,1.32,0.57l4.11-0.67c0.06-0.03,0.1-0.06,0.16-0.09     c0.02,0.02,0.04,0.04,0.06,0.05l13.3-2.17l-3.05-2.69l-9.08-8c-0.01,0.05-0.04,0.1-0.05,0.14     C347.04,63.65,347.04,63.65,346.58,64.01z"
   id="path45"
   style="fill:#ffffff" />
			<path
   class="st0"
   d="M346.7,79.46c0.11,0.12,0.25,0.28,0.36,0.4c-0.29,1.14-1.13,2.1-1.05,3.35c-0.12,0.1-0.27,0.23-0.38,0.34     c-0.11,1.72-2.25,0.92-3.38,1.39c0.01-0.25,0.01-0.31,0.01-0.37c-0.14-0.03-0.34-0.07-0.48-0.11c-0.02,0.15-0.04,0.35-0.06,0.5     c-0.11,0.03-0.26,0.08-0.37,0.11c-0.25-0.17-0.63-0.32-0.92-0.38c-0.08,0.12-0.19,0.29-0.27,0.41c-0.19-0.04-0.19-0.04-1.58,0.02     c-0.61-0.6-1.53,0.01-2.15-0.57c-0.8-0.2-1.51-0.75-2.38-0.69c-0.2-0.18-0.46-0.42-0.65-0.6c-0.3-0.03-0.7-0.08-1-0.13     c-0.22-0.14-0.22-0.23-0.21-0.32c-0.49-0.13-0.99-0.13-1.48-0.23c-0.18-0.29-0.22-0.34-1.42-0.94l-2.58,0.42     c-0.16,0.17-0.32,0.33-0.48,0.44c0.12,0.4,0.24,0.94,0.29,1.35c-0.48,0.54-0.48,0.54-1.2,1.02c-1.83-0.42-3.3-1.05-4.39-1.87     l-11.34,1.94l33.34,39.59l7.72-20.29c-0.32-0.31-0.57-0.6-0.61-0.78c-0.07-0.03-0.15-0.07-0.22-0.1     c-0.01-0.18-0.01-0.43-0.02-0.62c0.02-0.52,0.02-0.62,0.02-0.72l0.22-0.09c0-0.35-0.1-0.81-0.23-1.14     c0.11-0.81-1.57-3.01-2.08-3.24c-0.02-0.58-0.55-1.12-0.15-1.73c-1.36-1.63-1.52-3.93-3.09-5.44c0.02-1-0.99-1.51-1.14-2.43     c1.1,0.26,1.08,1.71,2.14,2c0.2-0.17,0.45-0.42,0.6-0.62c0.83,0.4,0.89,1.47,1.67,1.92c0.17,0.63,0.17,0.63,0.92,1.19     c0.2,0.21,0.2,0.27,0.2,0.33c0.07,0,0.14,0,0.21,0c0.18,0.53,0.29,1.08,0.45,1.61c0.19,0.19,0.26,0.19,0.33,0.19     c2.53,1.89,1.41,3.87,1.4,3.89c0.46,0.54,0.53,1.27,0.76,1.92l8.56-23.85l-13.89,2.27c0.05,0.06,0.09,0.12,0.13,0.18     C346.81,79.12,346.75,79.32,346.7,79.46z M343.25,86.97c0.02-0.02,0.05-0.01,0.05-0.01c0,0,0,0,0,0     c-0.01,0.01-0.01,0.08-0.01,0.12c0,0.11,0.02,0.23,0.02,0.34C343.15,87.4,343.16,87.03,343.25,86.97z"
   id="path46"
   style="fill:#ffffff" />
			<path
   class="st0"
   d="M362.03,25.67c-0.16-0.05-0.3-0.1-0.62-0.21c0.01,0.01,0.01,0.01,0.02,0.02l0.29,0.1     c-0.17-0.02-0.4-0.06-0.57-0.09c0.19,0.13,0.19,0.13,0.7,0.31c-0.64-0.16-1.08-0.28-1.08-0.28c0.1,0.06,0.23,0.13,0.33,0.18     c0.01,0.01,0.01,0.01,0.02,0.02c-0.21-0.03-0.41-0.13-0.61-0.18c-0.35-0.1-0.64-0.31-0.96-0.45c-0.21-0.09-0.21-0.1-0.21-0.1     c-0.16-0.05-0.16-0.05-0.74-0.09c0.25,0.26,0.31,0.3,1.13,0.58c0.11,0,0.19,0.03,0.27,0.05c0.03,0,0.06,0,0.09-0.01c0,0,0,0,0,0     c0,0,0,0,0.01,0.01c0.06,0.02,0.13,0.05,0.19,0.07c-0.04-0.04-0.1-0.07-0.13-0.08c-0.01,0-0.01,0-0.02-0.01     c0.18-0.01,0.27,0.02,0.5,0.19c0.07,0.03,0.17,0.06,0.24,0.09c-0.07,0.02-0.16,0.06-0.23,0.08c0.02,0.22,0.08,0.25,0.14,0.27     c-0.11-0.01-0.26-0.03-0.37-0.02c-0.08,0-0.18,0.01-0.26,0.01c-0.19-0.07-0.19-0.08-0.19-0.09c-0.46-0.17-0.46-0.17-0.73-0.06     l-0.15,0.1c0.14,0.07,0.31,0.17,0.45,0.25c0.18,0.07,0.36,0.14,0.54,0.21c0.05,0.07,0.1,0.14,0.17,0.17     c-0.73-0.25-0.73-0.25-0.76-0.26c0.08,0.04,0.18,0.09,0.26,0.13c-0.08,0.01-0.18,0.02-0.27,0.03c-0.58-0.27-1.19-0.48-1.67-0.87     c-0.18-0.08-0.33-0.13-0.48-0.18c0.14,0.05,0.28,0.1,0.42,0.15c0,0-0.09-0.05-0.25-0.11c-0.15-0.05-0.29-0.09-0.34-0.1     c0,0,0,0,0,0c-0.17-0.03-0.39-0.08-0.56-0.13c0.02,0,0.05,0,0.07,0.01c-0.02-0.01,0.04-0.02,0.05-0.03h0     c-0.27-0.09-0.55-0.18-0.82-0.27c-0.59-0.12-1.17-0.24-1.76-0.35c0.12,0.09,0.26,0.27,0.31,0.42c0.15,0.07,0.35,0.16,0.5,0.24     c-0.35-0.06-0.68-0.18-1.04-0.23c-0.43,0.04-0.82-0.29-1.26-0.17c0.08,0.04,0.18,0.09,0.26,0.12c0,0.04,0,0.08,0,0.12     c0.28,0.2,0.6,0.34,0.89,0.52c0.31,0.12,0.31,0.12,0.83,0.25c-0.06,0.05-0.14,0.12-0.2,0.18c1.02,0.39,1.02,0.39,1.22,0.5     c-0.64-0.25-0.64-0.25-0.82-0.31c0.12,0.12,0.29,0.27,0.43,0.36c0.13,0.13,0.13,0.13,0.12,0.14c-0.1-0.04-0.23-0.1-0.33-0.11     c0.07,0.03,0.17,0.08,0.24,0.11c0.01,0.09-0.03,0.08-0.07,0.06c-0.45-0.3-0.45-0.3-0.75-0.23c0.03,0.03,0.06,0.07,0.09,0.1     c-0.08-0.01-0.18-0.02-0.26-0.04c-0.03,0.04-0.04,0.05-0.04,0.05c0.12,0.11,0.24,0.32,0.27,0.48c-0.05,0.06-0.13,0.13-0.18,0.19     c0.08,0.1,0.18,0.23,0.26,0.33l-0.02,0.13c0.53,0.43,0.53,0.43,0.75,0.55c-0.08-0.01-0.19-0.01-0.27-0.02     c0.16,0.07,0.37,0.16,0.53,0.22c0.11,0.04,0.15,0.06,0.19,0.08c-0.11,0.11-0.06,0.14,0,0.17c1.31,0.24,2.52,0.8,3.8,1.15     c-2.23-0.43-2.29-0.42-2.67-0.37c-0.14-0.11-0.36-0.22-0.52-0.29c-0.06,0.05-0.14,0.12-0.21,0.17c0.02,0.03,0.04,0.08,0.06,0.11     c-0.08-0.02-0.19-0.04-0.27-0.06c-0.04,0.04-0.09,0.09-0.14,0.13l9.35,2.81L362.03,25.67z M360.69,27.47     c0.02,0.02,0.05,0.03,0.07,0.05c0,0.02,0.01,0.03,0.01,0.05C360.74,27.54,360.71,27.51,360.69,27.47z"
   id="path47"
   style="fill:#ffffff" />
			<path
   class="st0"
   d="M330.23,50.27c-0.06-0.08-0.15-0.18-0.21-0.26c-0.09,0.06-0.21,0.13-0.3,0.19     c-0.08,0.02-0.13,0.01-0.17,0.01c-0.32,0.75-0.32,0.75-0.45,0.9c-0.35,0-0.67,0.13-1.01,0.16c-0.15-0.19-0.14-0.26-0.13-0.32     c-0.08-0.07-0.19-0.17-0.27-0.24c-0.99,0.11-1.74,0.51-1.75,0.51c-0.17-0.04-0.41-0.04-0.57,0.02c-0.69,0.08-1.3-0.18-1.92-0.4     l-6.6,14.39c0.28,0.94,0.87,2.1,2.13,2.62c0.2,0.13,0.2,0.15,0.2,0.18c0.58-0.06,0.64,0.04,0.9,0.47     c0.08,0.05,0.13,0.08,0.17,0.1c0.01,0.17,0.15,0.38,0.42,0.41c0.21,0.02,0.21,0.02,0.26,0.48c0.05,0.46,0.66,0.18,0.83,0.52     c0.07,0.15,0.25,1.21,0.22,1.62c-0.09,0.01-0.21,0.03-0.3,0.04c-0.19,0.76-0.19,0.76-1.18,0.84c-0.18,0.02-0.74,0.06-1.27-0.05     c-0.16-0.03-0.16-0.03-0.23-0.12c-0.15-0.19-0.2-0.25-0.53-0.18c-0.2,0.04-0.32-0.12-0.49-0.18c-0.01,0.02-0.02,0.05-0.04,0.07     c-0.05,0-0.11-0.02-0.16-0.02c-0.04,0.12-0.02,0.26-0.08,0.37c0.18,0.14,0.31,0.33,0.5,0.45c0.17,0.11,0.39,0.09,0.55,0.23     c0.1,0.08,0.08,0.21,0.13,0.31c0.01,0.02,0.06,0.05,0.24,0.04c0.23-0.01,0.88,0.32,1.03,0.67c0.15,0.05,0.31,0.01,0.46,0.05     c0.09-0.13-0.15-0.29,0.01-0.4c0.11-0.07,0.28-0.02,0.35-0.17c0.08-0.17,0.08-0.35,0.15-0.52c-0.03,0-0.06,0-0.09-0.01     c-0.05-0.25-0.01-0.28,0.19-0.37c0.03,0.1,0.12,0.16,0.15,0.26c0.08-0.02,0.09-0.02,0.22-0.01c0,0,0,0,0,0c0,0,0,0,0,0     c0,0,0,0,0,0s0,0,0,0c0,0,0,0,0,0c0,0,0,0,0,0c0,0,0,0,0,0c0,0,0,0,0,0c0.08,0.01,0.21,0.03,0.26-0.04     c0.08-0.1,0.04-0.24,0.13-0.34c0.01-0.01,0.1-0.04,0.27-0.1c0.24-0.07,0.24-0.07,0.37-0.54c0.05-0.16,0.13-0.17,0.32-0.2     c0.54-0.08,0.23-0.73,0.23-0.73c-0.05-0.07-0.13-0.1-0.18-0.18c-0.06-0.11-0.02-0.25-0.1-0.35c-0.09-0.11-0.25-0.1-0.35-0.19     c0.63-0.82,0.69-0.91,1.06-0.78c-0.01,0.05-0.01,0.1-0.02,0.15c0.27,0.09,0.54,0.15,0.82,0.24c0.01,0.4,0.01,0.4,0.03,0.45     c0.08-0.01,0.16,0.06,0.25,0.02c0.09-0.03,0.09-0.16,0.18-0.18c0.02-0.01,0.05-0.01,0.07-0.01c-0.06-0.15,0.03-0.31-0.03-0.45     c-0.03-0.06-0.09-0.08-0.21-0.12c-0.14-0.05-0.19-0.06-0.4-0.37c-0.48-0.56-1.18-0.78-1.76-1.19c0.04-0.11,0.09-0.25,0.13-0.36     c-2.25-1.19-2.25-1.19-2.39-2.43c-0.17-0.11-0.36-0.33-0.41-0.52c-0.05-0.05-0.08-0.05-0.11-0.06c0-0.02,0.01-0.05,0.01-0.07     c-0.81-0.45-0.81-0.45-1.11-0.73c0.19-0.46,0.19-0.46,0.65-0.93c-0.01-0.2-0.05-0.47-0.11-0.66c0.08,0,0.08,0,1.43-0.2     c0,0.1,0.01,0.23,0.02,0.33c-0.08,0.07-0.18,0.16-0.25,0.23c0.09,0.24,0.18,0.59,0.2,0.84c0.42-0.19,0.77-0.49,1.19-0.69     c0.2,0.46,0.05,1.04,0.49,1.42c-0.05,0.09-0.11,0.22-0.16,0.31c-0.01,0.07-0.03,0.14-0.04,0.21c0.01,0.01,1.1,0.72,1.55,0.69     c1.04,1.01,2.54,1.44,3.34,2.73c-0.17,0.66-0.24,0.91-0.27,1.01c-0.04,0-0.07-0.01-0.11-0.01c-0.12,0.77,0.89,1.16,0.94,1.82     c-0.04-0.05-0.04-0.05-0.08-0.09c-0.02,0.07-0.02,0.14-0.03,0.22c0.16,0.08,0.2,0.28,0.38,0.34c0.07,0.03,0.17,0.06,0.19,0.09     c0.04,0.08-0.05,0.15-0.02,0.22c0.06,0.17,0.24,0.22,0.35,0.34c0.41-0.04,0.41-0.04,0.48-0.03c-0.1,0.11-0.29,0.12-0.34,0.29     c-0.01,0.04-0.01,0.04,0.06,0.67c1.01,0,1.5,0.26,2.07,0.56c-0.31,0.14-0.31,0.14-0.39,0.12c-0.2-0.05-0.28-0.26-0.46-0.34     c-0.61-0.29-0.88-0.05-1.17,0.2c0.35,0.49,0.35,0.49,0.19,1.09c0.15,0.1,0.15,0.1,0.18,0.17c0.13-0.02,0.14-0.02,0.19-0.13     c0.06-0.02,0.26,0.01,0.32,0.08c0.01,0.01,0.01,0.01,0.91,0.16c0.03-0.05,0.04-0.1,0.04-0.15c-0.16-0.23-0.24-0.4,0.24-0.3     c0.18,0.04,0.34,0.15,0.53,0.13c0.12-0.01,0.14-0.14,0.2-0.2c-0.13-0.11-0.31-0.25-0.44-0.35c-0.02-0.07,0.02-0.13,0.03-0.2     c0.45-0.06,0.64,0.08,1.02,0.36c0.03-0.23,0.02-0.45,0.04-0.68c-0.79-0.4-0.79-0.4-0.85-0.45c-0.02-0.02-0.06-0.05-0.07-0.08     c0-0.01-0.07-0.37-0.07-0.37c0.06-0.02,0.06-0.02,0.26,0.22c0.13,0.16,0.32,0.23,0.47,0.36c0.02,0.01,0.02,0.01,0.09,0.16     c0.57,0.03,0.57,0.03,0.65,0.12c0.43,0.43,0.43,0.43,0.43,0.43c0.02,0,0.05-0.02,0.08-0.03c-0.01-0.27-0.47-0.75-0.52-0.8     c-0.02-0.02-0.04-0.04-0.06-0.05c-0.2-0.14-0.45-0.14-0.65-0.28c-0.11-0.08-0.08-0.24-0.2-0.32c-0.15-0.11-0.15-0.11-0.72-0.05     c0-0.01,0-0.02,0-0.03c0.04-0.04,0.09-0.05,0.13-0.09c-0.1-0.06-0.1-0.06-0.26-0.56c0.11,0.06,0.15,0.19,0.26,0.25     c0.14,0.06,0.22,0.05,0.34,0.04c0.07-0.4-0.44-0.4-0.51-0.71c-0.03-0.13,0.05-0.27-0.04-0.4c-0.08-0.12-0.24-0.08-0.35-0.15     c0-0.07,0.01-0.16,0.04-0.22c0.13-0.21,0.32-0.38,0.46-0.59c0.16,0.29,0.23,0.62,0.44,0.88c0.11,0.13,0.28,0.1,0.42,0.16     c-0.1-0.1-0.17-0.22-0.26-0.32c0,0,0,0,0,0c0,0,0,0,0,0c0,0,0,0,0,0c0,0,0,0,0,0c0,0,0,0,0,0c0,0,0,0,0,0c0,0,0,0,0,0     c0,0,0,0,0,0c0.04,0,0.04,0,0.19-0.13c0.3,0.17,0.53,0.3,0.42-0.06c-0.01-0.02-0.03-0.05-0.04-0.06     c0.14,0.01,0.28,0.06,0.43,0.05c-0.08-0.23-0.32-0.31-0.46-0.48c0.06-0.09,0.13-0.2,0.18-0.29c2.06,0.13,2.06,0.13,2.45,0.09     c0.04,0.11,0.09,0.25,0.13,0.35l0.09,0.05l0.05,0.03c0.1,0.01,0.19,0.01,0.29,0.02l-0.4,0.23c0.01,0.11-0.05,0.23,0,0.34     c0.01,0.03,0.09,0.05,0.17,0.04c0.03,0,0.03,0,0.59-0.38c0.13-0.09,0.15-0.09,0.22-0.11c0.15-0.04,0.31-0.03,0.46-0.06     c0.02,0,0.05-0.01,0.07-0.02c0.27-0.28,0.27-0.28,1.58-0.37c0.05-0.09,0.12-0.2,0.18-0.29c-0.76-0.32-0.76-0.32-1.47-1.33     c0.04-0.16,0.09-0.36,0.13-0.52c0.03,0,0.06,0,0.09,0.01c0-0.11,0-0.25,0-0.36c0.73-0.56,0.73-0.56,0.84-0.67     c0-0.26-0.02-0.6-0.05-0.85c0.12-0.09,0.29-0.21,0.42-0.31c-0.02-0.1-0.04-0.23-0.06-0.33c0.2-0.03,0.45-0.18,0.57-0.33     c-0.01-0.12-0.03-0.27-0.04-0.39c0.13-0.22,0.07-0.22,0.01-0.23c0-0.07,0-0.14,0-0.22c1-0.79,1-0.79,1.22-1.21     c0.13-0.07,0.18-0.07,0.24-0.07l0.16-0.13c1.06,0.05,1.06,0.05,1.35,0.19c-0.21,0.02-0.48,0.1-0.67,0.19     c0.11,0.02,0.26,0.05,0.37,0.08c0.05,0.06,0.06,0.11,0.06,0.15c0.2,0.02,0.46,0.16,0.6,0.31c0.05,0,0.11,0,0.16,0.01     c0.07-0.09,0.17-0.21,0.24-0.29c0.1-0.01,0.24-0.02,0.35-0.03c0.07,0.06,0.16,0.14,0.22,0.21l0.43,0.23     c-0.31,0.13-0.73,0.32-1.04,0.47l-0.31,0.35l0.5-0.05c0.72,0.27,0.79,0.49,0.67,1.17c1.07,0.05,1.98-0.59,3.02-0.68     c0.04-0.11,0.1-0.25,0.14-0.35c-0.09-0.05-0.22-0.12-0.31-0.17c-0.17,0.06-0.17,0.06-1.05,0.04c-0.31,0-0.32-0.05-0.32-0.09     c-0.03-0.11-0.07-0.26-0.09-0.37c-0.32-0.11-0.57-0.37-0.9-0.46c-0.05-0.09-0.12-0.22-0.17-0.31c0.1-0.03,0.24-0.07,0.34-0.1     c0.22,0.06,0.23,0.11,0.23,0.16c0.22,0.02,0.51,0.03,0.73,0.04c0.16-0.07,0.15-0.12,0.15-0.16c0.18-0.11,0.43-0.24,0.61-0.34     c0-0.02-0.01-0.05-0.01-0.07c0.09,0.04,0.21,0.1,0.3,0.15c0.09-0.05,0.21-0.12,0.29-0.17c0.32-0.07,0.32-0.07,0.32-0.07     c0,0,0,0,0,0c0,0,0,0,0,0s0,0,0,0s0,0,0,0s0,0,0,0c0,0,0,0,0,0c0,0,0,0,0,0c0.03-0.01,0.07-0.03,0.11-0.05l-15.86-13.97     c-0.1,0.4-0.17,0.89-0.16,1.52C330.45,50.16,330.32,50.22,330.23,50.27z M330.83,72.41c0.05-0.03,0.2-0.04,0.29-0.05     c-0.01,0.01-0.03,0.04,0.09,0.24c-0.01,0-0.02-0.01-0.04-0.01C330.88,72.49,330.76,72.45,330.83,72.41z"
   id="path48"
   style="fill:#ffffff" />
			<path
   class="st0"
   d="M389.18,42.72c-2.35-2.35-3.76-3.56-7.2-6.36l-2.09-1.59l0.01,0.01c-5.14-3.8-9.87-6.4-11.66-7.34     l-3.25-1.41l3.49,7.66L389.18,42.72z"
   id="path49"
   style="fill:#ffffff" />
			<path
   class="st0"
   d="M315.34,176.57c0,0.07-0.01,0.13-0.03,0.22c0.07,0.06,0.16,0.14,0.23,0.21c0.23-0.03,0.23-0.09,0.23-0.15     c0.62,0.21,1.18,0.57,1.84,0.66c0.04-0.03,0.1-0.08,0.14-0.11c0.37-0.05,0.74-0.09,1.12-0.14c0-0.06,0.01-0.12,0.01-0.18     c0.8,0.09,1.22,0.14,1.45,0.16l-2.65-2.41L315.34,176.57z"
   id="path50"
   style="fill:#ffffff" />
			<path
   class="st0"
   d="M368.2,119.76c0-0.25,0.01-0.28,0.05-0.45c0.06-0.03,0.15-0.08,0.21-0.11c0.03-0.14,0.03-0.14,0.01-0.24     c-0.03-0.25-0.03-0.25,0.33-1.1c0.31-0.74,0.17-1.55,0.33-2.31c0.02-0.08,0.04-0.18,0.06-0.25c-0.18-0.04-0.32-0.19-0.52-0.17     c-0.12,0.02-0.14,0.05-0.2,0.16c-0.12,0.2-0.58,0.43-1.37,0.69c-0.03,0.01-0.06,0.02-0.09,0.03c-0.39,0.09-0.79-0.03-1.18,0.01     c-0.36,0.04-0.57,0.38-0.92,0.44c-0.54,0.06-0.54,0.06-1.94,0.89c-0.69-0.15-4.92-1.49-5.03-1.59c-0.16-0.07-0.16-0.14-0.16-0.2     c0.84-0.69,1.15-1.08,0.28-1.77l-0.24-0.19l-0.56-0.44c-0.07,0-0.15,0-0.22,0c-0.22-1.07-1.15-1.63-1.72-2.45     c-0.32-0.06-0.7-0.35-0.89-0.61c-0.15-0.02-0.34-0.04-0.49-0.06c-0.06-0.15-0.13-0.35-0.19-0.5c-0.28-0.03-0.66-0.18-0.88-0.37     c0.04-0.8-0.06-1.55-0.26-2.31l-7.04,19.03l21.9-5.14c0,0,0.09,0.03,0.09,0.03C368.2,120.17,368.2,120.17,368.2,119.76z"
   id="path51"
   style="fill:#ffffff" />
			<path
   class="st0"
   d="M343.25,40.79c-0.1,0.04-0.22,0.09-0.32,0.13c-0.06-0.03-0.07-0.06-0.07-0.09     c-0.13-0.04-0.25-0.08-0.35-0.11l-11.31,2.15c0,0.11,0,0.21,0.02,0.3c0.17-0.03,0.21-0.03,0.25-0.02c0,0.1,0,0.24,0.01,0.35     c0.06,0.18,0.12,0.19,0.18,0.19c0.09-0.04,0.21-0.1,0.31-0.15c0.04,0.09,0.09,0.22,0.13,0.31c-0.16,0.14-0.3,0.41-0.33,0.61     c0.2-0.04,0.45-0.1,0.64-0.16c0.14,0.35,0.14,0.41,0.13,0.46c0.16,0.13,0.39,0.29,0.57,0.39c0.83-0.27,1.54-0.89,2.47-0.86     c0.14-0.01,0.14-0.07,0.14-0.13c0.17-0.07,0.17-0.09,0.17-0.11c0.09,0.04,0.22,0.09,0.31,0.13c0.16,0,0.16-0.02,0.16-0.04     c0.1-0.05,0.23-0.11,0.33-0.15c0.14,0.37,0.14,0.37,0.71,0.86c0.45-0.1,0.57-0.13,0.92,0.3c-2.25,0.5-2.25,0.5-2.33,0.45     c-1.08,0.74-2.16-0.02-3.24,0c-0.06,0.8-0.06,0.8,0.1,1.11c0.39,0.08,0.42-0.03,0.48,0.7l28.11,24.84l4.49-36.03l-22.77,4.36     c0.01,0.03,0.02,0.05,0.03,0.08C343.22,40.71,343.23,40.75,343.25,40.79z M340.49,44.67c-0.16-0.08-0.17-0.09-0.27-0.11     c0.03,0.1,0.1,0.19,0.08,0.31c-0.02,0.1-0.12,0.05-0.15,0.03c-0.24-0.13-0.34-0.02-0.56,0.23c-0.03-0.01-0.03-0.01-0.36-0.07     c-0.03-0.12,0.01-0.24-0.04-0.36c-0.03-0.07-0.12-0.14-0.22-0.22c-0.23-0.18-0.27-0.21-0.29-0.46c0-0.07-0.01-0.15-0.06-0.23     c-0.07-0.11-0.22-0.1-0.3-0.19c-0.08-0.08-0.08-0.2-0.14-0.29c0.04,0,0.08,0,0.11,0.01c0.01-0.01,0.01-0.01,0.09-0.23     c0.08,0.01,0.08,0.01,0.06,0.06c0.05,0,0.1,0.01,0.15,0.01c0.02,0,0.05,0,0.07,0c0.01-0.07-0.04-0.14,0.02-0.2     c0.02-0.02,0.13-0.04,0.16-0.01c0.03,0.03-0.01,0.09,0.05,0.11c0.01,0,0.01,0,0.32,0.01c0.09,0.21,0.11,0.26,0.15,0.3     c0.07,0.06,0.16,0.02,0.23,0.07c0.38,0.26,0.61,0.68,0.93,1.26C340.52,44.68,340.5,44.67,340.49,44.67z"
   id="path52"
   style="fill:#ffffff" />
			<path
   class="st0"
   d="M345.96,128.67l7.44,8.93c0.53-0.49,1.14-1.09,2.16-2c-0.03-0.09-0.08-0.22-0.11-0.31     c0.06-0.03,6.75-5.38,7.06-6.34c0.1,0,0.31-0.1,0.49-0.2c-0.03-0.01-0.06-0.01-0.09-0.02c0.05,0,0.09,0,0.14,0     c-0.02,0.01-0.03,0.02-0.05,0.03c0.02,0,0.04,0.01,0.05,0.01l0.23-0.2c-0.03,0.02-0.08,0.06-0.14,0.1     c0.2-0.25,0.36-0.63,0.4-0.92c0.26-0.17,0.64-0.36,0.94-0.44c0.09-0.16,0.1-0.24,0.1-0.32l0.01-0.24l0.58-0.88     c0.1-0.08,0.24-0.07,0.31-0.19c0.15-0.25-0.06-0.55,0.11-0.8c0.2-0.29,0.62-0.39,0.64-0.82c0.01-0.16,0.04-0.13,0.04-0.2     l-8.76,2.09L345.96,128.67z"
   id="path53"
   style="fill:#ffffff" />
			<path
   class="st0"
   d="M371.86,93.35c-0.23,0.47-0.87,0.53-1.06,1.04c-0.07,0.01-0.16,0.01-0.23,0c-0.04,0.11-0.03,0.2-0.02,0.29     c-0.26,0.06-0.26,0.06-1.15-0.3c-0.39-0.15-0.49,0.37-0.82,0.37c-0.09,0-0.09,0-0.62-0.08c-0.03-0.08-0.06-0.17-0.1-0.25     c-0.18-0.05-0.18-0.05-0.42-0.06c-0.03-0.03-0.06-0.07-0.09-0.1c0.13-0.8,0.08-1.38-0.2-2.16c-0.09,0.01-0.19,0.01-0.29,0.02     c-0.07,0.62-0.08,0.65-0.56,0.93c0.01,0.09,0.02,0.18,0.03,0.27c-0.06,0-0.13,0.01-0.19,0.01c-0.09-0.12-0.09-0.12-0.32-0.25     c-0.01-0.06-0.01-0.12-0.02-0.18c0-0.01-0.12-1.45-0.2-1.6c-0.06,0-0.13,0.01-0.19,0.01c-0.01-0.01-1.06-0.82-1.06-1.39     c-0.27-0.04-0.27-0.04-0.42-0.41c-0.07,0.01-0.16,0.01-0.22,0.02c-0.16-0.17-0.36-0.59-0.54-0.86c-0.08-0.21-0.22-0.47-0.38-0.61     c-0.07-0.13-0.15-0.31-0.22-0.44c-0.22-0.25-0.28-0.25-0.35-0.25c-0.01-0.32,0-0.75,0.05-1.06c0.13,0.07,0.3,0.15,0.43,0.22     c0.18-0.09,0.18-0.14,0.17-0.18c-0.13-0.1-0.3-0.23-0.43-0.33c-0.01-0.12,0.27,0.02,0.39,0.02c0.1,0.01,0.23,0.02,0.33,0.03     c0.07-0.07,0.16-0.16,0.23-0.23c0.58,0.37,0.74,0.44,1.56,0.18c0.32,0.44,1.18,1.61,1.18,1.61c-0.01,0.11-0.03,0.25-0.04,0.36     c0.16,0.12,0.38,0.28,0.53,0.41c0.01,0.1,0.02,0.24,0.03,0.34c0.17,0.1,0.4,0.22,0.57,0.31c0.09,0.42,0.1,0.45,0.55,0.87     c0.29,0.17,0.35,0.17,0.41,0.16c0.01,0.1,0.03,0.22,0.04,0.32c0.29,0.21,0.67,0.48,0.95,0.69c0.68-0.06,1.15,0.28,1.8,0.35     c0.01-0.01-0.1-0.04-0.09-0.05l-8.06-13.43l-8.66,24.27c1.05,0.88,1.05,2.51,1.05,2.53c2,1.05,1.79,2.36,1.66,3.15     c0.07,0.07,0.15,0.16,0.22,0.23c-0.01,0.3-0.1,0.71-0.24,0.98c0.35,0.62,0.4,0.76,0.41,1.46c0.12,0.09,0.29,0.22,0.41,0.31     c0.01,1.03,0.01,1.03,0.14,1.44c1.09,0.4,1.09,0.4,1.79,0.19c0.28-0.03,0.66-0.1,0.94-0.17c0.73-1.5,2.6-0.68,3.55-1.74     c0.14,0,0.34,0.01,0.48,0.01c0-0.02,0-0.05,0-0.07c0.18,0.01,0.48,0.09,0.64,0.02c0-0.06,0-0.12,0-0.19     c0.39-0.36,0.94-0.74,0.95-0.74c0.7-0.43,1.52-0.61,2.26-0.95c0.63-0.29,0.91-1.04,1.61-1.25c-0.2-0.76-0.28-1.08,1.82-1.58     c0.08-0.09,0.07-0.15,0.07-0.22c1.39-0.59,1.39-0.59,1.75-1.52c0.66-0.07,0.9-0.14,1.42-0.4c-0.06-0.38,0.34-0.6,0.33-0.96     c0.19-0.18,0.19-0.18,1.25-0.49c-0.18-0.8-0.33-1.03-0.17-1.7l-4.63-7.5L371.86,93.35z"
   id="path54"
   style="fill:#ffffff" />
			<path
   class="st0"
   d="M320.19,171.5l15.85-2.59c1.4-0.78,3.08-0.76,4.48-1.54c-0.19-1.95,0.12-4.25,0.13-4.27     c-0.1-0.04-0.23-0.08-0.33-0.12c-0.25-0.56-0.05-1.09,0.09-1.35c0.96-0.24,1.82-0.92,2.56-2.03c1.03,0,1.03,0,1.24-0.13     c0.18,0.01,0.42,0.01,0.6,0.02c0.07-0.06,0.08-0.12,0.09-0.17c0.66-0.12,0.66-0.12,0.94-0.36l4.51-2.82     c-0.03-0.24-0.1-0.24-0.17-0.24c-0.14-0.4,0.32-1.94,0.82-2.19c-0.07-0.06-0.16-0.15-0.23-0.22l0.42-3.86     c-0.07-0.2-0.14-0.2-0.22-0.2c0-0.1-0.01-0.23-0.01-0.33c-0.51-0.31-1.71-1.04-0.22-4.2c-0.3-0.64-0.89-1.1-1.16-1.76     c0-0.03,0.01-0.06,0.01-0.09l0.38-0.27c0.35-1.03,0.35-1.03,0.61-1.28c0.5-0.98,0.5-0.98,0.7-1.93c0.07-0.07,0.11-0.11,0.16-0.13     l-7.72-9.34L320.19,171.5z"
   id="path55"
   style="fill:#ffffff" />
			<path
   class="st0"
   d="M394.55,105.29c0.91,2.28,1.87,4.36,1.88,4.37c0.19,0.87,2.34,5.3,2.36,5.34c0.37-0.16,0.78-0.34,1.63-3.37     c0.08-0.05,0.19-0.12,0.28-0.17c0.31-1.24-0.45-2.55,0.23-3.78c-0.53-3.02-0.53-3.02-0.47-3.81c-0.04-0.12-0.06-0.11-0.08-0.11     c-0.49-1.53,1.6-4.28,1.81-4.38c0.15-0.16,0.14-0.19,0.14-0.22c0.19-0.51,0.19-0.51,0.57-0.77c0.13-0.79,0.26-1.67,0.26-1.67     c0.05-0.09,0.09-0.11,0.12-0.13c-0.01-0.06-0.03-0.12-0.04-0.18c0.16-0.26,0.2-0.69,0.22-0.99c0.5-0.17,0.51-0.19,1.08-3.83     l-1-8.13L394.55,105.29z"
   id="path56"
   style="fill:#ffffff" />
			<path
   class="st0"
   d="M324.17,177.29c0.41,0,0.82,0.01,1.23,0.07c0.05-0.07,0.12-0.17,0.18-0.24c1.57-0.11,2.43-0.17,2.9-0.75     c0.11-0.03,0.18-0.02,0.25-0.02c6.21-3.86,6.21-3.86,6.47-3.94c-0.01-0.47-0.01-0.66,0.01-0.77l-14.63,2.39L324.17,177.29z"
   id="path57"
   style="fill:#ffffff" />
			<path
   class="st0"
   d="M364.94,76.41l8.42,13.8c0.04,0.02,0.07,0.04,0.1,0.06c0.67,0.45,0.62,1.4,1.29,1.86     c0.63,0.43,1.39,0.17,2.06,0.42c1.71-0.14,1.71-0.14,1.95-0.05c0.01,0.06,0.02,0.12,0.03,0.18c0.59-0.03,0.59-0.03,0.91-0.3     c0.09,0.01,0.21,0.03,0.3,0.04c0.08-0.09,0.18-0.21,0.26-0.3c0.33,0.04,0.66,0.12,1,0.14c0.03-0.09,0.07-0.2,0.1-0.29     c0.95-0.02,0.95-0.02,3.11-0.94c0.02,0.1,0.04,0.24,0.06,0.34c0.09,0.09,0.14,0.09,0.2,0.08c0.09,0.21,0.18,0.51,0.19,0.73     c0.92,0.25,0.92,0.25,1.34,1.02c0.09-0.03,0.22-0.06,0.31-0.09c0.19,0.09,0.21,0.18,0.23,0.27c0.18-0.03,0.42-0.08,0.6-0.11     c-0.01,0.2-0.01,0.2,0.16,1.05c0.02,0.01,1.82,0.98,2.06-0.44c0.08-0.05,0.18-0.11,0.25-0.16c0,0.53-0.34,0.96-0.42,1.46     c-0.23,0.04-0.52,0.1-1.04,0.54c0.12,0.23,0.12,0.23,1.94,2.07c0.51-0.09,1.35-0.97,1.35-1.76c0.07-0.05,0.16-0.13,0.23-0.18     c0.03,0.12,0.05,0.24,0.08,0.36c0.17,0.13,0.34,0.38,0.43,0.58c-0.04,0.04-0.09,0.09-0.13,0.13c-0.08,1.16,0.62,2.19,0.52,3.35     c0.05-0.01,0.1-0.02,0.15-0.03c0.03,0.38,0.14,0.87,0.3,1.43l9.1-22.08L364.94,76.41z"
   id="path58"
   style="fill:#ffffff" />
			<path
   class="st0"
   d="M378.16,96.54c-0.18-0.11-0.42-0.09-0.58-0.25c-0.24-0.24-0.26-0.61-0.5-0.86c0-0.03-0.01-0.06-0.01-0.09     c-0.27,0.01-0.5-0.09-0.72-0.21l0.14,0.24l1.47,2.41c0.13-0.45,0.25-0.95,0.25-0.96C378.21,96.74,378.18,96.63,378.16,96.54z"
   id="path59"
   style="fill:#ffffff" />
			<path
   class="st0"
   d="M407.03,66.93L407.03,66.93c0,0.01,0.01,0.02,0.01,0.02L407.03,66.93z"
   id="path60"
   style="fill:#ffffff" />
			<path
   class="st0"
   d="M360.11,151.01c-0.18,0.22-0.18,0.22-0.54,0.11c-0.01,0.13-0.03,0.48-0.11,0.75     c-0.32,0.05-0.32,0.05-0.25,0.41c-0.1,0-0.21,0.01-0.35,0.07c-0.05,0.1-0.08,0.21-0.12,0.31c-0.03,0.01-0.06,0.02-0.09,0.02     c-0.08-0.06-0.14-0.14-0.22-0.2c-0.4,0.19-0.29,0.7-0.59,0.96c-0.04-0.04-0.09-0.1-0.11-0.15c-0.2-0.01-0.4,0.03-0.89,0.28     c-0.05,0.07-0.13,0.17-0.18,0.25c-0.83-0.08-0.83-0.08-0.99,0.19c-0.3-0.08-0.3-0.08-0.38-0.07c0,0.01-0.87,0.65-1.68,0.92     c-0.04,0-0.07,0-0.14,0.07c-0.07,0.59-0.91,0.72-0.82,1.4c0.03,0.26,0.22,0.48,0.24,0.74c0.02,0.28-0.15,0.53-0.13,0.81     c0,0.04,0.01,0.08,0.01,0.12c0.06,0.02,0.13,0.05,0.19,0.07c-0.03,0.24,0.07,0.49-0.05,0.73c-0.09,0.19-0.36,0.13-0.46,0.32     c-0.01,0.03-0.03,0.07-0.04,0.1c-0.14,0.5-0.94,0.38-0.94,1.01c-0.01,0.05-0.03,0.1-0.04,0.15c-0.26,0.14-0.61,0.32-0.87,0.46     c-0.03,0.59-0.53,1.02-0.54,1.61c0,0.24,0,0.24,0.5,1c-0.18,0.21-0.18,0.21-0.19,0.24c0.05,0.04,0.11,0.1,0.16,0.14     c0.06,1.04,0.06,1.04,0.1,1.14c0.05,0.13,1.49,0.87,1.5,0.86c0.02,0,2.03-0.31,2.41-1.07c0.14-0.04,0.47-0.13,2.39-3.23     c0.57-0.42,0.73-1.11,1.11-1.65c0.34-0.49,0.38-1.15,0.88-1.55c0.46-0.36,0.67-0.91,1.02-1.36c0.44-0.58,0.6-1.36,1.27-1.77     c0.01-0.05,0.03-0.11,0.03-0.15c-0.03,0.01-0.06,0.02-0.09,0.03c-0.02-0.02-0.05-0.05-0.07-0.07c0.08-0.14,0.1-0.17,0.36-0.29     c0.03-0.16,0.11-0.31,0.12-0.48c-0.09-0.05-0.18-0.09-0.27-0.14c0-0.01-0.04-0.72,0.1-0.95c0.06-0.01,0.06-0.01,0.26-0.11     c0.14,0.25,0.15,0.28,0.25,0.63c0.07,0,0.14-0.01,0.21-0.01c0.3-0.5,0.43-0.71,0.49-0.81l-1.82-2.21     c-0.04,0.09-0.07,0.19-0.12,0.28C360.2,150.98,360.2,150.98,360.11,151.01z"
   id="path61"
   style="fill:#ffffff" />
			<path
   class="st0"
   d="M350.43,143.4c0,0.03,0.01,0.23,0.03,0.32c0.09,0.38,0.4-0.08,0.43-0.13c0,0,0,0,0,0     c-0.11-0.17-0.29-0.28-0.4-0.45C350.48,143.22,350.44,143.31,350.43,143.4z"
   id="path62"
   style="fill:#ffffff" />
			<path
   class="st0"
   d="M307.07,43.73c-0.01,0-0.03-0.01-0.04-0.01c-0.03,0.07-0.07,0.15-0.1,0.22l0.12-0.02     c0.03-0.02,0.06-0.04,0.08-0.06C307.22,43.77,307.11,43.75,307.07,43.73z"
   id="path63"
   style="fill:#ffffff" />
			<path
   class="st0"
   d="M333.45,34.02c0.01-0.02,0.03-0.03,0.08-0.07c0.05-0.04,0.12-0.1,0.13-0.15c0.01-0.05-0.05-0.06-0.08-0.07     c-0.01,0.03-0.03,0.06-0.04,0.09c-0.03,0.01-0.06,0.01-0.07,0c-0.05-0.02-0.09-0.05-0.13-0.07c0,0.05,0,0.07,0,0.09     c0.03,0.01,0.06,0.03,0.12,0.07C333.45,33.95,333.45,33.99,333.45,34.02z"
   id="path64"
   style="fill:#ffffff" />
			<path
   class="st0"
   d="M333.33,33.85c0,0-0.01,0-0.01,0c-0.03,0-0.02,0.02-0.02,0.02C333.31,33.88,333.32,33.88,333.33,33.85     C333.33,33.85,333.33,33.85,333.33,33.85z"
   id="path65"
   style="fill:#ffffff" />
			<path
   class="st0"
   d="M334.77,33.62c0.01-0.03,0.02-0.06,0.03-0.09c0.04,0.01,0.08,0.04,0.12,0.05c0.03,0.01,0.06,0.01,0.08,0.01     c0.01-0.03,0.02-0.06,0.03-0.09c-0.01-0.01-0.01-0.01-0.12-0.01c-0.01-0.04-0.01-0.05-0.01-0.07c0.01-0.03,0.03-0.04,0.04-0.07     c-0.05-0.05-0.12-0.09-0.16-0.15c-0.02,0.04-0.05,0.12-0.11,0.13c-0.01,0.06,0.02,0.13,0.01,0.19     C334.7,33.53,334.71,33.54,334.77,33.62z"
   id="path66"
   style="fill:#ffffff" />
			<path
   class="st0"
   d="M333.9,33.51c0,0,0.06,0.07,0.07-0.02c0-0.06-0.02-0.16-0.03-0.17c-0.03,0-0.05,0-0.08-0.01     c0.01,0.01,0.01,0.03,0.02,0.1C333.88,33.47,333.89,33.5,333.9,33.51z"
   id="path67"
   style="fill:#ffffff" />
			<path
   class="st0"
   d="M332.11,33.82c0.01-0.08-0.01-0.08-0.02-0.08c-0.01,0-0.02,0-0.04,0.01c0,0.03-0.01,0.06-0.01,0.1     c0,0-0.01-0.01-0.01-0.01c-0.02,0-0.02,0.11,0.03,0.15C332.06,33.98,332.1,33.89,332.11,33.82z"
   id="path68"
   style="fill:#ffffff" />
			<path
   class="st0"
   d="M332.85,33.73c0.11-0.09,0.12-0.1,0.17-0.09c0.1,0.02,0.1,0.02,0.11,0.02c0,0,0.01,0,0.01,0     c0.04-0.03,0.14-0.2,0.15-0.31c0.01-0.08-0.02-0.08-0.05-0.09c-0.09,0-0.09,0-0.18,0.25c-0.03,0-0.03,0-0.32-0.03     c-0.02,0.07-0.07,0.13-0.09,0.21c-0.01,0.02-0.02,0.07,0,0.1C332.71,33.85,332.79,33.78,332.85,33.73z"
   id="path69"
   style="fill:#ffffff" />
			<path
   class="st0"
   d="M332.87,33.91C332.87,33.91,332.87,33.92,332.87,33.91c0.01,0.01,0.12,0.01,0.18,0     c0.03-0.01,0.07-0.02,0.08-0.04c0-0.01,0-0.01,0-0.02C332.88,33.9,332.87,33.91,332.87,33.91z"
   id="path70"
   style="fill:#ffffff" />
			<path
   class="st0"
   d="M307.26,43.61c0.14-0.01,0.24-0.01,0.26-0.03c0.02-0.02,0-0.03-0.21-0.13     C307.29,43.5,307.27,43.56,307.26,43.61z"
   id="path71"
   style="fill:#ffffff" />
			<path
   class="st0"
   d="M322.43,39.53c0.02-0.05,0.02-0.08-0.02-0.1c-0.02,0.03-0.04,0.06-0.06,0.09     C322.38,39.53,322.41,39.53,322.43,39.53C322.43,39.54,322.43,39.53,322.43,39.53z"
   id="path72"
   style="fill:#ffffff" />
			<path
   class="st0"
   d="M302.95,47.29c-0.42-0.06-0.42-0.06-0.47-0.05c-0.02,0.06-0.04,0.13-0.06,0.19     c-0.03,0.01-0.03,0.01-0.29-0.01c-0.11,0.18-0.11,0.18-0.15,0.22c0.26,0.22,0.33,0.24,0.84,0.37c0.15-0.2,0.15-0.2,0.22-0.22     c0.04,0.12-0.14,0.25-0.18,0.27c-0.14,0.09-0.31,0.03-0.45,0.12c-0.14,0.09-0.15,0.29-0.3,0.37c-0.12,0.07-0.27,0.07-0.39,0.12     c-0.01,0.01-0.01,0.03-0.02,0.04c0.04,0.06,0.12,0.13,0.17,0.17c-0.17,0.04-0.34,0.05-0.5,0.08c0.01,0.21,0,0.22-0.03,0.27     c-0.07,0-0.07,0-0.41-0.18c-0.07,0.07-0.16,0.16-0.23,0.22c0.16,0.08,0.16,0.08,0.22,0.13c-0.23,0.12-0.26,0.15-0.43,0.31     c0.54-0.04,0.54-0.04,0.61,0.06c-0.01,0.01-0.02,0.03-0.03,0.04c-0.24,0.05-0.41,0.09-0.39,0.23c0.03,0.02,0.03,0.02,0.82-0.14     c-0.02,0.05-0.02,0.05-0.12,0.18c0.1,0.09,0.1,0.09,0.12,0.17c0.45-0.18,0.45-0.18,0.51-0.15c0.16,0.07,0.33-0.12,0.39-0.19     c0.01-0.02,0.03-0.04,0.04-0.06c0.07,0,0.07,0,0.36,0.16c0.04-0.03,0.1-0.08,0.14-0.11c0.04,0.01,0.09,0.02,0.13,0.03     c0.21-0.25,0.21-0.25,0.25-0.29c0.03,0.01,0.07,0.02,0.1,0.03c0.24,0.08,0.24,0.07,0.32-0.07c0.06-0.1,0.1-0.11,0.12-0.11     c0.1,0.02,0.11,0.15,0.19,0.18c0.07-0.19,0.04-0.24,0.02-0.28c0.01-0.02,0.02-0.04,0.04-0.06c0.04,0,0.1-0.01,0.35,0.02     c0.03-0.04,0.35-0.5,0.42-0.66c-0.03-0.03-0.07-0.06-0.09-0.09c0.12-0.18,0.12-0.18,0.14-0.21c-0.03-0.04-0.08-0.05-0.12-0.06     c0.44-0.41,0.44-0.41,0.45-0.51c-0.01,0-0.02-0.01-0.03-0.01c0.02-0.06,0.06-0.12,0.09-0.18c0.29-0.04,0.29-0.04,0.33-0.06     c0-0.09,0-0.09,0-0.13c0.05-0.01,0.05-0.01,0.69,0.04c0.03,0,0.07,0,0.1,0c0.01-0.27,0.01-0.27,0.17-0.63     c-0.22-0.04-0.22-0.04-0.25-0.06c0.08-0.05,0.08-0.06,0.39-0.29l-3.67,0.51c0.01,0.02,0.02,0.04,0.04,0.07     C302.97,47.22,302.97,47.22,302.95,47.29z M302.44,48.85c-0.01,0.01-0.24,0.21-0.4,0.17c-0.1-0.05,0.19-0.19,0.22-0.2     c0.09-0.04,0.2-0.03,0.18,0.01C302.45,48.84,302.44,48.85,302.44,48.85z"
   id="path73"
   style="fill:#ffffff" />
			<path
   class="st0"
   d="M331.65,33.91c0.03,0.01,0.12,0.02,0.13,0.01c0.01-0.01-0.06-0.05-0.12-0.08c-0.05-0.03-0.07-0.04-0.07-0.04     c0.02,0.04,0.02,0.06,0.04,0.06C331.63,33.86,331.64,33.86,331.65,33.91z"
   id="path74"
   style="fill:#ffffff" />
			<path
   class="st0"
   d="M309.5,43.36c0,0,0.01,0,0.01,0c0,0,0,0,0,0C309.51,43.36,309.5,43.36,309.5,43.36z"
   id="path75"
   style="fill:#ffffff" />
			<path
   class="st0"
   d="M307.14,46.96c0.08,0.03,0.18,0.01,0.26,0.07c0,0.06,0.01,0.12,0.01,0.18c0.03,0.02,0.06,0.05,0.09,0.08     c0.05,0,0.05,0,0.26-0.26c0.28,0.5,0.82,0.05,1.18,0.3c-0.83,0.41-0.83,0.41-0.85,0.44c0.02,0.07,0.03,0.11,0.42,0.17     c-0.11,0.44-0.57,0.64-0.71,1.06c-0.07-0.01-0.07-0.01-0.18-0.04c-0.05,0.03-0.07,0.07-0.1,0.12c-0.11-0.02-0.22-0.05-0.32-0.07     c-0.01-0.04-0.02-0.1-0.04-0.14c0.01-0.07,0.04-0.13,0.08-0.19c-0.09-0.08-0.29-0.11-0.33-0.11c-0.21,0.19-0.21,0.19-0.22,0.4     c0.18,0.03,0.18,0.03,0.23,0.04c-0.12,0.15-0.82,0.46-1.04,0.48c0.21,0.06,0.63,0.07,0.7,0.07c-0.42,0.69-1.04,0.76-1.55,0.82     c-0.04,0.1-0.04,0.1-0.07,0.26c-0.02-0.01-0.04-0.01-0.06-0.02c-0.03,0.03-0.05,0.07-0.07,0.1c0.08,0.05,0.18,0.04,0.26,0.08     c-0.13,0.05-0.15,0.07-0.2,0.11c0,0.02-0.01,0.04-0.01,0.06c0.08,0.03,0.08,0.03,0.34,0.01c0.01-0.02,0.02-0.04,0.04-0.06     c0.02,0,0.05-0.01,0.07-0.01c0.02-0.03,0.05-0.07,0.09-0.1c0.15,0.05,0.15,0.05,0.23,0.06c0,0.06-0.04,0.12-0.07,0.19     c-0.03-0.01-0.07-0.01-0.1-0.01c0.05,0.3,0.38,0.18,0.76,0.04c0.01-0.02,0.02-0.04,0.02-0.05c0.1,0.01,0.11,0.02,0.13,0.08     c-0.02,0.01-0.05,0.02-0.07,0.03c0.08,0.09,0.18,0.17,0.25,0.27c0.05-0.03,0.05-0.03,0.24-0.3c0.37,0.06,0.39,0.07,0.46,0.11     c-0.01,0.03-0.01,0.03-0.47,0.51c-0.48-0.12-0.93-0.36-1.44-0.39c-0.03,0.02-0.04,0.04-0.05,0.06c-0.46,0.12-0.78,0.49-1.2,0.67     c-0.15,0.07-0.2,0.25-0.37,0.31c-0.19,0.06-0.38,0-0.56,0.01c-0.04,0.06-0.07,0.13-0.11,0.19c0.43,0.24,0.43,0.24,0.54,0.34     c0.18-0.16,0.38-0.28,0.56-0.44c0.02,0.03,0.06,0.07,0.08,0.1c0.08-0.02,0.08-0.02,0.17-0.14c0.1-0.01,0.1-0.01,0.85,0.08     c-0.01,0.16-0.01,0.16,0.04,0.22c0.84-0.35,0.84-0.35,0.99-0.35c0.31,0.01,0.46,0.34,0.76,0.38c0.06-0.06,0.09-0.13,0.12-0.19     c0.06-0.01,0.06-0.01,0.4,0.01c0.02-0.04,0.04-0.08,0.06-0.13c0.03,0,0.08,0,0.11,0.01c0.21,0.03,0.33,0.26,0.55,0.26     c0.29-0.01,0.58-0.12,0.87-0.03c0.17,0.05,0.22,0.23,0.33,0.34c0.05,0.02,0.05,0.02,0.05,0.02c0,0,0,0,0,0c0,0,0,0,0,0     c0,0,0,0,0,0c0,0,0,0,0,0c0,0,0,0,0,0c0,0,0,0,0,0c0,0,0,0,0,0l0.16-0.18c0.28,0.01,0.54-0.13,0.81-0.11     c0.08-0.06,0.1-0.13,0.13-0.19c0.02,0,0.05-0.01,0.08-0.01c-0.04-0.04-0.15-0.13-0.72-0.19c0.02-0.04,0.04-0.09,0.05-0.12     c0.02,0,0.04,0,0.06,0c0.02-0.05,0.02-0.05,0-0.23c0.01-0.01,0.02-0.03,0.03-0.04c0.08,0.02,0.15,0.05,0.22,0.06     c0.06-0.05,0.14-0.12,0.19-0.18c0.25,0.05,0.4,0.08,0.46,0.09c0.08-0.05,0.11-0.12,0.13-0.18c0.02,0,0.05,0.01,0.07,0.01     c0.12-0.07,0.38-0.21,0.59-0.52c0.37-0.52,0.33-0.53-0.65-0.92c-0.17,0.17-0.17,0.17-0.19,0.23c-0.08,0.03-0.11,0.04-0.28,0.08     c0-0.17,0.02-0.2,0.13-0.44c0.02,0,0.04,0,0.05,0c0.1-0.17,0.1-0.17-0.14-1.1c0.07,0.09,0.16,0.22,0.23,0.31     c0.17,0.05,0.19,0.02,0.28-0.09c-0.01-0.05-0.03-0.06-0.05-0.06c-0.01-0.01-0.03-0.03-0.04-0.05c-0.09-0.14-0.01-0.31-0.1-0.45     c-0.08-0.12-0.29-0.03-0.34-0.2c-0.05-0.16,0.06-0.32,0-0.47c-0.06-0.13-0.25-0.11-0.3-0.25c-0.1-0.28,0.07-0.52,0.11-0.78     c-0.05-0.03-0.11-0.06-0.16-0.09c0-0.03,0.01-0.08,0.04-0.1c0.03-0.03,0.05-0.1,0.05-0.14c-0.03-0.16-0.22-0.17-0.27-0.31     c-0.02-0.07-0.02-0.07,0.08-0.31c-0.05-0.03-0.07-0.05-0.22-0.08l-2.36,0.33C307.56,46.58,307.38,46.76,307.14,46.96z"
   id="path76"
   style="fill:#ffffff" />
			<path
   class="st0"
   d="M311.35,43.22c0.1-0.17,0.04-0.38-0.25-0.43c-0.1-0.01-0.1-0.01-0.57,0.15c0.01-0.02,0.02-0.04,0.04-0.05     c-0.02,0-0.04-0.01-0.06-0.01c-0.04,0.06-0.07,0.11-0.11,0.17c-0.03,0-0.08,0-0.11,0c0.03-0.09,0.12-0.14,0.16-0.21     c-0.07-0.08-0.17-0.05-0.26-0.09c-0.28,0.37-0.4,0.54-0.68,0.63c0.01,0.01,0.01,0.02,0,0.03c0,0.01-0.01,0.01-0.01,0.01     c0-0.01,0-0.03,0-0.04c0,0,0,0,0,0c0,0,0,0-0.01,0c0,0,0,0,0,0c-0.12,0.04-0.26,0.06-0.45,0.08c-0.05,0.08-0.05,0.08-0.15,0.13     c0.01,0.01,0.02,0.03,0.03,0.05c0,0.02-0.01,0.03-0.01,0.05l2.31-0.32C311.27,43.31,311.32,43.27,311.35,43.22z"
   id="path77"
   style="fill:#ffffff" />
			<path
   class="st0"
   d="M307.7,52.83c0.03-0.02,0.05-0.05,0.06-0.06c0.04-0.06-0.03-0.08-0.07-0.09c-0.02,0-0.1-0.02-0.13-0.01     C307.49,52.7,307.68,52.82,307.7,52.83z"
   id="path78"
   style="fill:#ffffff" />
			<path
   class="st0"
   d="M330.12,35.09c0.01-0.02,0.02-0.03,0.02-0.05c0-0.02,0.01-0.05,0.03-0.11c0-0.01,0.01-0.01,0.01-0.02     c-0.13-0.01-0.13-0.01-0.13-0.01c-0.05,0.02-0.07,0.02-0.19,0.01c-0.01,0.03-0.01,0.07-0.02,0.1c-0.04-0.04-0.06,0.03-0.07,0.13     c0.15,0.04,0.15,0.04,0.17,0.06C330.04,35.15,330.1,35.11,330.12,35.09z"
   id="path79"
   style="fill:#ffffff" />
			<path
   class="st0"
   d="M328.92,35.06c-0.02,0-0.2,0.17-0.2,0.17c0,0.01,0.05-0.01,0.2-0.08C328.94,35.07,328.93,35.06,328.92,35.06     z"
   id="path80"
   style="fill:#ffffff" />
			<path
   class="st0"
   d="M309.02,42.82c0.11-0.11,0.03-0.14-0.03-0.16c-0.13,0.02-0.32,0.01-0.44,0.06     c-0.11,0.05-0.15,0.16-0.23,0.23c-0.02-0.02-0.06-0.05-0.08-0.08c-0.03,0.05-0.05,0.07-0.06,0.19c-0.01,0.13-0.01,0.13-0.12,0.16     c-0.05,0.01-0.13,0.05-0.16,0.08c-0.04,0.04-0.04,0.04-0.19,0.24c0.15-0.05,0.26-0.08,0.33-0.09c0.01-0.02,0.02-0.03,0.04-0.05     c0.03,0,0.08,0.02,0.11,0.03c0.03,0.01,0.09,0.03,0.11,0.02c0.15-0.09,0.2-0.27,0.33-0.38c0.11-0.09,0.25-0.13,0.35-0.23     C309,42.85,309.01,42.84,309.02,42.82z"
   id="path81"
   style="fill:#ffffff" />
			<path
   class="st0"
   d="M308.24,43.67c-0.02,0-0.02,0-0.09,0.1l0.08-0.01c0.02-0.03,0.03-0.06,0.03-0.08     C308.26,43.68,308.25,43.68,308.24,43.67z"
   id="path82"
   style="fill:#ffffff" />
			<path
   class="st0"
   d="M307.86,43.81C307.86,43.82,307.86,43.82,307.86,43.81l0.02,0C307.87,43.81,307.87,43.81,307.86,43.81z"
   id="path83"
   style="fill:#ffffff" />
			<path
   class="st0"
   d="M329.22,35.28c0.02,0,0.05-0.01,0.08,0c0.04,0.01,0.06,0.04,0.1,0.06c0.15-0.13,0.21-0.18,0.27-0.41     c0-0.01,0.01-0.03,0.01-0.05l-0.08-0.05c-0.39,0.12-0.49,0.21-0.6,0.57c0.03,0,0.06,0.01,0.09,0.01     C329.15,35.38,329.15,35.3,329.22,35.28z"
   id="path84"
   style="fill:#ffffff" />
			<path
   class="st0"
   d="M327.13,35.97c0.01,0,0.09,0,0.17-0.04c0.11-0.04,0.21-0.1,0.31-0.15c0.01,0,0.02-0.01,0.03-0.01     c-0.01-0.02-0.03-0.03-0.03-0.05c-0.01-0.01,0-0.02,0-0.03c-0.02,0-0.03,0-0.05-0.01c-0.14,0.04-0.22,0.18-0.36,0.21     c-0.03,0-0.06-0.01-0.1-0.01c0.01,0.02-0.02,0.03-0.01,0.05c0.01,0,0.01,0.01,0.05-0.01C327.17,35.94,327.17,35.94,327.13,35.97z     "
   id="path85"
   style="fill:#ffffff" />
			<path
   class="st0"
   d="M327.79,35.48c0.07,0.02,0.1,0.02,0.13,0.03c0-0.04,0.03-0.08,0.04-0.11c0.02-0.05-0.01-0.06-0.05-0.07     c-0.03,0-0.04,0-0.04,0c-0.05,0.01-0.09,0.05-0.14,0.08c-0.01,0.01-0.02,0.01-0.04,0.01C327.62,35.45,327.7,35.47,327.79,35.48z"
   id="path86"
   style="fill:#ffffff" />
			<path
   class="st0"
   d="M328.15,35.9c0.01,0,0.02,0,0.02-0.01c0,0,0,0,0,0c0,0,0,0,0,0C328.16,35.9,328.15,35.9,328.15,35.9z"
   id="path87"
   style="fill:#ffffff" />
			<path
   class="st0"
   d="M327.93,35.81c-0.01,0.05-0.03,0.09-0.04,0.14c0.01,0,0.01,0,0.14,0.02c0.01-0.03,0.02-0.07,0.03-0.1     c0.01,0,0.09,0.01,0.11,0.03c0,0,0,0,0,0.01c0.46-0.17,0.46-0.17,0.55-0.25c0.01-0.01,0.02-0.02,0.03-0.03     c-0.01-0.06-0.03-0.13-0.05-0.18c-0.06,0.02-0.13,0.01-0.19,0.01c-0.01,0.03-0.02,0.07-0.03,0.1c-0.06-0.02-0.11-0.04-0.17-0.06     c0.01-0.06,0.05-0.11,0.04-0.17c-0.03,0-0.06-0.01-0.09-0.01c-0.17,0.19-0.37,0.35-0.54,0.54     C327.79,35.86,327.85,35.78,327.93,35.81z"
   id="path88"
   style="fill:#ffffff" />
			<path
   class="st0"
   d="M326.9,36.01c0.01-0.02,0.01-0.05,0-0.09l-0.12-0.09c-0.02,0.03-0.06,0.07-0.08,0.1     c-0.01,0-0.04-0.01-0.04,0.01C326.68,35.99,326.86,36.07,326.9,36.01z"
   id="path89"
   style="fill:#ffffff" />
			<path
   class="st0"
   d="M307.54,67.52c-0.1,0.03-0.26,0.06-0.41,0.08c0.03,0.05,0.09,0.14-0.1,0.6c-0.03,0.08-0.03,0.08-0.03,0.09     c0.01-0.01,0.01-0.01,0.01-0.02c-0.02,0.07-0.05,0.15-0.07,0.22c0.09,0.02,0.18,0.03,0.28,0.05c0.24-0.18,0.24-0.18,0.37-0.24     c0.08-0.04,0.23-0.12,0.27-0.2c0.04-0.08-0.02-0.15-0.12-0.26C307.62,67.69,307.58,67.62,307.54,67.52z"
   id="path90"
   style="fill:#ffffff" />
			<path
   class="st0"
   d="M331.07,34.23C331.07,34.23,331.07,34.24,331.07,34.23c0,0.02,0,0.03,0,0.04v0c0,0,0,0.01,0.01,0.02     C331.07,34.27,331.07,34.26,331.07,34.23C331.07,34.24,331.07,34.23,331.07,34.23z"
   id="path91"
   style="fill:#ffffff" />
			<path
   class="st0"
   d="M338.41,34.87C338.41,34.87,338.41,34.87,338.41,34.87c-0.07-0.13-0.13-0.2-0.2-0.21c-0.01,0-0.02,0-0.03,0     c0.01,0.05,0.02,0.1,0.03,0.15C338.26,34.83,338.34,34.86,338.41,34.87z"
   id="path92"
   style="fill:#ffffff" />
			<path
   class="st0"
   d="M331.33,34.19C331.33,34.19,331.33,34.19,331.33,34.19c0,0.01,0,0.01,0,0.01c0,0,0,0,0,0     C331.33,34.2,331.34,34.19,331.33,34.19z"
   id="path93"
   style="fill:#ffffff" />
			<path
   class="st0"
   d="M334.19,33.94L334.19,33.94c-0.01,0-0.02,0-0.03,0.01C334.17,33.94,334.18,33.94,334.19,33.94     C334.18,33.94,334.18,33.94,334.19,33.94z"
   id="path94"
   style="fill:#ffffff" />
			<path
   class="st0"
   d="M361.25,25.46c-0.03-0.02-0.2-0.09-0.21-0.1c-0.01,0-0.02-0.01-0.03-0.01     C361.02,25.37,361.23,25.46,361.25,25.46C361.25,25.47,361.25,25.46,361.25,25.46z"
   id="path95"
   style="fill:#ffffff" />
			<path
   class="st0"
   d="M361.12,25.61c0.02,0.01,0.04,0,0.06,0.01c0.03,0.01,0.06,0.02,0.09,0.02c-0.03-0.02-0.06-0.04-0.09-0.05     c-0.04-0.01-0.08-0.03-0.12-0.04l-0.21-0.05L361.12,25.61z"
   id="path96"
   style="fill:#ffffff" />
			<path
   class="st0"
   d="M360.66,25.46c0.01,0,0.05,0.01,0.08,0.02c0.05,0.02,0.07,0.02,0.08,0.02c0.01,0,0.01-0.01-0.04-0.03     c-0.07-0.03-0.21-0.06-0.31-0.09C360.54,25.41,360.6,25.44,360.66,25.46C360.66,25.46,360.66,25.46,360.66,25.46z"
   id="path97"
   style="fill:#ffffff" />
			<path
   class="st0"
   d="M359.72,25.12c-0.03-0.01-0.03-0.01-0.04-0.01c0,0,0,0,0,0c0.02,0.02,0.21,0.1,0.24,0.1     C359.91,25.2,359.72,25.12,359.72,25.12z"
   id="path98"
   style="fill:#ffffff" />
			<path
   class="st0"
   d="M360.68,25.78c-0.01-0.02-0.04-0.03-0.09-0.05c-0.02-0.01-0.03-0.01-0.05-0.02c0,0,0,0-0.01,0     c0.01,0.02,0.03,0.03,0.04,0.05c0.01,0.01,0,0.01,0,0.02C360.61,25.78,360.65,25.78,360.68,25.78z"
   id="path99"
   style="fill:#ffffff" />
			<path
   class="st0"
   d="M360.33,25.37C360.33,25.37,360.33,25.37,360.33,25.37c-0.11-0.03-0.22-0.06-0.33-0.1     c0.01,0.01,0.02,0.02,0.03,0.03c0,0,0,0,0,0c0.46,0.17,0.46,0.17,0.48,0.17c0,0,0,0,0,0c-0.01-0.01-0.18-0.07-0.18-0.07     c-0.01,0-0.03-0.01,0-0.02C360.32,25.37,360.32,25.37,360.33,25.37z"
   id="path100"
   style="fill:#ffffff" />
			<path
   class="st0"
   d="M347,35.54c-0.01,0-0.02,0-0.03,0.01c0,0,0,0.01-0.01,0.01c0.02,0.05,0.08,0.07,0.12,0.11     c0.03,0.04,0.04,0.08,0.06,0.12c0,0.01,0.01,0.01,0.01,0.02c0,0.01,0.01,0.01,0.02,0.02c0,0,0.19,0.06,0.43,0.12     c-0.01-0.39-0.01-0.39-0.06-0.48c-0.06-0.11-0.14-0.14-0.17-0.15c-0.13-0.04-0.26-0.02-0.39-0.04c-0.02,0.05-0.09,0.06-0.08,0.12     c0,0.01,0.03,0.05,0.05,0.08C346.99,35.51,347,35.52,347,35.54z"
   id="path101"
   style="fill:#ffffff" />
			<path
   class="st0"
   d="M350.97,34.38c0.07,0.07,0.12,0.11,0.13,0.11c0,0,0,0,0-0.01c0.04,0.03,0.05,0.08,0.1,0.11     c0,0,0.15,0.09,0.21,0.1c0.01,0,0.03,0,0.09-0.02c0.12-0.05,0.18-0.01,0.27,0.05c0.18,0.12,0.18,0.12,0.19,0.12     c0.02,0,0.04,0,0.05,0c0.05,0,0.11-0.02,0.16-0.03c0.06-0.01,0.13,0.08,0.19,0.01c-0.01-0.07-0.01-0.07-0.01-0.07     c0,0,0.01-0.01,0.01-0.01c-0.14-0.09-0.24-0.16-0.37-0.21c-0.07-0.03-0.07-0.03-0.48-0.14c-0.15-0.04-0.27-0.16-0.41-0.21     c-0.03-0.01-0.04-0.02-0.07-0.01c-0.04,0.01-0.08,0.03-0.13,0.02c0.01,0.01,0.02,0.03,0.13,0.14     C350.99,34.35,350.98,34.36,350.97,34.38z"
   id="path102"
   style="fill:#ffffff" />
			<polygon
   class="st0"
   points="349.82,34.02 349.82,34.02 349.82,34.02    "
   id="polygon102"
   style="fill:#ffffff" />
			<path
   class="st0"
   d="M350.05,34.11C350.05,34.11,350.05,34.11,350.05,34.11c-0.01-0.03-0.11-0.06-0.14-0.06     c-0.04-0.01-0.06-0.01-0.09-0.03c0,0,0.01,0.01,0.02,0.01c0.02,0.02,0.02,0.02,0.04,0.04c0.03,0.03,0.04,0.05,0.07,0.05     C349.99,34.14,350.05,34.13,350.05,34.11z"
   id="path103"
   style="fill:#ffffff" />
			<polygon
   class="st0"
   points="349.82,34.02 349.82,34.02 349.82,34.02    "
   id="polygon103"
   style="fill:#ffffff" />
			<path
   class="st0"
   d="M346.41,29.77c-0.01,0.02-0.01,0.02-0.06,0.09c0.01,0.01,0.02,0.02,0.01,0.04     c-0.36-0.03-0.36-0.03-0.38-0.01c0,0.01,0,0.01,0.05,0.11c0.07,0.13-0.04,0.11-0.27,0.06c0.1,0.16,0.1,0.16,0.21,0.19     c-0.01,0.02-0.03,0.05-0.04,0.07c0.01,0.04,0.01,0.04,0.2,0.13c-0.08-0.01-0.17,0.01-0.25-0.04c-0.01,0.02-0.02,0.04-0.02,0.06     c0.11,0.11,0.11,0.11,0.14,0.15c-0.01,0.01-0.01,0.02-0.02,0.03c-0.05-0.01-0.05-0.01-0.11-0.04c0.04,0.06,0.05,0.07,0.09,0.14     c-0.01,0-0.02,0-0.03,0c-0.01-0.02-0.03-0.03-0.05-0.04c0,0.01-0.01,0.02-0.01,0.03c0.06,0.03,0.06,0.03,0.13,0.04     c0.02,0.02,0.04,0.04,0.03,0.07c-0.12-0.03-0.12-0.03-0.15-0.01c-0.02,0.26-0.02,0.26-0.19,0.28c0.04,0.05,0.08,0.09,0.11,0.14     c0.1,0.02,0.1,0.02,0.53,0c-0.17,0.07-0.18,0.08-0.03,0.37c0.02,0,0.02,0,0.12,0.06c0.02-0.02,0.04-0.05,0.06-0.06     c0.01,0,0.03,0.01,0.04,0.01c0.03,0.17,0.03,0.17,0.03,0.21c-0.1,0.05-0.23,0.04-0.32,0.11c0.2,0.22,0.2,0.22,0.43,0.41     c-0.12,0-0.12,0-0.16,0.01c0.05,0.08,0.13,0.12,0.15,0.22c-0.02,0-0.04,0.02-0.06,0.04c0.07,0.09,0.25,0.09,0.23,0.25     c-0.1,0.02-0.15,0.01-0.33-0.02c0.11,0.31,0.39,0.66,0.7,0.71c-0.03-0.04-0.05-0.07-0.06-0.11c0.08,0,0.08,0,0.11-0.01     c-0.09-0.09-0.09-0.1-0.1-0.14c0.02,0.01,0.02,0.01,0.19,0.06c0.02,0.02,0.04,0.05,0.06,0.07c0.01,0,0.08,0.04,0.08-0.08     c0.16-0.07,0.16-0.07,0.18-0.08c0.03,0.06,0.03,0.06,0.03,0.17c0,0,0,0,0,0c0,0,0,0,0,0c0,0,0,0,0,0s0,0,0,0s0,0,0,0c0,0,0,0,0,0     s0,0,0,0c0,0,0,0,0.02,0.01c0.33,0.19,0.33,0.19,0.53,0.11c0.05,0.08,0.11,0.15,0.17,0.22c-0.06,0.01-0.1-0.04-0.16-0.03     c0.01,0.03,0.03,0.08,0.05,0.11c-0.13-0.01-0.13-0.01-0.16,0.07c0.1,0.07,0.28,0.03,0.31,0.2c-0.05,0-0.09,0.03-0.14,0.04     c0.04,0.04,0.1,0.1,0.15,0.14c0.33-0.12,0.33-0.12,0.75,0.06c0.02,0,0.05,0,0.07-0.01c-0.03-0.05-0.08-0.09-0.11-0.15     c0.02-0.06,0.02-0.07,0.02-0.12c0.29,0.12,0.41,0.13,0.61,0.02c0.12,0.09,0.12,0.09,0.16,0.1c-0.12-0.11-0.12-0.11-0.25-0.17     c-0.04-0.05-0.08-0.1-0.12-0.15c0.2,0.01,0.39,0.11,0.59,0.1c0.04-0.05,0.05-0.11,0.07-0.17c-0.83-0.13-1.01-0.27-1.6-0.7     c-0.2-0.04-0.25-0.27-0.43-0.34c-0.02-0.02-0.04-0.05-0.06-0.09c0.02-0.01,0.05-0.02,0.07-0.03c-0.02-0.02-0.04-0.05-0.05-0.07     c-0.09-0.14-0.09-0.14-0.19-0.18c-0.02-0.02-0.04-0.05-0.06-0.07c0.02-0.02,0.04-0.06,0.06-0.08c-0.08-0.12-0.2-0.2-0.27-0.31     c0.01-0.02,0.03-0.04,0.05-0.06c-0.01-0.11-0.22-0.19-0.22-0.19c-0.38-0.1-0.42-0.08-0.61-0.02c-0.06-0.05-0.15-0.12-0.21-0.17     c0.25,0.09,0.32,0.12,0.42,0.09c0.01-0.01,0.01-0.02,0.02-0.03c-0.01-0.01-0.03-0.04-0.04-0.05c0.14-0.01,0.25,0.13,0.4,0.08     c0.07-0.19-0.14-0.25-0.21-0.38c0.14,0.07,0.14,0.07,0.25,0.08c0-0.03,0-0.03-0.14-0.17c0-0.01,0.01-0.03,0.01-0.04     c0.04,0,0.07,0,0.11,0c-0.02-0.02-0.04-0.04-0.09-0.09c-0.22-0.18-0.22-0.18-0.25-0.21c0.03,0,0.06-0.02,0.1-0.01l0.16,0.13     c0.01-0.03,0.03-0.08,0.04-0.11c-0.04-0.06-0.11-0.1-0.13-0.18c0.02-0.01,0.05-0.02,0.07-0.02c-0.02-0.03-0.21-0.17-0.22-0.17     c0.04-0.02,0.08-0.03,0.11-0.05c0-0.06-0.05-0.09-0.06-0.14c0.03,0,0.03,0,0.24,0.01c-0.1-0.12-0.1-0.12-0.1-0.13     c0.09-0.01,0.17,0.06,0.26,0.04c-0.03-0.07-0.11-0.11-0.15-0.17c0.08-0.01,0.08-0.01,0.1-0.02c0,0-0.01-0.01-0.01-0.01     l-1.15-0.35c-0.02,0.01-0.05,0.02-0.06,0.05C346.37,29.72,346.39,29.74,346.41,29.77z"
   id="path104"
   style="fill:#ffffff" />
			<path
   class="st0"
   d="M406.1,65.15c-0.01-0.03-0.03-0.05-0.04-0.08c-0.02-0.04-0.05-0.09-0.07-0.13c0,0,0,0,0,0     C406.03,65.01,406.06,65.08,406.1,65.15z"
   id="path105"
   style="fill:#ffffff" />
			<path
   class="st0"
   d="M402.5,114.22c-0.06-0.13-0.22-0.16-0.28-0.29c-0.07-0.14,0-0.31-0.09-0.45c-0.01-0.01-0.01-0.01-0.17-0.1     c-0.1-0.06-0.13-0.09-0.15-0.12c-0.09-0.1,0.03-0.23-0.04-0.33c-0.08-0.12-0.26-0.04-0.33-0.17c-0.1-0.18-0.21-0.57-0.29-0.89     c-0.23,0.09-0.23,0.09-0.27,0.09c0,0.03,0,0.06,0.01,0.09c0.02,0.38,0.02,0.38,0.11,0.64c0,0.06,0.01,0.12,0.01,0.19     c-0.03,0.04-0.03,0.04-0.13,0.14c0.03,0.22,0.12,0.42,0.1,0.64c-0.03,0.33-0.17,0.62-0.24,0.94c-0.02,0.01-0.05,0.01-0.07,0.02     c-0.01,0.15-0.01,0.15,0.22,1.19c0.08,0.37,0.01,0.74,0.06,1.11c0.01,0.08,0.04,0.2,0.06,0.28c0.22,0.03,0.22,0.03,0.35,0.37     c0.14-0.03,0.29,0.04,0.42-0.07c0.14-0.12,0.56-0.59,0.73-0.88c0.15-0.28,0.17-0.65,0.21-1.47c0-0.07,0-0.17,0-0.24     c-0.08-0.02-0.08-0.02-0.12-0.04C402.55,114.65,402.59,114.42,402.5,114.22z"
   id="path106"
   style="fill:#ffffff" />
			<path
   class="st0"
   d="M333.91,20.5l-0.31,0.17C333.7,20.61,333.81,20.55,333.91,20.5C333.91,20.5,333.91,20.5,333.91,20.5z"
   id="path107"
   style="fill:#ffffff" />
			<path
   class="st0"
   d="M333.91,20.5c-0.11,0.06-0.21,0.11-0.32,0.17C333.7,20.61,333.81,20.56,333.91,20.5     C333.92,20.5,333.92,20.5,333.91,20.5z"
   id="path108"
   style="fill:#ffffff" />
			<path
   class="st0"
   d="M346.36,37.55c-0.02,0.04-0.05,0.1-0.07,0.15c0.16,0.15,0.36,0.37,0.48,0.55c0.61,0.08,0.65,0.02,0.91-0.34     c-0.09-0.2-0.2-0.47-0.27-0.68c0.1-0.02,0.23-0.04,0.33-0.06c0.02-0.03,0.05-0.04,0.07-0.07l-1.15,0.22     C346.55,37.4,346.44,37.48,346.36,37.55z"
   id="path109"
   style="fill:#ffffff" />
			<path
   class="st0"
   d="M347.79,62.97c-0.04-0.1-0.09-0.24-0.12-0.35c-0.2-0.05-0.46-0.19-0.61-0.33c-0.14,0.09-0.33,0.19-0.5,0.27     l0.97,0.86C347.59,63.25,347.68,63.07,347.79,62.97z"
   id="path110"
   style="fill:#ffffff" />
			<path
   class="st0"
   d="M296.25,70.07c-0.42,0.09-0.85,0.02-1.27,0.09c-0.01,0.02-0.02,0.05-0.09,0.05     c-0.24-0.13-0.24-0.13-0.35-0.16c-0.26-0.99-0.33-1.25-0.67-1.48c-0.02-0.02-0.02-0.02-1.09,0c-0.33,0-0.38-0.39-0.67-0.46     c-0.18-0.04-0.37-0.06-0.56-0.09l3,3.53c0.43-0.28,0.5-0.28,0.69-0.27c0.01,0.33,0.11,0.77,0.21,1.08     c1.91,0.49,1.92,0.48,2.49,0.16c0.06,0.01,0.12,0.03,0.19,0.04c-0.03,0.08-0.06,0.17-0.09,0.25c0.12,0.08,0.29,0.19,0.41,0.27     c0.24-0.03,0.45-0.06,0.67-0.09l-2.64-3.11C296.31,70.05,296.3,70.06,296.25,70.07z"
   id="path111"
   style="fill:#ffffff" />
			<path
   class="st0"
   d="M372.74,91.7c0.09-0.11,0.22-0.14,0.33-0.21c0.17,1.08,0.26,1.62,0.53,1.98c0.01,0.01,0.95,1.21,1.8,1.14     c0.34,0.12,0.63,0.35,0.95,0.52l-3-4.92c-0.05-0.03-0.02-0.1-0.06-0.12c-0.61,0.39-1.33,0.77-1.92,1.18     c-0.07,0.06-0.34,0.14-0.42,0.21l0.97,1.57L372.74,91.7z"
   id="path112"
   style="fill:#ffffff" />
			<path
   class="st0"
   d="M352.23,105.59c0,0.43,0.27,0.9,0.38,1.32l1.57-4.68c-0.31-0.26-0.8-0.42-1.29-0.5     c-0.09-0.13-0.22-0.3-0.31-0.43c-0.28-0.26-0.43-0.57-0.55-0.91l-1.39,3.87C351.3,104.88,352.22,105.58,352.23,105.59z"
   id="path113"
   style="fill:#ffffff" />
			<path
   class="st0"
   d="M238.78,96.83c-0.01-0.02-0.02,0.01-0.03,0.04c-0.02,0.08-0.03,0.16-0.04,0.24c0,0,0.06-0.08,0.08-0.16     C238.81,96.87,238.79,96.84,238.78,96.83z"
   id="path114"
   style="fill:#ffffff" />
			<path
   class="st0"
   d="M321.56,51.17c0.05-0.09,0.12-0.2,0.17-0.29c0.1,0,0.24,0,0.34,0c0.08-0.09,0.18-0.21,0.26-0.3     c0.39,0.02,0.75,0.13,1.12,0.26l0.76-1.67c-0.46,0.2-0.95-0.16-0.96-0.17c0.07-0.71,0.07-0.71,0.55-1.29     c0.09-0.75-0.63-1.13-0.8-1.76c0.09-0.05,0.22-0.13,0.31-0.18c-0.02,0-0.04-0.01-0.13-0.28c-0.02-0.02-0.04-0.05-0.06-0.07     l-2.38,5.2c0.05-0.01,0.09-0.02,0.13-0.03C321.19,51.06,321.19,51.06,321.56,51.17z"
   id="path115"
   style="fill:#ffffff" />
			<path
   class="st0"
   d="M318.53,44.42c0.45-0.13,0.53-0.23,0.69-0.79c-0.1-0.02-0.23-0.04-0.33-0.05c-0.02,0.06-0.05,0.11-0.12,0.1     c-0.07-0.07-0.17-0.16-0.25-0.22c0.34-0.29,0.82-0.35,1.15-0.65c0.26-0.16,0.53-0.3,0.78-0.47c-0.4,0.01-0.48,0.01-0.94,0.39     c-0.04-0.01-0.08-0.01-0.13-0.25c-0.1,0-0.23,0-0.33,0c0.03-0.07,0.07-0.15,0.1-0.22l-7.93,1.11c-0.2,0.19-0.49,0.24-0.7,0.42     c-0.04-0.01-0.08-0.02-0.13-0.02c-0.07-0.02-0.12-0.09-0.2-0.1c-0.19,0.17-0.24,0.34-0.25,0.46c0.25,0.08,0.49-0.03,0.73-0.03     c0.05-0.02,0.12-0.05,0.17-0.07c0.28,0.17,0.67,0.07,0.9,0.37c-0.24,0.24-0.39,0.55-0.65,0.76c-0.22,0.18-0.54,0.21-0.74,0.42     c-0.04-0.01-0.08-0.02-0.13-0.03c0.08,0.3,0.08,0.3,0.05,0.36c-0.15-0.04-0.15-0.04-0.49,0.14c0.14,0.03,0.22,0.04,0.29,0.06     l8.46-1.18c-0.05-0.06-0.1-0.11-0.13-0.17C318.44,44.64,318.5,44.52,318.53,44.42z"
   id="path116"
   style="fill:#ffffff" />
			<path
   class="st0"
   d="M316.6,63.82c-0.06-0.01-0.12-0.02-0.18-0.03c0.01-0.02,0.01-0.05-0.2-0.29c-0.63-0.47-0.84-0.62-1.1-0.62     l-4.48,9.77c0.13,0.12,0.25,0.27,0.31,0.4c0.06,0.01,0.13,0.02,0.32-0.14c0.7-0.26,1.4-0.19,2.11-0.12l3.47-7.56     C316.62,64.46,316.6,63.84,316.6,63.82z"
   id="path117"
   style="fill:#ffffff" />
			<path
   class="st0"
   d="M416.01,115.01l-4.43,12.92l-4.71-38.38c-0.32-0.48-0.42-0.54-1.33-1.05c0.1,0.17,0.22,0.4,0.31,0.58     c-0.05,0.09-0.11,0.2-0.16,0.29c0.38,0.84,0.38,0.84,0.28,1.18c-0.09-0.02-0.2-0.04-0.29-0.06c0.02,0.06,0.03,0.12-0.14,0.28     c0.02,0.06,0.03,0.12-0.15,0.28c-0.02,0.19-0.15,0.44-0.3,0.57c-0.03-0.12-0.06-0.24-0.2-0.3c-0.09,0.01-0.22,0.02-0.31,0.03     c-0.01,0.08-0.02,0.14-0.03,0.22l4.82,39.25l-14.55-10.52l-4.98-3.6l4.71-11.41c-0.5-1.25-0.97-2.55-1.27-3.62l-5.22,12.66     l-10.1-16.56c-0.1,0.34-0.21,0.65-0.29,0.71c-0.45,0.35-0.47,0.6-0.57,1.79c-0.13,0.01-0.13,0.01-0.38-0.05     c-0.03,0.11-0.05,0.2-0.07,0.29l9.63,15.79l-3.84,0.92l-14.89,3.56c-0.17,0.17-0.18,0.18-0.41,0.8     c-0.18,0.09-0.18,0.09-0.88,1.97c-0.01,0.03-0.08,0.17-0.09,0.28l20.21-4.94l-13.42,42.56l-19.62-23.91     c-1.37,1.25-1.5,1.45-1.72,1.81c-0.05,0-0.1,0.01-0.18,0.06l9.27,11.21c0.25-0.58,0.34-1.24,0.83-1.71     c0.09-0.06,0.12-0.06,0.16-0.06c0.06,0.21,0.06,0.21-0.01,0.32c0.91,0.55,0.91,0.55,0.91,0.56c0.02,0.09,0.08,0.46,0.09,1.11     c0,0.03,0,0.07,0,0.1c-0.01,0.25-0.3,0.4-0.26,0.67c0.01,0.07,0.1,0.14,0.16,0.19c0.12,0.11,0.29,0.26,0.02,0.88     c-0.02,0.04-0.03,0.07-0.07,0.15l8.55,10.34l-35.04,5.72c-0.04,0.02-0.08,0.04-0.11,0.06c0.06,0.18,0.22,0.39,0.37,0.51     c-0.32,0.62-0.44,1.31-0.71,1.94c-0.09,0-0.21,0.01-0.3,0.02c-0.04,0.08-0.06,0.13-0.08,0.2l34.84-5.69l-10.7,11.63l-15.89,17.26     l-7.96-7.24l-11.32-10.3c-0.89,0-1.79,0.07-2.66-0.22c-0.03,0-0.07-0.01-0.22,0.05c-0.17,0.05-0.42,0.06-0.6,0.01     c0,0.02,0,0.04-0.05,0.13c-0.03,0.01-0.05,0.02-0.31-0.01l19.44,17.69l-42.9-4.71l18.47-13.66c0.02-0.31-0.11-0.45-0.34-0.66     c-0.03,0-0.07-0.01,0-0.12c0-0.02,0-0.04,0.11-0.24c-0.03,0-0.07-0.01-0.19-0.2c0.03-0.09,0.07-0.22,0.1-0.31     c0.1,0.02,0.24,0.04,0.35,0.05c0.18-0.45,0.22-0.56,0.21-1c-1.13-1.77-1.13-1.77-1.27-2.41c-0.06-0.04-0.15-0.1-0.21-0.14     c-0.05-0.39-0.28-0.66-0.51-0.94l-45.88-13.77l11.33-9.89l14.15-12.35l17.68,29.56c0.06,0.01,0.12,0,0.11-0.09     c-0.04-0.09-0.1-0.2-0.14-0.28c0.04-0.1,0.1-0.24,0.14-0.34c-0.02-0.2-0.01-0.47,0.02-0.67c-0.04,0-0.08-0.01-0.12-0.05     c-0.13-0.29-0.43-0.47-0.53-0.78c-0.07-0.01-0.15-0.02-0.25-0.13c0.04-0.2,0.04-0.48,0.02-0.68c-0.14-0.11-0.37-0.22-0.54-0.27     c-0.5-0.76-0.56-1.68-0.87-2.5c-0.64-0.27-0.93-0.97-1.56-1.25c-0.31-1.16,0.18-2.17,0.55-3.2l-12.08-20.19l9.2-0.77     c0-0.06-0.22-0.21-0.22-0.27c-0.17-0.01-0.4-0.1-0.53-0.21c0.03-0.1,0.08-0.23,0.11-0.33c-0.1-0.03-0.23-0.06-0.33-0.09     c-0.04-0.08-0.1-0.19-0.14-0.28c0.15-0.1,0.39-0.2,0.57-0.24c0.44-0.73,0.51-0.87,0.52-1.26l-9.55,0.93l3.24-11.51     c-0.78-0.39-1.67-0.91-2.48-1.08l-3.22,11.73l-14.41-12.45c-0.06-0.01-0.12-0.03-0.18-0.04c-0.11-0.13-0.24-0.28-0.36-0.43     l-17.01-14.69l9.97-3.76c0.07-0.09,0.13-0.16,0.21-0.22c0.78-0.9,0.97-2.1,1.47-3.14l-11.98,4.51l17.33-48.24l13.66,16.08     c0.24-0.35,0.39-0.55,0.63-0.81c0.02-0.05,0.04-0.1,0.03-0.2c0-0.23,0.16-0.41,0.17-0.63c-0.08-0.02-0.16-0.04-0.22-0.11     c0.08-0.13,0.08-0.13,0.37-0.2c0.06-0.17,0.06-0.17,0.07-0.24c-0.21,0.07-0.21,0.07-0.3,0.12c-0.1-0.27-0.08-0.29-0.02-0.43     c0.14-0.05,0.21-0.16,0.26-0.28l-12.64-14.88l23.25-3.25c-0.1-0.19-0.08-0.23,0.2-0.58c0.04,0.01,0.08,0.02,0.12,0.03     c-0.06,0.13-0.06,0.13,0.02,0.28c0.07-0.04,0.17-0.1,0.24-0.14c0.05,0.02,0.05,0.02,0.29,0.21c-0.01,0.01-0.01,0.03-0.02,0.04     c0.07,0,0.07,0,0.14-0.01c-0.1-0.28,0.39-0.34,0.68-0.37c0.02-0.06,0.04-0.13,0.05-0.19c-0.16-0.07-0.16-0.07-0.18-0.13     c0.02-0.01,0.02-0.01,0.31-0.06c0.15-0.24,0.15-0.24,0.67-0.15c-0.03,0.04-0.05,0.08-0.06,0.12c0.09-0.01,0.19,0,0.28-0.02     c0.1-0.16,0.1-0.17,0.14-0.21c0.02,0,0.04,0.01,0.06,0.02c0.14,0.07,0.07,0.19-0.08,0.45c-0.19,0.03-0.21,0.05-0.26,0.09     c0.35,0.09,0.74-0.24,1.07,0.1c-0.01,0.01-0.01,0.01-0.02,0.01l0.95-0.13c0.35-0.37,0.51-0.66,0.57-0.85     c-0.11,0.01-0.11,0.01-0.2,0.09c-0.03,0-0.07-0.01-0.1-0.03c0.02-0.03,0.04-0.08,0.05-0.11c-0.19,0.07-0.19,0.07-0.26,0.07     c0,0,0,0,0,0c0,0,0,0,0,0c0,0,0,0,0,0s0,0,0,0c0,0,0,0,0,0c0,0,0,0,0,0s0,0,0,0s0,0,0,0c-0.16,0.13-0.16,0.13-0.25,0.17     c0.09-0.14,0.23-0.25,0.32-0.39c0,0,0,0,0,0c-0.05-0.04-0.03-0.07,0.06-0.09c-0.02,0.03-0.04,0.06-0.06,0.09     c0.02,0.01,0.04,0.02,0.05,0.03c0.09,0,0.2-0.01,0.29-0.01c0.08-0.11,0.08-0.11,0.08-0.18c0,0-0.03,0-0.04,0     c0.01,0,0.03,0,0.04-0.01c0,0,0,0,0,0c0,0,0,0,0,0c-0.03-0.01-0.19-0.03-0.5-0.03c0.03-0.04,0.05-0.08,0.1-0.15     c0.2-0.24,0.2-0.24,0.46-0.42c-0.05-0.21-0.05-0.21,0-0.28c0.13-0.02,0.21-0.03,0.27-0.13c0.08-0.13,0-0.27,0.06-0.4     c0.21-0.01,0.25-0.02,0.27-0.11l-0.69,0.1c-0.07,0.12-0.24,0.29-0.25,0.29c-0.04,0.04-0.04,0.04-0.14,0.27     c0.05,0.02,0.1,0.03,0.15,0.06c0.04,0.02,0.04,0.02,0.06,0.05c-0.02,0.03-0.04,0.08-0.07,0.11c-0.04,0.05-0.07,0.06-0.09,0.02     c-0.1,0.13-0.1,0.13-0.1,0.15c-0.04-0.01-0.08-0.02-0.12-0.03c0.02-0.06,0.08-0.09,0.1-0.15c-0.04-0.01-0.08-0.02-0.12-0.03     c0.01-0.25,0.06-0.35,0.2-0.69l-0.8,0.11c-0.05,0.03-0.1,0.06-0.14,0.06c0.01-0.01,0.01-0.03,0.02-0.04l-25.21,3.52l32.69-26.59     l8.62,18.71c0.01,0,0.01,0,0.02,0.01c0.02-0.01,0.03-0.01,0.05-0.02c0.02-0.04,0.03-0.08,0.11-0.27     c0.01-0.02,0.01-0.03,0.02-0.05c0.2,0.07,0.48,0.13,0.69,0.13c0.02,0.04,0.05,0.08,0.07,0.12c0.01,0,0.02,0,0.03,0     c0.07-0.11,0.09-0.13,0.09-0.1c0,0.01,0,0.02,0,0.03c0.09-0.02,0.15-0.03,0.24-0.02c0.27-0.27,0.27-0.27,0.9-0.56     c0.01-0.04,0.04-0.09,0.18-0.13l-7.31-15.87l-0.91-1.97l29.18,8.76c0.03-0.01,0.06-0.03,0.09-0.05     c-0.01-0.03-0.01-0.03-0.06-0.13c0-0.01,0.01-0.02,0.01-0.03c0.01,0,0.02-0.01,0.03-0.01c0.02,0,0.02,0,0.02,0c0,0,0,0,0,0     c0,0,0,0,0,0c0,0,0,0,0,0c0,0,0,0,0,0c0,0,0,0,0,0c0,0,0,0,0,0c0,0,0,0,0,0c0.02,0,0.04-0.01,0.06-0.02c0-0.04,0-0.09,0-0.13     c0.04-0.01,0.04-0.01,0.11,0c0.08-0.06,0.18-0.04,0.27-0.06c-0.04-0.04-0.05-0.06-0.28-0.25c0.14-0.03,0.18-0.03,0.39,0.02     c0.02,0.02,0.05,0.04,0.07,0.06c0.14-0.02,0.18-0.02,0.23-0.03c0-0.04-0.02-0.07-0.03-0.11c0.06-0.01,0.12,0.02,0.19,0.01     c0.01-0.01,0.01-0.01-0.01-0.22c0.02,0,0.02,0,0.1,0.02c0-0.01,0.01-0.03,0.02-0.04c-0.04-0.09-0.04-0.09-0.04-0.14     c0.01,0,0.01,0,0.19,0.04c-0.18-0.22-0.18-0.22-0.18-0.23c0.02,0,0.05-0.01,0.06,0c0-0.03,0-0.03-0.05-0.12     c0-0.01,0.01-0.02,0.02-0.03c0.22-0.02,0.66,0.29,0.66,0.29c0.17,0.13,0.2,0.17,0.22,0.21c-0.01,0.02-0.02,0.04-0.03,0.06     c0.03,0.03,0.07,0.06,0.1,0.09c-0.02,0.01-0.04,0.02-0.06,0.02c-0.01,0.04-0.01,0.04,0.03,0.1c-0.04,0.02-0.09,0.02-0.13,0.03     c0,0.04,0.01,0.07,0.01,0.11c-0.09,0.06-0.22,0.05-0.3,0.12c0.01,0.04,0.02,0.07,0.03,0.11c-0.03,0.01-0.06,0.01-0.09,0.01     c0.02,0.03,0.04,0.06,0.07,0.09c-0.07-0.02-0.13-0.06-0.2-0.08c-0.05,0.07,0.01,0.17-0.06,0.23c-0.07,0.06-0.14-0.01-0.21-0.01     c-0.03,0.05-0.08,0.11-0.11,0.16l0.05,0.07c-0.03,0.01-0.03,0.01-0.1,0c-0.01,0.01-0.01,0.02-0.02,0.02     c0.03,0.04,0.06,0.09,0.09,0.13l5.34,1.6c0-0.01,0-0.02,0-0.04c0.47-0.16,0.81-0.28,1.98,0.63l0.85,0.26     c-0.33-0.3-0.71-0.64-1.16-1.06c0.6,0.28,0.6,0.28,1.37,0.96c0.01,0,0.02,0,0.03-0.01c0.15,0.11,0.3,0.21,0.46,0.31l1.14,0.34     c0,0,0,0,0,0l0.01,0l0.14,0.04c0.07-0.05,0.14-0.1,0.21-0.14c0.02-0.01,0.04-0.02,0.05-0.03c-0.33-0.17-0.7-0.21-1.05-0.32     c0,0,0,0,0,0c0,0,0,0,0,0c0,0,0,0,0,0c0,0,0,0,0,0c0,0,0,0,0,0c0,0,0,0,0,0c0,0,0,0,0,0c0,0,0,0-0.06,0.01     c-0.12-0.1-0.24-0.28-0.29-0.42c0.19,0.03,0.45,0.07,0.65,0.1c-0.19-0.23-0.46-0.33-0.69-0.51c0.05-0.07,0.11-0.17,0.15-0.25     c1.6,0.21,1.6,0.21,3.11,1.3c0.3,0.32,0.4,0.4,0.65,0.61c-0.03-0.07-0.07-0.17-0.11-0.24c0.07,0.03,0.17,0.08,0.24,0.11     c0.66,0.27,0.66,0.27,0.97,0.24c0.05-0.07,0.11-0.16,0.15-0.22c0.28,0.07,0.53,0.23,0.82,0.3c-0.18-0.11-0.18-0.11-1.11-0.46     c-0.03,0.07-0.06,0.17-0.08,0.25c-0.18-0.05-0.42-0.11-0.6-0.16c-2.5-1.83-2.5-1.83-3.07-1.75c-0.85-0.24-2.02-1.17-2.11-1.33     l0.12-0.15c0.06-0.04,0.12-0.1,0.18-0.15l-34.83-10.45l15.46-1.96c0.7-0.09-12.63-0.97-12.63-0.97l-8.65,1.1l-0.91-0.62     c0,0-3.88,0.46-3.29,0.85l0.89,0.6l-25.55,7.17c0,0-9.41,5.27-8.74,5.08l31.72-8.89l-31.8,25.87l-9.36-10.65     c-0.47-0.53-2.38,1.16-1.91,1.69l9.23,10.51l-28.43,20.32l13.08-24.7c0.33-0.62-6.97,7.72-6.97,7.72l-10.71,20.23l-1.36,0.74     c0,0-1.92,3.95-1.31,3.61l1.95-1.06l-0.46,2.93l-2.7,17.2c0.01,0,0.02-0.01,0.03-0.01c0.62,2.37,0.62,2.37,0.6,3.15     c0.02,0.02,0.04,0.05,0.06,0.15c0.06,4.18,0.06,4.18-0.02,5.32c0.08,0.08,0.19,0.19,0.27,0.28c-0.32,1.22-0.32,1.22-0.33,1.71     c0.06-0.08,0.14,0.48,0.21,0.65l4.67-29.72L256.78,102l-14.58,13.14c0.01,0,0.02,0.01,0.03,0.01c0.09-0.08,0.21-0.18,0.3-0.26     c0.78,0.45,1.32,1.08,1.78,1.78l13.09-11.8l5.95,48.45l-17.18-20.22c0.02,0.84,0.03,1.67,0.21,2.5c0.18,0.68,0.24,1.37,0.32,2.06     l16.89,19.88l-5.96,10.54l1.8,1.99l5.91-10.45l23.74,28.24l-19.27-8.25l12.85,8.27l10.1,4.32l0.64,0.68l4.61,1.18l-1.21-1.28     l42.48,4.7l9.12-1.72l28.23-13.23l10.35-7.7l7.93-8.77l15.52-28.76l0.34,1.72l1.76-4.26l-0.22-1.1l1.52-4.43L416.01,115.01z      M307.42,45.54L307.42,45.54c-0.11,0.15-0.24,0.24-0.29,0.2c0-0.01,0-0.01,0.02-0.03c0.02-0.03,0.03-0.03,0.02-0.04     c0,0-0.01,0-0.01,0.01c0,0,0,0,0,0c0,0,0.18-0.26,0.28-0.25C307.45,45.43,307.48,45.45,307.42,45.54z M307.08,45.14     c0.05,0.01,0.05,0.02,0.05,0.04c0.02,0.01,0.04,0.02,0.07,0.03c0.11-0.17,0.11-0.17,0.12-0.21c-0.01-0.02-0.02-0.02-0.04-0.01     c0.02-0.03,0.05-0.07,0.07-0.1c0.02,0.02,0.04,0.02,0.08,0.03c0.02,0,0.05,0,0.07,0c0.04,0.01,0.04,0.02,0.07,0.1     c0.02,0.07,0.03,0.08,0.05,0.11c-0.01,0-0.02,0.01-0.02,0.01h0c-0.04,0.02-0.06,0.04-0.08,0.07c-0.04,0.06-0.07,0.08-0.15,0.1     c-0.01,0.02-0.02,0.03-0.03,0.05c0,0-0.13-0.09-0.2-0.16c-0.03,0.03-0.04,0.05-0.05,0.08C307.07,45.23,307.07,45.18,307.08,45.14     z M307.25,46.1c0,0,0.01-0.01,0.03,0c0.02,0.01,0.03,0.03-0.05,0.15v0c-0.03,0.04-0.06,0.08-0.08,0.12     c-0.04-0.01-0.08-0.02-0.12-0.03C307.09,46.28,307.25,46.1,307.25,46.1z M306.87,45.89c0.05,0.01,0.06,0.02,0.05,0.04l0,0v0v0     c0,0.01-0.01,0.01-0.01,0.02c-0.02,0.02-0.04,0.04-0.05,0.07C306.86,45.98,306.87,45.93,306.87,45.89z M323.22,39.31     c-0.02,0.05-0.04,0.09-0.06,0.14c-0.14-0.04-0.2-0.08-0.15-0.11C323.05,39.32,323.17,39.3,323.22,39.31z M258.56,47.02     C258.56,47.02,258.56,47.02,258.56,47.02c-0.02,0.02-0.25,0.28-0.26,0.28c-0.01,0.01-0.02,0.01-0.03,0.01     C258.35,47.24,258.55,47.03,258.56,47.02z M255.75,50.04c0,0,0,0-0.01,0.03c-0.01,0.01-0.03,0.04-0.08,0.1     c-0.02,0.02-0.03,0.04-0.05,0.06C255.66,50.15,255.74,50.04,255.75,50.04z M245.04,74.05l29.76-21.27l-16.64,46.34L245.04,74.05z      M260.04,105.41l31.51,27.22l-25.45,22.22L260.04,105.41z M273.03,181.5c-0.05-0.04-0.1-0.08-0.15-0.12     c0.11,0.07,0.22,0.12,0.32,0.19l0.23,0.17c0.02,0.02,0.02,0.02,0.02,0.02c0,0,0,0,0,0c0.02,0.02,0.02,0.02,0.02,0.02     C273.47,181.8,273.03,181.5,273.03,181.5z M293.7,189.4l-24.84-29.56l46.1,13.84l-16.74,12.38L293.7,189.4z M348.86,192.73     l24.76-26.91l2.35,1.84l9.89,7.73L348.86,192.73z M390.59,168.7l-2.71,5.03l-12.35-9.65l31.3-25.46L390.59,168.7z M375.98,160.42     l12.99-41.2l19.93,14.42L375.98,160.42z"
   id="path118"
   style="fill:#ffffff" />
			<path
   class="st0"
   d="M353.1,36.21c0-0.03,0.01-0.07,0.01-0.11l-0.29,0.05C352.89,36.18,352.97,36.2,353.1,36.21z"
   id="path119"
   style="fill:#ffffff" />
			<path
   class="st0"
   d="M308.15,43.79c0-0.01,0-0.01,0.01-0.01l-0.27,0.04C308.11,43.84,308.12,43.84,308.15,43.79z"
   id="path120"
   style="fill:#ffffff" />
			<path
   class="st0"
   d="M356.35,35.51c0.04,0.02,0.09,0.05,0.13,0.08c-0.04-0.03-0.08-0.07-0.11-0.11l-0.06,0.01     C356.32,35.5,356.34,35.5,356.35,35.51z"
   id="path121"
   style="fill:#ffffff" />
			<path
   class="st0"
   d="M360.32,34.73l-0.34,0.07C360.33,34.93,360.45,34.85,360.32,34.73z"
   id="path122"
   style="fill:#ffffff" />
			<path
   class="st0"
   d="M359.22,34.93l-0.46,0.09C358.94,35.01,359.09,34.98,359.22,34.93z"
   id="path123"
   style="fill:#ffffff" />
			<path
   class="st0"
   d="M324.01,39.54c0.03,0.05,0.06,0.11,0.09,0.15c0.19-0.07,0.48-0.09,0.67-0.03c0.08-0.06,0.18-0.14,0.26-0.2     c-0.2,0.01-0.47,0-0.67-0.04c0,0-0.01,0.01-0.01,0.01c-0.03,0.04-0.03,0.04-0.15,0.11c-0.06,0.01-0.11-0.02-0.17-0.03     c0,0,0,0,0,0C324.03,39.52,324.02,39.53,324.01,39.54z"
   id="path124"
   style="fill:#ffffff" />
			<path
   class="st0"
   d="M329.05,44.77c0.1,0.03,0.23,0.06,0.33,0.09c-0.12,0.44-0.61,0.42-0.86,0.69c-0.02,0-0.04,0-0.06-0.01     c-0.06-0.05-0.13-0.12-0.19-0.17c-0.24,0.03-0.55,0.1-0.78,0.18c-0.01,0.07-0.01,0.12-0.02,0.18l3.23,2.85     c0.26-1.02,0.76-1.37,1.11-1.49l0.14-0.11c0.04,0,0.09,0.01,0.05,0.27c0.1,0.2,0.27,0.46,0.41,0.63c0,0.02,0,0.04,0.27,0.14     c0.22-0.02,0.51-0.07,0.72-0.13c-0.01-0.14-0.02-0.26-0.03-0.37l-3.73-3.28C329.6,44.48,329.49,44.61,329.05,44.77z"
   id="path125"
   style="fill:#ffffff" />
			<path
   class="st0"
   d="M331.23,42.49c0.01-0.06,0.01-0.11,0.09-0.2c0.1-0.03,0.23-0.06,0.33-0.09l-0.23,0.01     c-0.07-0.32-0.17-0.76-0.22-1.09c1.77-0.23,2-0.58,2.44-1.27c0.02,0,0.05,0,0.09-0.07l-2.23,0.43c-0.3,0.26-0.55,0.56-0.86,0.81     c-0.19-0.08-0.45-0.17-0.64-0.23c-0.1,0.11-0.24,0.27-0.35,0.38c-0.09-0.06-0.21-0.14-0.29-0.2c-0.01,0.04-0.01,0.07-0.02,0.11     c0.04,0,0.07,0.01-0.01,0.07c-0.08,0.07-0.19,0.17-0.27,0.24c-0.33,0.4-0.33,0.4-0.62,1.67c0.08,0.07,0.18,0.17,0.26,0.24     c0.09-0.04,0.21-0.1,0.3-0.14c0.02,0.04,0.04,0.07,0.06,0.1l2.11-0.4C331.2,42.74,331.21,42.6,331.23,42.49z M331.92,40.82     C331.92,40.82,331.92,40.82,331.92,40.82c0,0-0.03,0-0.02,0C331.9,40.82,331.91,40.82,331.92,40.82z"
   id="path126"
   style="fill:#ffffff" />
			<path
   class="st0"
   d="M342.04,76.98l-23.61,3.85c0.4,0.22,0.75,0.54,1.2,0.66c0.02,0.14,0.04,0.33,0.06,0.48     c0.03,0,0.07,0.01,0.27,0.13c0.28,0.32,0.61,0.62,0.97,0.9l5.79-0.94c0.08-0.09,0.17-0.18,0.24-0.27     c0.5-0.02,0.93-0.34,1.43-0.37c0.05-0.05,0.12-0.11,0.18-0.15c0.29,0.14,0.52,0.26,0.73,0.37l17.41-2.84     c-0.06-0.07-0.11-0.15-0.16-0.21c-0.01-0.09-0.01-0.17,0.03-0.36c-0.02-0.15-0.06-0.34-0.08-0.49c-0.01-0.08-0.01-0.17,0.14-0.67     c0.01-0.16,0.02-0.37,0.02-0.53c-0.09-0.08-0.2-0.18-0.3-0.27l-0.22,0.04C343.4,76.75,342.66,76.85,342.04,76.98z"
   id="path127"
   style="fill:#ffffff" />
			<path
   class="st0"
   d="M399.66,56.68c0.01-0.1,0.02-0.2,0.02-0.3c-0.01-0.02-0.03-0.04-0.04-0.05     C399.65,56.44,399.66,56.56,399.66,56.68z"
   id="path128"
   style="fill:#ffffff" />
			<path
   class="st0"
   d="M311.12,159.63c0,0,0.01,0,0.02-0.01l-0.01-0.01C311.13,159.62,311.13,159.62,311.12,159.63z"
   id="path129"
   style="fill:#ffffff" />
			<path
   class="st0"
   d="M343.71,38.32c-0.03,0-0.06,0-0.18,0.27c-0.19,0.1-0.42,0.27-0.56,0.42h0h0h0h0c0,0,0,0,0,0s0,0,0,0     c-0.64-0.05-1.24-0.35-1.9-0.35c-0.14-0.09-0.24-0.15-0.33-0.21l-0.74,0.14c0.93,0.23,0.89,1.27,1.47,1.79     c0.03-0.02,0.08-0.05,0.11-0.08c0.24,0.16,0.27,0.19,0.92,0.4l0.68-0.13c-0.04-0.13-0.11-0.26-0.35-0.43     c-0.09-0.06-0.21-0.13-0.3-0.19c-0.04-0.2-0.06-0.49-0.03-0.69c0.31,0.18,0.64,0.31,0.94,0.5c0,0,0,0,0,0c0,0,0,0,0,0     c0,0,0,0,0,0c0,0,0,0,0,0c0,0,0,0,0,0c0,0,0,0,0,0c0,0,0,0,0,0c0,0,0,0,0.25,0.06c0.21,0.07,0.51,0.08,0.73,0.05     c-0.24-0.29-0.59-0.47-0.8-0.79c1.1-0.91,1.1-0.91,1.75-0.42c0.07-0.02,0.15-0.06,0.22-0.08c-0.04-0.21,0-0.51,0.08-0.71     c-0.09-0.09-0.19-0.2-0.28-0.31l-1.67,0.32C343.73,38.01,343.72,38.15,343.71,38.32z"
   id="path130"
   style="fill:#ffffff" />
			<path
   class="st0"
   d="M347.26,62.24c0.06,0,0.12,0,0.17,0c0,0,0,0,0.01,0C347.35,62.22,347.35,62.22,347.26,62.24z"
   id="path131"
   style="fill:#ffffff" />
			<path
   class="st0"
   d="M362.25,25.64c0.08,0.01,0.19,0.02,0.27,0.03c-0.04-0.01-0.08-0.03-0.15-0.08c0.15,0.06,0.36,0.13,0.52,0.17     c-0.46-0.19-0.77-0.32-1.01-0.42l0.14,0.31c0.12,0.04,0.24,0.07,0.46,0.14C362.42,25.75,362.32,25.69,362.25,25.64z"
   id="path132"
   style="fill:#ffffff" />
		</g>
		<path
   class="st0"
   d="M325.46,199.74c-50.8,0-92.13-41.33-92.13-92.13s41.33-92.13,92.13-92.13c50.8,0,92.13,41.33,92.13,92.13    S376.26,199.74,325.46,199.74z M325.46,18.03c-49.39,0-89.58,40.18-89.58,89.58s40.18,89.58,89.58,89.58s89.58-40.18,89.58-89.58    S374.86,18.03,325.46,18.03z"
   id="path133"
   style="fill:#ffffff" />
	</g>
</g>
<g
   id="Ebene_2"
   class="st1">
	<rect
   x="585.2"
   y="0.03"
   class="st2"
   width="21.39"
   height="21.39"
   id="rect133" />
	<rect
   x="0.03"
   y="194.29"
   class="st2"
   width="21.39"
   height="21.39"
   id="rect134" />
</g>
</svg>
